  0
SECTION
  2
HEADER
  9
$ACADVER
  1
AC1009
  9
$EXTMIN
 10
0.0
 20
0.0
 30
0.0
  9
$EXTMAX
 10
1000.0
 20
1000.0
 30
0.0
  9
$FILLMODE
 70
 0
  9
$SPLFRAME
 70
 1
  0
ENDSEC
  0
SECTION
  2
TABLES
  0
TABLE
  2
LAYER
 70
1
  0
LAYER
  2
0
 70
     0
 62
     7
  6
CONTINUOUS
  0
ENDTAB
  0
ENDSEC
  0
SECTION
  2
ENTITIES
  0
LINE
  8
0
 62
     0
 10
214.607
 20
130.171
 30
0.0
 11
5.29442
 21
130.171
 31
0.0
  0
LINE
  8
0
 62
     0
 10
5.29442
 20
130.171
 30
0.0
 11
5.29442
 21
5.54524
 31
0.0
  0
LINE
  8
0
 62
     0
 10
5.29442
 20
5.54524
 30
0.0
 11
433.723
 21
5.54524
 31
0.0
  0
LINE
  8
0
 62
     0
 10
433.723
 20
5.54524
 30
0.0
 11
433.723
 21
130.171
 31
0.0
  0
LINE
  8
0
 62
     0
 10
433.723
 20
130.171
 30
0.0
 11
224.408
 21
130.171
 31
0.0
  0
LINE
  8
0
 62
     0
 10
224.408
 20
130.171
 30
0.0
 11
224.408
 21
135.371
 31
0.0
  0
LINE
  8
0
 62
     0
 10
224.408
 20
135.371
 30
0.0
 11
436.922
 21
135.371
 31
0.0
  0
LINE
  8
0
 62
     0
 10
436.922
 20
135.371
 30
0.0
 11
437.078
 21
135.365
 31
0.0
  0
LINE
  8
0
 62
     0
 10
437.078
 20
135.365
 30
0.0
 11
437.233
 21
135.347
 31
0.0
  0
LINE
  8
0
 62
     0
 10
437.233
 20
135.347
 30
0.0
 11
437.388
 21
135.316
 31
0.0
  0
LINE
  8
0
 62
     0
 10
437.388
 20
135.316
 30
0.0
 11
437.54
 21
135.274
 31
0.0
  0
LINE
  8
0
 62
     0
 10
437.54
 20
135.274
 30
0.0
 11
437.688
 21
135.219
 31
0.0
  0
LINE
  8
0
 62
     0
 10
437.688
 20
135.219
 30
0.0
 11
437.829
 21
135.154
 31
0.0
  0
LINE
  8
0
 62
     0
 10
437.829
 20
135.154
 30
0.0
 11
437.967
 21
135.077
 31
0.0
  0
LINE
  8
0
 62
     0
 10
437.967
 20
135.077
 30
0.0
 11
438.097
 21
134.99
 31
0.0
  0
LINE
  8
0
 62
     0
 10
438.097
 20
134.99
 30
0.0
 11
438.221
 21
134.892
 31
0.0
  0
LINE
  8
0
 62
     0
 10
438.221
 20
134.892
 30
0.0
 11
438.337
 21
134.786
 31
0.0
  0
LINE
  8
0
 62
     0
 10
438.337
 20
134.786
 30
0.0
 11
438.443
 21
134.67
 31
0.0
  0
LINE
  8
0
 62
     0
 10
438.443
 20
134.67
 30
0.0
 11
438.542
 21
134.548
 31
0.0
  0
LINE
  8
0
 62
     0
 10
438.542
 20
134.548
 30
0.0
 11
438.626
 21
134.416
 31
0.0
  0
LINE
  8
0
 62
     0
 10
438.626
 20
134.416
 30
0.0
 11
438.704
 21
134.279
 31
0.0
  0
LINE
  8
0
 62
     0
 10
438.704
 20
134.279
 30
0.0
 11
438.767
 21
134.137
 31
0.0
  0
LINE
  8
0
 62
     0
 10
438.767
 20
134.137
 30
0.0
 11
438.824
 21
133.991
 31
0.0
  0
LINE
  8
0
 62
     0
 10
438.824
 20
133.991
 30
0.0
 11
438.866
 21
133.838
 31
0.0
  0
LINE
  8
0
 62
     0
 10
438.866
 20
133.838
 30
0.0
 11
438.898
 21
133.685
 31
0.0
  0
LINE
  8
0
 62
     0
 10
438.898
 20
133.685
 30
0.0
 11
438.916
 21
133.528
 31
0.0
  0
LINE
  8
0
 62
     0
 10
438.916
 20
133.528
 30
0.0
 11
438.923
 21
133.371
 31
0.0
  0
LINE
  8
0
 62
     0
 10
438.923
 20
133.371
 30
0.0
 11
438.923
 21
2.34542
 31
0.0
  0
LINE
  8
0
 62
     0
 10
438.923
 20
2.34542
 30
0.0
 11
438.916
 21
2.1897
 31
0.0
  0
LINE
  8
0
 62
     0
 10
438.916
 20
2.1897
 30
0.0
 11
438.898
 21
2.03261
 31
0.0
  0
LINE
  8
0
 62
     0
 10
438.898
 20
2.03261
 30
0.0
 11
438.866
 21
1.87965
 31
0.0
  0
LINE
  8
0
 62
     0
 10
438.866
 20
1.87965
 30
0.0
 11
438.824
 21
1.72668
 31
0.0
  0
LINE
  8
0
 62
     0
 10
438.824
 20
1.72668
 30
0.0
 11
438.767
 21
1.58061
 31
0.0
  0
LINE
  8
0
 62
     0
 10
438.767
 20
1.58061
 30
0.0
 11
438.704
 21
1.43867
 31
0.0
  0
LINE
  8
0
 62
     0
 10
438.704
 20
1.43867
 30
0.0
 11
438.626
 21
1.30087
 31
0.0
  0
LINE
  8
0
 62
     0
 10
438.626
 20
1.30087
 30
0.0
 11
438.542
 21
1.16996
 31
0.0
  0
LINE
  8
0
 62
     0
 10
438.542
 20
1.16996
 30
0.0
 11
438.443
 21
1.04731
 31
0.0
  0
LINE
  8
0
 62
     0
 10
438.443
 20
1.04731
 30
0.0
 11
438.337
 21
0.931556
 31
0.0
  0
LINE
  8
0
 62
     0
 10
438.337
 20
0.931556
 30
0.0
 11
438.221
 21
0.825444
 31
0.0
  0
LINE
  8
0
 62
     0
 10
438.221
 20
0.825444
 30
0.0
 11
438.097
 21
0.727604
 31
0.0
  0
LINE
  8
0
 62
     0
 10
438.097
 20
0.727604
 30
0.0
 11
437.967
 21
0.640789
 31
0.0
  0
LINE
  8
0
 62
     0
 10
437.967
 20
0.640789
 30
0.0
 11
437.829
 21
0.563619
 31
0.0
  0
LINE
  8
0
 62
     0
 10
437.829
 20
0.563619
 30
0.0
 11
437.688
 21
0.498849
 31
0.0
  0
LINE
  8
0
 62
     0
 10
437.688
 20
0.498849
 30
0.0
 11
437.54
 21
0.443727
 31
0.0
  0
LINE
  8
0
 62
     0
 10
437.54
 20
0.443727
 30
0.0
 11
437.388
 21
0.40101
 31
0.0
  0
LINE
  8
0
 62
     0
 10
437.388
 20
0.40101
 30
0.0
 11
437.233
 21
0.370692
 31
0.0
  0
LINE
  8
0
 62
     0
 10
437.233
 20
0.370692
 30
0.0
 11
437.078
 21
0.352778
 31
0.0
  0
LINE
  8
0
 62
     0
 10
437.078
 20
0.352778
 30
0.0
 11
436.922
 21
0.34451
 31
0.0
  0
LINE
  8
0
 62
     0
 10
436.922
 20
0.34451
 30
0.0
 11
2.096
 21
0.34451
 31
0.0
  0
LINE
  8
0
 62
     0
 10
2.096
 20
0.34451
 30
0.0
 11
1.9389
 21
0.352778
 31
0.0
  0
LINE
  8
0
 62
     0
 10
1.9389
 20
0.352778
 30
0.0
 11
1.7818
 21
0.370692
 31
0.0
  0
LINE
  8
0
 62
     0
 10
1.7818
 20
0.370692
 30
0.0
 11
1.62884
 21
0.40101
 31
0.0
  0
LINE
  8
0
 62
     0
 10
1.62884
 20
0.40101
 30
0.0
 11
1.47588
 21
0.443727
 31
0.0
  0
LINE
  8
0
 62
     0
 10
1.47588
 20
0.443727
 30
0.0
 11
1.32981
 21
0.498849
 31
0.0
  0
LINE
  8
0
 62
     0
 10
1.32981
 20
0.498849
 30
0.0
 11
1.18787
 21
0.563619
 31
0.0
  0
LINE
  8
0
 62
     0
 10
1.18787
 20
0.563619
 30
0.0
 11
1.05006
 21
0.640789
 31
0.0
  0
LINE
  8
0
 62
     0
 10
1.05006
 20
0.640789
 30
0.0
 11
0.919152
 21
0.727604
 31
0.0
  0
LINE
  8
0
 62
     0
 10
0.919152
 20
0.727604
 30
0.0
 11
0.796505
 21
0.825444
 31
0.0
  0
LINE
  8
0
 62
     0
 10
0.796505
 20
0.825444
 30
0.0
 11
0.680752
 21
0.931556
 31
0.0
  0
LINE
  8
0
 62
     0
 10
0.680752
 20
0.931556
 30
0.0
 11
0.574643
 21
1.04731
 31
0.0
  0
LINE
  8
0
 62
     0
 10
0.574643
 20
1.04731
 30
0.0
 11
0.4768
 21
1.16996
 31
0.0
  0
LINE
  8
0
 62
     0
 10
0.4768
 20
1.16996
 30
0.0
 11
0.389985
 21
1.30087
 31
0.0
  0
LINE
  8
0
 62
     0
 10
0.389985
 20
1.30087
 30
0.0
 11
0.312815
 21
1.43867
 31
0.0
  0
LINE
  8
0
 62
     0
 10
0.312815
 20
1.43867
 30
0.0
 11
0.248047
 21
1.58061
 31
0.0
  0
LINE
  8
0
 62
     0
 10
0.248047
 20
1.58061
 30
0.0
 11
0.192925
 21
1.72668
 31
0.0
  0
LINE
  8
0
 62
     0
 10
0.192925
 20
1.72668
 30
0.0
 11
0.150206
 21
1.87965
 31
0.0
  0
LINE
  8
0
 62
     0
 10
0.150206
 20
1.87965
 30
0.0
 11
0.119889
 21
2.03261
 31
0.0
  0
LINE
  8
0
 62
     0
 10
0.119889
 20
2.03261
 30
0.0
 11
0.101975
 21
2.1897
 31
0.0
  0
LINE
  8
0
 62
     0
 10
0.101975
 20
2.1897
 30
0.0
 11
0.0950846
 21
2.3468
 31
0.0
  0
LINE
  8
0
 62
     0
 10
0.0950846
 20
2.3468
 30
0.0
 11
0.0950846
 21
133.371
 31
0.0
  0
LINE
  8
0
 62
     0
 10
0.0950846
 20
133.371
 30
0.0
 11
0.101975
 21
133.528
 31
0.0
  0
LINE
  8
0
 62
     0
 10
0.101975
 20
133.528
 30
0.0
 11
0.119889
 21
133.685
 31
0.0
  0
LINE
  8
0
 62
     0
 10
0.119889
 20
133.685
 30
0.0
 11
0.150206
 21
133.838
 31
0.0
  0
LINE
  8
0
 62
     0
 10
0.150206
 20
133.838
 30
0.0
 11
0.192925
 21
133.991
 31
0.0
  0
LINE
  8
0
 62
     0
 10
0.192925
 20
133.991
 30
0.0
 11
0.248047
 21
134.137
 31
0.0
  0
LINE
  8
0
 62
     0
 10
0.248047
 20
134.137
 30
0.0
 11
0.312815
 21
134.279
 31
0.0
  0
LINE
  8
0
 62
     0
 10
0.312815
 20
134.279
 30
0.0
 11
0.389985
 21
134.416
 31
0.0
  0
LINE
  8
0
 62
     0
 10
0.389985
 20
134.416
 30
0.0
 11
0.4768
 21
134.548
 31
0.0
  0
LINE
  8
0
 62
     0
 10
0.4768
 20
134.548
 30
0.0
 11
0.574643
 21
134.67
 31
0.0
  0
LINE
  8
0
 62
     0
 10
0.574643
 20
134.67
 30
0.0
 11
0.680752
 21
134.786
 31
0.0
  0
LINE
  8
0
 62
     0
 10
0.680752
 20
134.786
 30
0.0
 11
0.796505
 21
134.892
 31
0.0
  0
LINE
  8
0
 62
     0
 10
0.796505
 20
134.892
 30
0.0
 11
0.919152
 21
134.99
 31
0.0
  0
LINE
  8
0
 62
     0
 10
0.919152
 20
134.99
 30
0.0
 11
1.05006
 21
135.077
 31
0.0
  0
LINE
  8
0
 62
     0
 10
1.05006
 20
135.077
 30
0.0
 11
1.18787
 21
135.154
 31
0.0
  0
LINE
  8
0
 62
     0
 10
1.18787
 20
135.154
 30
0.0
 11
1.32981
 21
135.219
 31
0.0
  0
LINE
  8
0
 62
     0
 10
1.32981
 20
135.219
 30
0.0
 11
1.47588
 21
135.274
 31
0.0
  0
LINE
  8
0
 62
     0
 10
1.47588
 20
135.274
 30
0.0
 11
1.62884
 21
135.316
 31
0.0
  0
LINE
  8
0
 62
     0
 10
1.62884
 20
135.316
 30
0.0
 11
1.7818
 21
135.347
 31
0.0
  0
LINE
  8
0
 62
     0
 10
1.7818
 20
135.347
 30
0.0
 11
1.9389
 21
135.365
 31
0.0
  0
LINE
  8
0
 62
     0
 10
1.9389
 20
135.365
 30
0.0
 11
2.096
 21
135.371
 31
0.0
  0
LINE
  8
0
 62
     0
 10
2.096
 20
135.371
 30
0.0
 11
214.607
 21
135.371
 31
0.0
  0
LINE
  8
0
 62
     0
 10
214.607
 20
135.371
 30
0.0
 11
214.607
 21
130.171
 31
0.0
  0
LINE
  8
0
 62
     0
 10
2.33991
 20
4.03902
 30
0.0
 11
2.01883
 21
3.87643
 31
0.0
  0
LINE
  8
0
 62
     0
 10
2.01883
 20
3.87643
 30
0.0
 11
1.76389
 21
3.62148
 31
0.0
  0
LINE
  8
0
 62
     0
 10
1.76389
 20
3.62148
 30
0.0
 11
1.60128
 21
3.30178
 31
0.0
  0
LINE
  8
0
 62
     0
 10
1.60128
 20
3.30178
 30
0.0
 11
1.54478
 21
2.94487
 31
0.0
  0
LINE
  8
0
 62
     0
 10
1.54478
 20
2.94487
 30
0.0
 11
1.60128
 21
2.59071
 31
0.0
  0
LINE
  8
0
 62
     0
 10
1.60128
 20
2.59071
 30
0.0
 11
1.76389
 21
2.26963
 31
0.0
  0
LINE
  8
0
 62
     0
 10
1.76389
 20
2.26963
 30
0.0
 11
2.01883
 21
2.01469
 31
0.0
  0
LINE
  8
0
 62
     0
 10
2.01883
 20
2.01469
 30
0.0
 11
2.33991
 21
1.85208
 31
0.0
  0
LINE
  8
0
 62
     0
 10
2.33991
 20
1.85208
 30
0.0
 11
2.69407
 21
1.79558
 31
0.0
  0
LINE
  8
0
 62
     0
 10
2.69407
 20
1.79558
 30
0.0
 11
3.05098
 21
1.85208
 31
0.0
  0
LINE
  8
0
 62
     0
 10
3.05098
 20
1.85208
 30
0.0
 11
3.37068
 21
2.01469
 31
0.0
  0
LINE
  8
0
 62
     0
 10
3.37068
 20
2.01469
 30
0.0
 11
3.6256
 21
2.26963
 31
0.0
  0
LINE
  8
0
 62
     0
 10
3.6256
 20
2.26963
 30
0.0
 11
3.78823
 21
2.59071
 31
0.0
  0
LINE
  8
0
 62
     0
 10
3.78823
 20
2.59071
 30
0.0
 11
3.84471
 21
2.94487
 31
0.0
  0
LINE
  8
0
 62
     0
 10
3.84471
 20
2.94487
 30
0.0
 11
3.78823
 21
3.30178
 31
0.0
  0
LINE
  8
0
 62
     0
 10
3.78823
 20
3.30178
 30
0.0
 11
3.6256
 21
3.62148
 31
0.0
  0
LINE
  8
0
 62
     0
 10
3.6256
 20
3.62148
 30
0.0
 11
3.37068
 21
3.87643
 31
0.0
  0
LINE
  8
0
 62
     0
 10
3.37068
 20
3.87643
 30
0.0
 11
3.05098
 21
4.03902
 31
0.0
  0
LINE
  8
0
 62
     0
 10
3.05098
 20
4.03902
 30
0.0
 11
2.69407
 21
4.09554
 31
0.0
  0
LINE
  8
0
 62
     0
 10
2.69407
 20
4.09554
 30
0.0
 11
2.33991
 21
4.03902
 31
0.0
  0
LINE
  8
0
 62
     0
 10
146.881
 20
4.03902
 30
0.0
 11
146.561
 21
3.87643
 31
0.0
  0
LINE
  8
0
 62
     0
 10
146.561
 20
3.87643
 30
0.0
 11
146.306
 21
3.62148
 31
0.0
  0
LINE
  8
0
 62
     0
 10
146.306
 20
3.62148
 30
0.0
 11
146.144
 21
3.30178
 31
0.0
  0
LINE
  8
0
 62
     0
 10
146.144
 20
3.30178
 30
0.0
 11
146.087
 21
2.94487
 31
0.0
  0
LINE
  8
0
 62
     0
 10
146.087
 20
2.94487
 30
0.0
 11
146.144
 21
2.59071
 31
0.0
  0
LINE
  8
0
 62
     0
 10
146.144
 20
2.59071
 30
0.0
 11
146.306
 21
2.26963
 31
0.0
  0
LINE
  8
0
 62
     0
 10
146.306
 20
2.26963
 30
0.0
 11
146.561
 21
2.01469
 31
0.0
  0
LINE
  8
0
 62
     0
 10
146.561
 20
2.01469
 30
0.0
 11
146.881
 21
1.85208
 31
0.0
  0
LINE
  8
0
 62
     0
 10
146.881
 20
1.85208
 30
0.0
 11
147.238
 21
1.79558
 31
0.0
  0
LINE
  8
0
 62
     0
 10
147.238
 20
1.79558
 30
0.0
 11
147.592
 21
1.85208
 31
0.0
  0
LINE
  8
0
 62
     0
 10
147.592
 20
1.85208
 30
0.0
 11
147.913
 21
2.01469
 31
0.0
  0
LINE
  8
0
 62
     0
 10
147.913
 20
2.01469
 30
0.0
 11
148.168
 21
2.26963
 31
0.0
  0
LINE
  8
0
 62
     0
 10
148.168
 20
2.26963
 30
0.0
 11
148.331
 21
2.59071
 31
0.0
  0
LINE
  8
0
 62
     0
 10
148.331
 20
2.59071
 30
0.0
 11
148.387
 21
2.94487
 31
0.0
  0
LINE
  8
0
 62
     0
 10
148.387
 20
2.94487
 30
0.0
 11
148.331
 21
3.30178
 31
0.0
  0
LINE
  8
0
 62
     0
 10
148.331
 20
3.30178
 30
0.0
 11
148.168
 21
3.62148
 31
0.0
  0
LINE
  8
0
 62
     0
 10
148.168
 20
3.62148
 30
0.0
 11
147.913
 21
3.87643
 31
0.0
  0
LINE
  8
0
 62
     0
 10
147.913
 20
3.87643
 30
0.0
 11
147.592
 21
4.03902
 31
0.0
  0
LINE
  8
0
 62
     0
 10
147.592
 20
4.03902
 30
0.0
 11
147.238
 21
4.09554
 31
0.0
  0
LINE
  8
0
 62
     0
 10
147.238
 20
4.09554
 30
0.0
 11
146.881
 21
4.03902
 31
0.0
  0
LINE
  8
0
 62
     0
 10
291.423
 20
4.03902
 30
0.0
 11
291.104
 21
3.87643
 31
0.0
  0
LINE
  8
0
 62
     0
 10
291.104
 20
3.87643
 30
0.0
 11
290.849
 21
3.62148
 31
0.0
  0
LINE
  8
0
 62
     0
 10
290.849
 20
3.62148
 30
0.0
 11
290.686
 21
3.30178
 31
0.0
  0
LINE
  8
0
 62
     0
 10
290.686
 20
3.30178
 30
0.0
 11
290.63
 21
2.94487
 31
0.0
  0
LINE
  8
0
 62
     0
 10
290.63
 20
2.94487
 30
0.0
 11
290.686
 21
2.59071
 31
0.0
  0
LINE
  8
0
 62
     0
 10
290.686
 20
2.59071
 30
0.0
 11
290.849
 21
2.26963
 31
0.0
  0
LINE
  8
0
 62
     0
 10
290.849
 20
2.26963
 30
0.0
 11
291.104
 21
2.01469
 31
0.0
  0
LINE
  8
0
 62
     0
 10
291.104
 20
2.01469
 30
0.0
 11
291.423
 21
1.85208
 31
0.0
  0
LINE
  8
0
 62
     0
 10
291.423
 20
1.85208
 30
0.0
 11
291.779
 21
1.79558
 31
0.0
  0
LINE
  8
0
 62
     0
 10
291.779
 20
1.79558
 30
0.0
 11
292.135
 21
1.85208
 31
0.0
  0
LINE
  8
0
 62
     0
 10
292.135
 20
1.85208
 30
0.0
 11
292.454
 21
2.01469
 31
0.0
  0
LINE
  8
0
 62
     0
 10
292.454
 20
2.01469
 30
0.0
 11
292.709
 21
2.26963
 31
0.0
  0
LINE
  8
0
 62
     0
 10
292.709
 20
2.26963
 30
0.0
 11
292.873
 21
2.59071
 31
0.0
  0
LINE
  8
0
 62
     0
 10
292.873
 20
2.59071
 30
0.0
 11
292.93
 21
2.94487
 31
0.0
  0
LINE
  8
0
 62
     0
 10
292.93
 20
2.94487
 30
0.0
 11
292.873
 21
3.30178
 31
0.0
  0
LINE
  8
0
 62
     0
 10
292.873
 20
3.30178
 30
0.0
 11
292.709
 21
3.62148
 31
0.0
  0
LINE
  8
0
 62
     0
 10
292.709
 20
3.62148
 30
0.0
 11
292.454
 21
3.87643
 31
0.0
  0
LINE
  8
0
 62
     0
 10
292.454
 20
3.87643
 30
0.0
 11
292.135
 21
4.03902
 31
0.0
  0
LINE
  8
0
 62
     0
 10
292.135
 20
4.03902
 30
0.0
 11
291.779
 21
4.09554
 31
0.0
  0
LINE
  8
0
 62
     0
 10
291.779
 20
4.09554
 30
0.0
 11
291.423
 21
4.03902
 31
0.0
  0
LINE
  8
0
 62
     0
 10
435.966
 20
4.03902
 30
0.0
 11
435.645
 21
3.87643
 31
0.0
  0
LINE
  8
0
 62
     0
 10
435.645
 20
3.87643
 30
0.0
 11
435.391
 21
3.62148
 31
0.0
  0
LINE
  8
0
 62
     0
 10
435.391
 20
3.62148
 30
0.0
 11
435.225
 21
3.30178
 31
0.0
  0
LINE
  8
0
 62
     0
 10
435.225
 20
3.30178
 30
0.0
 11
435.173
 21
2.94487
 31
0.0
  0
LINE
  8
0
 62
     0
 10
435.173
 20
2.94487
 30
0.0
 11
435.225
 21
2.59071
 31
0.0
  0
LINE
  8
0
 62
     0
 10
435.225
 20
2.59071
 30
0.0
 11
435.391
 21
2.26963
 31
0.0
  0
LINE
  8
0
 62
     0
 10
435.391
 20
2.26963
 30
0.0
 11
435.645
 21
2.01469
 31
0.0
  0
LINE
  8
0
 62
     0
 10
435.645
 20
2.01469
 30
0.0
 11
435.966
 21
1.85208
 31
0.0
  0
LINE
  8
0
 62
     0
 10
435.966
 20
1.85208
 30
0.0
 11
436.323
 21
1.79558
 31
0.0
  0
LINE
  8
0
 62
     0
 10
436.323
 20
1.79558
 30
0.0
 11
436.675
 21
1.85208
 31
0.0
  0
LINE
  8
0
 62
     0
 10
436.675
 20
1.85208
 30
0.0
 11
436.996
 21
2.01469
 31
0.0
  0
LINE
  8
0
 62
     0
 10
436.996
 20
2.01469
 30
0.0
 11
437.25
 21
2.26963
 31
0.0
  0
LINE
  8
0
 62
     0
 10
437.25
 20
2.26963
 30
0.0
 11
437.413
 21
2.59071
 31
0.0
  0
LINE
  8
0
 62
     0
 10
437.413
 20
2.59071
 30
0.0
 11
437.473
 21
2.94487
 31
0.0
  0
LINE
  8
0
 62
     0
 10
437.473
 20
2.94487
 30
0.0
 11
437.413
 21
3.30178
 31
0.0
  0
LINE
  8
0
 62
     0
 10
437.413
 20
3.30178
 30
0.0
 11
437.25
 21
3.62148
 31
0.0
  0
LINE
  8
0
 62
     0
 10
437.25
 20
3.62148
 30
0.0
 11
436.996
 21
3.87643
 31
0.0
  0
LINE
  8
0
 62
     0
 10
436.996
 20
3.87643
 30
0.0
 11
436.675
 21
4.03902
 31
0.0
  0
LINE
  8
0
 62
     0
 10
436.675
 20
4.03902
 30
0.0
 11
436.323
 21
4.09554
 31
0.0
  0
LINE
  8
0
 62
     0
 10
436.323
 20
4.09554
 30
0.0
 11
435.966
 21
4.03902
 31
0.0
  0
LINE
  8
0
 62
     0
 10
2.33991
 20
133.865
 30
0.0
 11
2.01883
 21
133.703
 31
0.0
  0
LINE
  8
0
 62
     0
 10
2.01883
 20
133.703
 30
0.0
 11
1.76389
 21
133.448
 31
0.0
  0
LINE
  8
0
 62
     0
 10
1.76389
 20
133.448
 30
0.0
 11
1.60128
 21
133.127
 31
0.0
  0
LINE
  8
0
 62
     0
 10
1.60128
 20
133.127
 30
0.0
 11
1.54478
 21
132.773
 31
0.0
  0
LINE
  8
0
 62
     0
 10
1.54478
 20
132.773
 30
0.0
 11
1.60128
 21
132.416
 31
0.0
  0
LINE
  8
0
 62
     0
 10
1.60128
 20
132.416
 30
0.0
 11
1.76389
 21
132.096
 31
0.0
  0
LINE
  8
0
 62
     0
 10
1.76389
 20
132.096
 30
0.0
 11
2.01883
 21
131.841
 31
0.0
  0
LINE
  8
0
 62
     0
 10
2.01883
 20
131.841
 30
0.0
 11
2.33991
 21
131.679
 31
0.0
  0
LINE
  8
0
 62
     0
 10
2.33991
 20
131.679
 30
0.0
 11
2.69407
 21
131.622
 31
0.0
  0
LINE
  8
0
 62
     0
 10
2.69407
 20
131.622
 30
0.0
 11
3.05098
 21
131.679
 31
0.0
  0
LINE
  8
0
 62
     0
 10
3.05098
 20
131.679
 30
0.0
 11
3.37068
 21
131.841
 31
0.0
  0
LINE
  8
0
 62
     0
 10
3.37068
 20
131.841
 30
0.0
 11
3.6256
 21
132.096
 31
0.0
  0
LINE
  8
0
 62
     0
 10
3.6256
 20
132.096
 30
0.0
 11
3.78823
 21
132.416
 31
0.0
  0
LINE
  8
0
 62
     0
 10
3.78823
 20
132.416
 30
0.0
 11
3.84471
 21
132.773
 31
0.0
  0
LINE
  8
0
 62
     0
 10
3.84471
 20
132.773
 30
0.0
 11
3.78823
 21
133.127
 31
0.0
  0
LINE
  8
0
 62
     0
 10
3.78823
 20
133.127
 30
0.0
 11
3.6256
 21
133.448
 31
0.0
  0
LINE
  8
0
 62
     0
 10
3.6256
 20
133.448
 30
0.0
 11
3.37068
 21
133.703
 31
0.0
  0
LINE
  8
0
 62
     0
 10
3.37068
 20
133.703
 30
0.0
 11
3.05098
 21
133.865
 31
0.0
  0
LINE
  8
0
 62
     0
 10
3.05098
 20
133.865
 30
0.0
 11
2.69407
 21
133.922
 31
0.0
  0
LINE
  8
0
 62
     0
 10
2.69407
 20
133.922
 30
0.0
 11
2.33991
 21
133.865
 31
0.0
  0
LINE
  8
0
 62
     0
 10
435.966
 20
133.865
 30
0.0
 11
435.645
 21
133.703
 31
0.0
  0
LINE
  8
0
 62
     0
 10
435.645
 20
133.703
 30
0.0
 11
435.391
 21
133.448
 31
0.0
  0
LINE
  8
0
 62
     0
 10
435.391
 20
133.448
 30
0.0
 11
435.225
 21
133.127
 31
0.0
  0
LINE
  8
0
 62
     0
 10
435.225
 20
133.127
 30
0.0
 11
435.173
 21
132.771
 31
0.0
  0
LINE
  8
0
 62
     0
 10
435.173
 20
132.771
 30
0.0
 11
435.225
 21
132.416
 31
0.0
  0
LINE
  8
0
 62
     0
 10
435.225
 20
132.416
 30
0.0
 11
435.391
 21
132.096
 31
0.0
  0
LINE
  8
0
 62
     0
 10
435.391
 20
132.096
 30
0.0
 11
435.645
 21
131.841
 31
0.0
  0
LINE
  8
0
 62
     0
 10
435.645
 20
131.841
 30
0.0
 11
435.966
 21
131.679
 31
0.0
  0
LINE
  8
0
 62
     0
 10
435.966
 20
131.679
 30
0.0
 11
436.323
 21
131.622
 31
0.0
  0
LINE
  8
0
 62
     0
 10
436.323
 20
131.622
 30
0.0
 11
436.675
 21
131.679
 31
0.0
  0
LINE
  8
0
 62
     0
 10
436.675
 20
131.679
 30
0.0
 11
436.996
 21
131.841
 31
0.0
  0
LINE
  8
0
 62
     0
 10
436.996
 20
131.841
 30
0.0
 11
437.25
 21
132.096
 31
0.0
  0
LINE
  8
0
 62
     0
 10
437.25
 20
132.096
 30
0.0
 11
437.413
 21
132.416
 31
0.0
  0
LINE
  8
0
 62
     0
 10
437.413
 20
132.416
 30
0.0
 11
437.473
 21
132.771
 31
0.0
  0
LINE
  8
0
 62
     0
 10
437.473
 20
132.771
 30
0.0
 11
437.413
 21
133.127
 31
0.0
  0
LINE
  8
0
 62
     0
 10
437.413
 20
133.127
 30
0.0
 11
437.25
 21
133.448
 31
0.0
  0
LINE
  8
0
 62
     0
 10
437.25
 20
133.448
 30
0.0
 11
436.996
 21
133.703
 31
0.0
  0
LINE
  8
0
 62
     0
 10
436.996
 20
133.703
 30
0.0
 11
436.675
 21
133.865
 31
0.0
  0
LINE
  8
0
 62
     0
 10
436.675
 20
133.865
 30
0.0
 11
436.323
 21
133.922
 31
0.0
  0
LINE
  8
0
 62
     0
 10
436.323
 20
133.922
 30
0.0
 11
435.966
 21
133.865
 31
0.0
  0
LINE
  8
0
 62
     0
 10
291.423
 20
133.865
 30
0.0
 11
291.104
 21
133.703
 31
0.0
  0
LINE
  8
0
 62
     0
 10
291.104
 20
133.703
 30
0.0
 11
290.849
 21
133.448
 31
0.0
  0
LINE
  8
0
 62
     0
 10
290.849
 20
133.448
 30
0.0
 11
290.686
 21
133.127
 31
0.0
  0
LINE
  8
0
 62
     0
 10
290.686
 20
133.127
 30
0.0
 11
290.63
 21
132.771
 31
0.0
  0
LINE
  8
0
 62
     0
 10
290.63
 20
132.771
 30
0.0
 11
290.686
 21
132.416
 31
0.0
  0
LINE
  8
0
 62
     0
 10
290.686
 20
132.416
 30
0.0
 11
290.849
 21
132.096
 31
0.0
  0
LINE
  8
0
 62
     0
 10
290.849
 20
132.096
 30
0.0
 11
291.104
 21
131.841
 31
0.0
  0
LINE
  8
0
 62
     0
 10
291.104
 20
131.841
 30
0.0
 11
291.423
 21
131.679
 31
0.0
  0
LINE
  8
0
 62
     0
 10
291.423
 20
131.679
 30
0.0
 11
291.779
 21
131.622
 31
0.0
  0
LINE
  8
0
 62
     0
 10
291.779
 20
131.622
 30
0.0
 11
292.135
 21
131.679
 31
0.0
  0
LINE
  8
0
 62
     0
 10
292.135
 20
131.679
 30
0.0
 11
292.454
 21
131.841
 31
0.0
  0
LINE
  8
0
 62
     0
 10
292.454
 20
131.841
 30
0.0
 11
292.709
 21
132.096
 31
0.0
  0
LINE
  8
0
 62
     0
 10
292.709
 20
132.096
 30
0.0
 11
292.873
 21
132.416
 31
0.0
  0
LINE
  8
0
 62
     0
 10
292.873
 20
132.416
 30
0.0
 11
292.93
 21
132.771
 31
0.0
  0
LINE
  8
0
 62
     0
 10
292.93
 20
132.771
 30
0.0
 11
292.873
 21
133.127
 31
0.0
  0
LINE
  8
0
 62
     0
 10
292.873
 20
133.127
 30
0.0
 11
292.709
 21
133.448
 31
0.0
  0
LINE
  8
0
 62
     0
 10
292.709
 20
133.448
 30
0.0
 11
292.454
 21
133.703
 31
0.0
  0
LINE
  8
0
 62
     0
 10
292.454
 20
133.703
 30
0.0
 11
292.135
 21
133.865
 31
0.0
  0
LINE
  8
0
 62
     0
 10
292.135
 20
133.865
 30
0.0
 11
291.779
 21
133.922
 31
0.0
  0
LINE
  8
0
 62
     0
 10
291.779
 20
133.922
 30
0.0
 11
291.423
 21
133.865
 31
0.0
  0
LINE
  8
0
 62
     0
 10
146.881
 20
133.865
 30
0.0
 11
146.561
 21
133.703
 31
0.0
  0
LINE
  8
0
 62
     0
 10
146.561
 20
133.703
 30
0.0
 11
146.306
 21
133.448
 31
0.0
  0
LINE
  8
0
 62
     0
 10
146.306
 20
133.448
 30
0.0
 11
146.144
 21
133.127
 31
0.0
  0
LINE
  8
0
 62
     0
 10
146.144
 20
133.127
 30
0.0
 11
146.087
 21
132.771
 31
0.0
  0
LINE
  8
0
 62
     0
 10
146.087
 20
132.771
 30
0.0
 11
146.144
 21
132.416
 31
0.0
  0
LINE
  8
0
 62
     0
 10
146.144
 20
132.416
 30
0.0
 11
146.306
 21
132.096
 31
0.0
  0
LINE
  8
0
 62
     0
 10
146.306
 20
132.096
 30
0.0
 11
146.561
 21
131.841
 31
0.0
  0
LINE
  8
0
 62
     0
 10
146.561
 20
131.841
 30
0.0
 11
146.881
 21
131.679
 31
0.0
  0
LINE
  8
0
 62
     0
 10
146.881
 20
131.679
 30
0.0
 11
147.238
 21
131.622
 31
0.0
  0
LINE
  8
0
 62
     0
 10
147.238
 20
131.622
 30
0.0
 11
147.592
 21
131.679
 31
0.0
  0
LINE
  8
0
 62
     0
 10
147.592
 20
131.679
 30
0.0
 11
147.913
 21
131.841
 31
0.0
  0
LINE
  8
0
 62
     0
 10
147.913
 20
131.841
 30
0.0
 11
148.168
 21
132.096
 31
0.0
  0
LINE
  8
0
 62
     0
 10
148.168
 20
132.096
 30
0.0
 11
148.331
 21
132.416
 31
0.0
  0
LINE
  8
0
 62
     0
 10
148.331
 20
132.416
 30
0.0
 11
148.387
 21
132.771
 31
0.0
  0
LINE
  8
0
 62
     0
 10
148.387
 20
132.771
 30
0.0
 11
148.331
 21
133.127
 31
0.0
  0
LINE
  8
0
 62
     0
 10
148.331
 20
133.127
 30
0.0
 11
148.168
 21
133.448
 31
0.0
  0
LINE
  8
0
 62
     0
 10
148.168
 20
133.448
 30
0.0
 11
147.913
 21
133.703
 31
0.0
  0
LINE
  8
0
 62
     0
 10
147.913
 20
133.703
 30
0.0
 11
147.592
 21
133.865
 31
0.0
  0
LINE
  8
0
 62
     0
 10
147.592
 20
133.865
 30
0.0
 11
147.238
 21
133.922
 31
0.0
  0
LINE
  8
0
 62
     0
 10
147.238
 20
133.922
 30
0.0
 11
146.881
 21
133.865
 31
0.0
  0
ENDSEC
  0
EOF
