M48
; DRILL file {KiCad (5.1.10)-1} date 06/26/21 18:23:11
; FORMAT={-:-/ absolute / inch / decimal}
; #@! TF.CreationDate,2021-06-26T18:23:11+01:00
; #@! TF.GenerationSoftware,Kicad,Pcbnew,(5.1.10)-1
; #@! TF.FileFunction,NonPlated,1,2,NPTH
FMAT,2
INCH
T1C0.0689
T2C0.1570
%
G90
G05
T1
X-1.8775Y-1.4688
X-1.8775Y-2.5938
X-1.7825Y-4.8438
X-1.7825Y-5.5938
X-1.6875Y-3.3438
X-1.5975Y-4.0938
X-1.4775Y-1.4688
X-1.4775Y-2.5938
X-1.3825Y-4.8438
X-1.3825Y-5.5938
X-1.2875Y-3.3438
X-1.1975Y-4.0938
X-1.1275Y-2.5938
X-0.9375Y-4.8438
X-0.8475Y-5.5938
X-0.7525Y-3.3438
X-0.7275Y-2.5938
X-0.5675Y-4.0938
X-0.5375Y-4.8438
X-0.4475Y-5.5938
X-0.3775Y-1.4688
X-0.3775Y-2.5938
X-0.3525Y-3.3438
X-0.1875Y-4.8438
X-0.1675Y-4.0938
X-0.0025Y-3.3438
X0.0225Y-1.4688
X0.0225Y-2.5938
X0.0925Y-5.5938
X0.1825Y-4.0938
X0.2125Y-4.8438
X0.3725Y-1.4688
X0.3725Y-2.5938
X0.3975Y-3.3438
X0.4925Y-5.5938
X0.5625Y-4.8438
X0.5825Y-4.0938
X0.7475Y-3.3438
X0.7725Y-1.4688
X0.7725Y-2.5938
X0.9325Y-4.0938
X0.9625Y-4.8438
X1.1225Y-1.4688
X1.1225Y-2.5938
X1.1475Y-3.3438
X1.3125Y-4.8438
X1.3325Y-4.0938
X1.4975Y-3.3438
X1.5225Y-1.4688
X1.5225Y-2.5938
X1.6825Y-4.0938
X1.7125Y-4.8438
X1.8725Y-1.4688
X1.8725Y-2.5938
X1.8975Y-3.3438
X2.0625Y-4.8438
X2.0825Y-4.0938
X2.2475Y-3.3438
X2.2725Y-1.4688
X2.2725Y-2.5938
X2.4325Y-4.0938
X2.4625Y-4.8438
X2.6225Y-2.5938
X2.6475Y-3.3438
X2.8125Y-4.8438
X2.8325Y-4.0938
X2.9025Y-5.5938
X2.9975Y-1.4688
X2.9975Y-3.3438
X3.0225Y-2.5938
X3.1825Y-4.0938
X3.2125Y-4.8438
X3.3025Y-5.5938
X3.3725Y-2.5938
X3.3975Y-1.4688
X3.3975Y-3.3438
X3.5625Y-4.8438
X3.5825Y-4.0938
X3.7475Y-1.4688
X3.7475Y-3.3438
X3.7725Y-2.5938
X3.9325Y-4.0938
X3.9625Y-4.8438
X4.1225Y-2.5938
X4.1475Y-1.4688
X4.1475Y-3.3438
X4.3125Y-4.8438
X4.3325Y-4.0938
X4.4975Y-1.4688
X4.4975Y-3.3438
X4.5225Y-2.5938
X4.6825Y-4.0938
X4.7125Y-4.8438
X4.8725Y-2.5938
X4.8975Y-1.4688
X4.8975Y-3.3438
X5.0625Y-4.8438
X5.0825Y-4.0938
X5.2475Y-1.4688
X5.2475Y-3.3438
X5.2725Y-2.5938
X5.4325Y-4.0938
X5.4625Y-4.8438
X5.6225Y-2.5938
X5.6475Y-1.4688
X5.6475Y-3.3438
X5.7175Y-5.5938
X5.8125Y-4.8438
X5.8325Y-4.0938
X5.9975Y-3.3438
X6.0225Y-2.5938
X6.1175Y-5.5938
X6.1825Y-4.0938
X6.2125Y-4.8438
X6.3725Y-1.4688
X6.3725Y-2.5938
X6.3975Y-3.3438
X6.5625Y-4.8438
X6.5825Y-4.0938
X6.6525Y-5.5938
X6.7475Y-3.3438
X6.7725Y-1.4688
X6.7725Y-2.5938
X6.9325Y-4.0938
X6.9625Y-4.8438
X7.0525Y-5.5938
X7.1225Y-1.4688
X7.1225Y-2.5938
X7.1475Y-3.3438
X7.3325Y-4.0938
X7.4975Y-3.3438
X7.5225Y-1.4688
X7.5225Y-2.5938
X7.5925Y-5.5938
X7.6825Y-4.0938
X7.8725Y-1.4688
X7.8975Y-3.3438
X7.9675Y-4.8438
X7.9925Y-5.5938
X8.0825Y-4.0938
X8.2475Y-2.5938
X8.2725Y-1.4688
X8.3675Y-4.8438
X8.5275Y-3.7188
X8.5275Y-5.5938
X8.6225Y-1.4688
X8.6475Y-2.5938
X8.9275Y-3.7188
X8.9275Y-5.5938
X9.0225Y-1.4688
X9.5625Y-1.4688
X9.5625Y-2.5938
X9.5625Y-3.3438
X9.5625Y-5.5938
X9.9625Y-1.4688
X9.9625Y-2.5938
X9.9625Y-3.3438
X9.9625Y-5.5938
X10.3075Y-5.5938
X10.3125Y-1.4688
X10.3125Y-2.5938
X10.3125Y-3.3438
X10.3125Y-4.8438
X10.7075Y-5.5938
X10.7125Y-1.4688
X10.7125Y-2.5938
X10.7125Y-3.3438
X10.7125Y-4.8438
X11.0625Y-1.4688
X11.0625Y-2.5938
X11.0625Y-3.3438
X11.0625Y-5.5938
X11.4625Y-1.4688
X11.4625Y-2.5938
X11.4625Y-3.3438
X11.4625Y-5.5938
X11.9975Y-2.5938
X11.9975Y-3.3438
X11.9975Y-4.0938
X11.9975Y-4.8438
X12.3725Y-5.5938
X12.3975Y-2.5938
X12.3975Y-3.3438
X12.3975Y-4.0938
X12.3975Y-4.8438
X12.7475Y-2.5938
X12.7475Y-3.3438
X12.7475Y-4.0938
X12.7475Y-4.8438
X12.7725Y-5.5938
X13.1475Y-2.5938
X13.1475Y-3.3438
X13.1475Y-4.0938
X13.1475Y-4.8438
X13.4975Y-2.5938
X13.4975Y-3.3438
X13.4975Y-4.0938
X13.4975Y-4.8438
X13.4975Y-5.5938
X13.8975Y-2.5938
X13.8975Y-3.3438
X13.8975Y-4.0938
X13.8975Y-4.8438
X13.8975Y-5.5938
X14.2475Y-2.5938
X14.2475Y-3.7188
X14.2475Y-5.2188
X14.6475Y-2.5938
X14.6475Y-3.7188
X14.6475Y-5.2188
T2
X-1.6775Y-1.4688
X-1.6775Y-2.5938
X-1.5825Y-4.8438
X-1.5825Y-5.5938
X-1.4875Y-3.3438
X-1.3975Y-4.0938
X-0.9275Y-2.5938
X-0.7375Y-4.8438
X-0.6475Y-5.5938
X-0.5525Y-3.3438
X-0.3675Y-4.0938
X-0.1775Y-1.4688
X-0.1775Y-2.5938
X0.0125Y-4.8438
X0.1975Y-3.3438
X0.2925Y-5.5938
X0.3825Y-4.0938
X0.5725Y-1.4688
X0.5725Y-2.5938
X0.7625Y-4.8438
X0.9475Y-3.3438
X1.1325Y-4.0938
X1.3225Y-1.4688
X1.3225Y-2.5938
X1.5125Y-4.8438
X1.6975Y-3.3438
X1.8825Y-4.0938
X2.0725Y-1.4688
X2.0725Y-2.5938
X2.2625Y-4.8438
X2.4475Y-3.3438
X2.6325Y-4.0938
X2.8225Y-2.5938
X3.0125Y-4.8438
X3.1025Y-5.5938
X3.1975Y-1.4688
X3.1975Y-3.3438
X3.3825Y-4.0938
X3.5725Y-2.5938
X3.7625Y-4.8438
X3.9475Y-1.4688
X3.9475Y-3.3438
X4.1325Y-4.0938
X4.3225Y-2.5938
X4.5125Y-4.8438
X4.6975Y-1.4688
X4.6975Y-3.3438
X4.8825Y-4.0938
X5.0725Y-2.5938
X5.2625Y-4.8438
X5.4475Y-1.4688
X5.4475Y-3.3438
X5.6325Y-4.0938
X5.8225Y-2.5938
X5.9175Y-5.5938
X6.0125Y-4.8438
X6.1975Y-3.3438
X6.3825Y-4.0938
X6.5725Y-1.4688
X6.5725Y-2.5938
X6.7625Y-4.8438
X6.8525Y-5.5938
X6.9475Y-3.3438
X7.1325Y-4.0938
X7.3225Y-1.4688
X7.3225Y-2.5938
X7.6975Y-3.3438
X7.7925Y-5.5938
X7.8825Y-4.0938
X8.0725Y-1.4688
X8.1675Y-4.8438
X8.4475Y-2.5938
X8.7275Y-3.7188
X8.7275Y-5.5938
X8.8225Y-1.4688
X9.7625Y-1.4688
X9.7625Y-2.5938
X9.7625Y-3.3438
X9.7625Y-5.5938
X10.5075Y-5.5938
X10.5125Y-1.4688
X10.5125Y-2.5938
X10.5125Y-3.3438
X10.5125Y-4.8438
X11.2625Y-1.4688
X11.2625Y-2.5938
X11.2625Y-3.3438
X11.2625Y-5.5938
X12.1975Y-2.5938
X12.1975Y-3.3438
X12.1975Y-4.0938
X12.1975Y-4.8438
X12.5725Y-5.5938
X12.9475Y-2.5938
X12.9475Y-3.3438
X12.9475Y-4.0938
X12.9475Y-4.8438
X13.6975Y-2.5938
X13.6975Y-3.3438
X13.6975Y-4.0938
X13.6975Y-4.8438
X13.6975Y-5.5938
X14.4475Y-2.5938
X14.4475Y-3.7188
X14.4475Y-5.2188
T0
M30
