M48
; DRILL file {KiCad (5.1.10)-1} date 06/26/21 18:23:11
; FORMAT={-:-/ absolute / inch / decimal}
; #@! TF.CreationDate,2021-06-26T18:23:11+01:00
; #@! TF.GenerationSoftware,Kicad,Pcbnew,(5.1.10)-1
; #@! TF.FileFunction,Plated,1,2,PTH
FMAT,2
INCH
T1C0.0157
T2C0.0276
T3C0.0579
%
G90
G05
T1
X-1.275Y-1.635
X-0.575Y-1.715
X11.665Y-1.475
X11.67Y-1.43
X11.67Y-1.52
X11.6775Y-2.1175
X11.6775Y-5.5575
X11.7066Y-2.1566
X11.7066Y-4.9284
X11.74Y-2.195
X11.74Y-4.36
X11.77Y-2.235
X11.77Y-3.475
X11.935Y-1.225
X11.98Y-1.575
X11.995Y-1.44
X12.015Y-1.385
X12.045Y-1.35
X12.075Y-1.89
X12.08Y-1.315
X12.67Y-2.045
T3
X-1.8275Y-1.3687
X-1.8275Y-2.4937
X-1.7759Y-1.3113
X-1.7759Y-2.4363
X-1.7325Y-4.7437
X-1.7325Y-5.4937
X-1.6809Y-4.6863
X-1.6809Y-5.4363
X-1.6375Y-3.2437
X-1.5859Y-3.1863
X-1.5791Y-1.2916
X-1.5791Y-2.4166
X-1.5775Y-1.2688
X-1.5775Y-2.3937
X-1.5475Y-3.9937
X-1.4959Y-3.9363
X-1.4841Y-4.6666
X-1.4841Y-5.4166
X-1.4825Y-4.6437
X-1.4825Y-5.3937
X-1.3891Y-3.1666
X-1.3875Y-3.1437
X-1.2991Y-3.9166
X-1.2975Y-3.8937
X-1.0775Y-2.4937
X-1.0259Y-2.4363
X-0.8875Y-4.7437
X-0.8359Y-4.6863
X-0.8291Y-2.4166
X-0.8275Y-2.3937
X-0.7975Y-5.4937
X-0.7459Y-5.4363
X-0.7025Y-3.2437
X-0.6509Y-3.1863
X-0.6391Y-4.6666
X-0.6375Y-4.6437
X-0.5491Y-5.4166
X-0.5475Y-5.3937
X-0.5175Y-3.9937
X-0.4659Y-3.9363
X-0.4541Y-3.1666
X-0.4525Y-3.1437
X-0.3275Y-1.3687
X-0.3275Y-2.4937
X-0.2759Y-1.3113
X-0.2759Y-2.4363
X-0.2691Y-3.9166
X-0.2675Y-3.8937
X-0.1375Y-4.7437
X-0.0859Y-4.6863
X-0.0791Y-1.2916
X-0.0791Y-2.4166
X-0.0775Y-1.2688
X-0.0775Y-2.3937
X0.0475Y-3.2437
X0.0991Y-3.1863
X0.1109Y-4.6666
X0.1125Y-4.6437
X0.1425Y-5.4937
X0.1941Y-5.4363
X0.2325Y-3.9937
X0.2841Y-3.9363
X0.2959Y-3.1666
X0.2975Y-3.1437
X0.3909Y-5.4166
X0.3925Y-5.3937
X0.4225Y-1.3687
X0.4225Y-2.4937
X0.4741Y-1.3113
X0.4741Y-2.4363
X0.4809Y-3.9166
X0.4825Y-3.8937
X0.6125Y-4.7437
X0.6641Y-4.6863
X0.6709Y-1.2916
X0.6709Y-2.4166
X0.6725Y-1.2688
X0.6725Y-2.3937
X0.7975Y-3.2437
X0.8491Y-3.1863
X0.8609Y-4.6666
X0.8625Y-4.6437
X0.9825Y-3.9937
X1.0341Y-3.9363
X1.0459Y-3.1666
X1.0475Y-3.1437
X1.1725Y-1.3687
X1.1725Y-2.4937
X1.2241Y-1.3113
X1.2241Y-2.4363
X1.2309Y-3.9166
X1.2325Y-3.8937
X1.3625Y-4.7437
X1.4141Y-4.6863
X1.4209Y-1.2916
X1.4209Y-2.4166
X1.4225Y-1.2688
X1.4225Y-2.3937
X1.5475Y-3.2437
X1.5991Y-3.1863
X1.6109Y-4.6666
X1.6125Y-4.6437
X1.7325Y-3.9937
X1.7841Y-3.9363
X1.7959Y-3.1666
X1.7975Y-3.1437
X1.9225Y-1.3687
X1.9225Y-2.4937
X1.9741Y-1.3113
X1.9741Y-2.4363
X1.9809Y-3.9166
X1.9825Y-3.8937
X2.1125Y-4.7437
X2.1641Y-4.6863
X2.1709Y-1.2916
X2.1709Y-2.4166
X2.1725Y-1.2688
X2.1725Y-2.3937
X2.2975Y-3.2437
X2.3491Y-3.1863
X2.3609Y-4.6666
X2.3625Y-4.6437
X2.4825Y-3.9937
X2.5341Y-3.9363
X2.5459Y-3.1666
X2.5475Y-3.1437
X2.6725Y-2.4937
X2.7241Y-2.4363
X2.7309Y-3.9166
X2.7325Y-3.8937
X2.8625Y-4.7437
X2.9141Y-4.6863
X2.9209Y-2.4166
X2.9225Y-2.3937
X2.9525Y-5.4937
X3.0041Y-5.4363
X3.0475Y-1.3687
X3.0475Y-3.2437
X3.0991Y-1.3113
X3.0991Y-3.1863
X3.1109Y-4.6666
X3.1125Y-4.6437
X3.2009Y-5.4166
X3.2025Y-5.3937
X3.2325Y-3.9937
X3.2841Y-3.9363
X3.2959Y-1.2916
X3.2959Y-3.1666
X3.2975Y-1.2688
X3.2975Y-3.1437
X3.4225Y-2.4937
X3.4741Y-2.4363
X3.4809Y-3.9166
X3.4825Y-3.8937
X3.6125Y-4.7437
X3.6641Y-4.6863
X3.6709Y-2.4166
X3.6725Y-2.3937
X3.7975Y-1.3687
X3.7975Y-3.2437
X3.8491Y-1.3113
X3.8491Y-3.1863
X3.8609Y-4.6666
X3.8625Y-4.6437
X3.9825Y-3.9937
X4.0341Y-3.9363
X4.0459Y-1.2916
X4.0459Y-3.1666
X4.0475Y-1.2688
X4.0475Y-3.1437
X4.1725Y-2.4937
X4.2241Y-2.4363
X4.2309Y-3.9166
X4.2325Y-3.8937
X4.3625Y-4.7437
X4.4141Y-4.6863
X4.4209Y-2.4166
X4.4225Y-2.3937
X4.5475Y-1.3687
X4.5475Y-3.2437
X4.5991Y-1.3113
X4.5991Y-3.1863
X4.6109Y-4.6666
X4.6125Y-4.6437
X4.7325Y-3.9937
X4.7841Y-3.9363
X4.7959Y-1.2916
X4.7959Y-3.1666
X4.7975Y-1.2688
X4.7975Y-3.1437
X4.9225Y-2.4937
X4.9741Y-2.4363
X4.9809Y-3.9166
X4.9825Y-3.8937
X5.1125Y-4.7437
X5.1641Y-4.6863
X5.1709Y-2.4166
X5.1725Y-2.3937
X5.2975Y-1.3687
X5.2975Y-3.2437
X5.3491Y-1.3113
X5.3491Y-3.1863
X5.3609Y-4.6666
X5.3625Y-4.6437
X5.4825Y-3.9937
X5.5341Y-3.9363
X5.5459Y-1.2916
X5.5459Y-3.1666
X5.5475Y-1.2688
X5.5475Y-3.1437
X5.6725Y-2.4937
X5.7241Y-2.4363
X5.7309Y-3.9166
X5.7325Y-3.8937
X5.7675Y-5.4937
X5.8191Y-5.4363
X5.8625Y-4.7437
X5.9141Y-4.6863
X5.9209Y-2.4166
X5.9225Y-2.3937
X6.0159Y-5.4166
X6.0175Y-5.3937
X6.0475Y-3.2437
X6.0991Y-3.1863
X6.1109Y-4.6666
X6.1125Y-4.6437
X6.2325Y-3.9937
X6.2841Y-3.9363
X6.2959Y-3.1666
X6.2975Y-3.1437
X6.4225Y-1.3687
X6.4225Y-2.4937
X6.4741Y-1.3113
X6.4741Y-2.4363
X6.4809Y-3.9166
X6.4825Y-3.8937
X6.6125Y-4.7437
X6.6641Y-4.6863
X6.6709Y-1.2916
X6.6709Y-2.4166
X6.6725Y-1.2688
X6.6725Y-2.3937
X6.7025Y-5.4937
X6.7541Y-5.4363
X6.7975Y-3.2437
X6.8491Y-3.1863
X6.8609Y-4.6666
X6.8625Y-4.6437
X6.9509Y-5.4166
X6.9525Y-5.3937
X6.9825Y-3.9937
X7.0341Y-3.9363
X7.0459Y-3.1666
X7.0475Y-3.1437
X7.1725Y-1.3687
X7.1725Y-2.4937
X7.2241Y-1.3113
X7.2241Y-2.4363
X7.2309Y-3.9166
X7.2325Y-3.8937
X7.4209Y-1.2916
X7.4209Y-2.4166
X7.4225Y-1.2688
X7.4225Y-2.3937
X7.5475Y-3.2437
X7.5991Y-3.1863
X7.6425Y-5.4937
X7.6941Y-5.4363
X7.7325Y-3.9937
X7.7841Y-3.9363
X7.7959Y-3.1666
X7.7975Y-3.1437
X7.8909Y-5.4166
X7.8925Y-5.3937
X7.9225Y-1.3687
X7.9741Y-1.3113
X7.9809Y-3.9166
X7.9825Y-3.8937
X8.0175Y-4.7437
X8.0691Y-4.6863
X8.1709Y-1.2916
X8.1725Y-1.2688
X8.2659Y-4.6666
X8.2675Y-4.6437
X8.2975Y-2.4937
X8.3491Y-2.4363
X8.5459Y-2.4166
X8.5475Y-2.3937
X8.5775Y-3.6187
X8.5775Y-5.4937
X8.6291Y-3.5613
X8.6291Y-5.4363
X8.6725Y-1.3687
X8.7241Y-1.3113
X8.8259Y-3.5416
X8.8259Y-5.4166
X8.8275Y-3.5187
X8.8275Y-5.3937
X8.9209Y-1.2916
X8.9225Y-1.2688
X9.6125Y-1.3687
X9.6125Y-2.4937
X9.6125Y-3.2437
X9.6125Y-5.4937
X9.6641Y-1.3113
X9.6641Y-2.4363
X9.6641Y-3.1863
X9.6641Y-5.4363
X9.8609Y-1.2916
X9.8609Y-2.4166
X9.8609Y-3.1666
X9.8609Y-5.4166
X9.8625Y-1.2688
X9.8625Y-2.3937
X9.8625Y-3.1437
X9.8625Y-5.3937
X10.3575Y-5.4937
X10.3625Y-1.3687
X10.3625Y-2.4937
X10.3625Y-3.2437
X10.3625Y-4.7437
X10.4091Y-5.4363
X10.4141Y-1.3113
X10.4141Y-2.4363
X10.4141Y-3.1863
X10.4141Y-4.6863
X10.6059Y-5.4166
X10.6075Y-5.3937
X10.6109Y-1.2916
X10.6109Y-2.4166
X10.6109Y-3.1666
X10.6109Y-4.6666
X10.6125Y-1.2688
X10.6125Y-2.3937
X10.6125Y-3.1437
X10.6125Y-4.6437
X11.1125Y-1.3687
X11.1125Y-2.4937
X11.1125Y-3.2437
X11.1125Y-5.4937
X11.1641Y-1.3113
X11.1641Y-2.4363
X11.1641Y-3.1863
X11.1641Y-5.4363
X11.3609Y-1.2916
X11.3609Y-2.4166
X11.3609Y-3.1666
X11.3609Y-5.4166
X11.3625Y-1.2688
X11.3625Y-2.3937
X11.3625Y-3.1437
X11.3625Y-5.3937
X12.0475Y-2.4937
X12.0475Y-3.2437
X12.0475Y-3.9937
X12.0475Y-4.7437
X12.0991Y-2.4363
X12.0991Y-3.1863
X12.0991Y-3.9363
X12.0991Y-4.6863
X12.2959Y-2.4166
X12.2959Y-3.1666
X12.2959Y-3.9166
X12.2959Y-4.6666
X12.2975Y-2.3937
X12.2975Y-3.1437
X12.2975Y-3.8937
X12.2975Y-4.6437
X12.4225Y-5.4937
X12.4741Y-5.4363
X12.6709Y-5.4166
X12.6725Y-5.3937
X12.7975Y-2.4937
X12.7975Y-3.2437
X12.7975Y-3.9937
X12.7975Y-4.7437
X12.8491Y-2.4363
X12.8491Y-3.1863
X12.8491Y-3.9363
X12.8491Y-4.6863
X13.0459Y-2.4166
X13.0459Y-3.1666
X13.0459Y-3.9166
X13.0459Y-4.6666
X13.0475Y-2.3937
X13.0475Y-3.1437
X13.0475Y-3.8937
X13.0475Y-4.6437
X13.5475Y-2.4937
X13.5475Y-3.2437
X13.5475Y-3.9937
X13.5475Y-4.7437
X13.5475Y-5.4937
X13.5991Y-2.4363
X13.5991Y-3.1863
X13.5991Y-3.9363
X13.5991Y-4.6863
X13.5991Y-5.4363
X13.7959Y-2.4166
X13.7959Y-3.1666
X13.7959Y-3.9166
X13.7959Y-4.6666
X13.7959Y-5.4166
X13.7975Y-2.3937
X13.7975Y-3.1437
X13.7975Y-3.8937
X13.7975Y-4.6437
X13.7975Y-5.3937
X14.2975Y-2.4937
X14.2975Y-3.6187
X14.2975Y-5.1187
X14.3491Y-2.4363
X14.3491Y-3.5613
X14.3491Y-5.0613
X14.5459Y-2.4166
X14.5459Y-3.5416
X14.5459Y-5.0416
X14.5475Y-2.3937
X14.5475Y-3.5187
X14.5475Y-5.0187
T2
G00X-1.0487Y-1.0714
M15
G01X-1.0487Y-1.1186
M16
G05
G00X-1.0487Y-1.2485
M15
G01X-1.0487Y-1.2958
M16
G05
G00X-0.7613Y-1.0714
M15
G01X-0.7613Y-1.1186
M16
G05
G00X-0.7613Y-1.2485
M15
G01X-0.7613Y-1.2958
M16
G05
T0
M30
