%TF.GenerationSoftware,KiCad,Pcbnew,(5.1.10)-1*%
%TF.CreationDate,2021-06-26T18:22:07+01:00*%
%TF.ProjectId,pcb,7063622e-6b69-4636-9164-5f7063625858,rev?*%
%TF.SameCoordinates,Original*%
%TF.FileFunction,Soldermask,Bot*%
%TF.FilePolarity,Negative*%
%FSLAX46Y46*%
G04 Gerber Fmt 4.6, Leading zero omitted, Abs format (unit mm)*
G04 Created by KiCad (PCBNEW (5.1.10)-1) date 2021-06-26 18:22:07*
%MOMM*%
%LPD*%
G01*
G04 APERTURE LIST*
%ADD10O,1.700000X2.700000*%
%ADD11R,0.500000X2.250000*%
%ADD12C,0.100000*%
%ADD13C,1.750000*%
%ADD14C,2.250000*%
%ADD15C,3.987800*%
%ADD16R,0.550000X1.500000*%
%ADD17R,1.500000X0.550000*%
%ADD18R,1.100000X1.800000*%
%ADD19R,1.200000X0.900000*%
G04 APERTURE END LIST*
D10*
%TO.C,USB1*%
X-26637000Y-27813000D03*
X-19337000Y-27813000D03*
X-19337000Y-32313000D03*
X-26637000Y-32313000D03*
D11*
X-24587000Y-32313000D03*
X-23787000Y-32313000D03*
X-22987000Y-32313000D03*
X-22187000Y-32313000D03*
X-21387000Y-32313000D03*
%TD*%
D12*
%TO.C,Y2*%
G36*
X315715488Y-27419903D02*
G01*
X316564016Y-28268431D01*
X315574066Y-29258381D01*
X314725538Y-28409853D01*
X315715488Y-27419903D01*
G37*
G36*
X314159853Y-28975538D02*
G01*
X315008381Y-29824066D01*
X314018431Y-30814016D01*
X313169903Y-29965488D01*
X314159853Y-28975538D01*
G37*
G36*
X315361934Y-30177619D02*
G01*
X316210462Y-31026147D01*
X315220512Y-32016097D01*
X314371984Y-31167569D01*
X315361934Y-30177619D01*
G37*
G36*
X316917569Y-28621984D02*
G01*
X317766097Y-29470512D01*
X316776147Y-30460462D01*
X315927619Y-29611934D01*
X316917569Y-28621984D01*
G37*
%TD*%
%TO.C,C6*%
G36*
G01*
X304833000Y-42741000D02*
X305783000Y-42741000D01*
G75*
G02*
X306033000Y-42991000I0J-250000D01*
G01*
X306033000Y-43491000D01*
G75*
G02*
X305783000Y-43741000I-250000J0D01*
G01*
X304833000Y-43741000D01*
G75*
G02*
X304583000Y-43491000I0J250000D01*
G01*
X304583000Y-42991000D01*
G75*
G02*
X304833000Y-42741000I250000J0D01*
G01*
G37*
G36*
G01*
X304833000Y-40841000D02*
X305783000Y-40841000D01*
G75*
G02*
X306033000Y-41091000I0J-250000D01*
G01*
X306033000Y-41591000D01*
G75*
G02*
X305783000Y-41841000I-250000J0D01*
G01*
X304833000Y-41841000D01*
G75*
G02*
X304583000Y-41591000I0J250000D01*
G01*
X304583000Y-41091000D01*
G75*
G02*
X304833000Y-40841000I250000J0D01*
G01*
G37*
%TD*%
D13*
%TO.C,Z1*%
X5397500Y-123031250D03*
X-4762500Y-123031250D03*
D14*
X-2182500Y-119031250D03*
D15*
X317500Y-123031250D03*
G36*
G01*
X-4243812Y-121328600D02*
X-4243817Y-121328595D01*
G75*
G02*
X-4329845Y-119739933I751317J837345D01*
G01*
X-3019843Y-118279933D01*
G75*
G02*
X-1431181Y-118193905I837345J-751317D01*
G01*
X-1431181Y-118193905D01*
G75*
G02*
X-1345153Y-119782567I-751317J-837345D01*
G01*
X-2655155Y-121242567D01*
G75*
G02*
X-4243817Y-121328595I-837345J751317D01*
G01*
G37*
D14*
X2857500Y-117951250D03*
G36*
G01*
X2740983Y-119653645D02*
X2740097Y-119653584D01*
G75*
G02*
X1695166Y-118453847I77403J1122334D01*
G01*
X1735166Y-117873847D01*
G75*
G02*
X2934903Y-116828916I1122334J-77403D01*
G01*
X2934903Y-116828916D01*
G75*
G02*
X3979834Y-118028653I-77403J-1122334D01*
G01*
X3939834Y-118608653D01*
G75*
G02*
X2740097Y-119653584I-1122334J77403D01*
G01*
G37*
%TD*%
D13*
%TO.C,Y1*%
X86296500Y-84931250D03*
X76136500Y-84931250D03*
D14*
X78716500Y-80931250D03*
D15*
X81216500Y-84931250D03*
G36*
G01*
X76655188Y-83228600D02*
X76655183Y-83228595D01*
G75*
G02*
X76569155Y-81639933I751317J837345D01*
G01*
X77879157Y-80179933D01*
G75*
G02*
X79467819Y-80093905I837345J-751317D01*
G01*
X79467819Y-80093905D01*
G75*
G02*
X79553847Y-81682567I-751317J-837345D01*
G01*
X78243845Y-83142567D01*
G75*
G02*
X76655183Y-83228595I-837345J751317D01*
G01*
G37*
D14*
X83756500Y-79851250D03*
G36*
G01*
X83639983Y-81553645D02*
X83639097Y-81553584D01*
G75*
G02*
X82594166Y-80353847I77403J1122334D01*
G01*
X82634166Y-79773847D01*
G75*
G02*
X83833903Y-78728916I1122334J-77403D01*
G01*
X83833903Y-78728916D01*
G75*
G02*
X84878834Y-79928653I-77403J-1122334D01*
G01*
X84838834Y-80508653D01*
G75*
G02*
X83639097Y-81553584I-1122334J77403D01*
G01*
G37*
%TD*%
D13*
%TO.C,X1*%
X24447500Y-123031250D03*
X14287500Y-123031250D03*
D14*
X16867500Y-119031250D03*
D15*
X19367500Y-123031250D03*
G36*
G01*
X14806188Y-121328600D02*
X14806183Y-121328595D01*
G75*
G02*
X14720155Y-119739933I751317J837345D01*
G01*
X16030157Y-118279933D01*
G75*
G02*
X17618819Y-118193905I837345J-751317D01*
G01*
X17618819Y-118193905D01*
G75*
G02*
X17704847Y-119782567I-751317J-837345D01*
G01*
X16394845Y-121242567D01*
G75*
G02*
X14806183Y-121328595I-837345J751317D01*
G01*
G37*
D14*
X21907500Y-117951250D03*
G36*
G01*
X21790983Y-119653645D02*
X21790097Y-119653584D01*
G75*
G02*
X20745166Y-118453847I77403J1122334D01*
G01*
X20785166Y-117873847D01*
G75*
G02*
X21984903Y-116828916I1122334J-77403D01*
G01*
X21984903Y-116828916D01*
G75*
G02*
X23029834Y-118028653I-77403J-1122334D01*
G01*
X22989834Y-118608653D01*
G75*
G02*
X21790097Y-119653584I-1122334J77403D01*
G01*
G37*
%TD*%
D13*
%TO.C,WIN2*%
X179133500Y-142081250D03*
X168973500Y-142081250D03*
D14*
X171553500Y-138081250D03*
D15*
X174053500Y-142081250D03*
G36*
G01*
X169492188Y-140378600D02*
X169492183Y-140378595D01*
G75*
G02*
X169406155Y-138789933I751317J837345D01*
G01*
X170716157Y-137329933D01*
G75*
G02*
X172304819Y-137243905I837345J-751317D01*
G01*
X172304819Y-137243905D01*
G75*
G02*
X172390847Y-138832567I-751317J-837345D01*
G01*
X171080845Y-140292567D01*
G75*
G02*
X169492183Y-140378595I-837345J751317D01*
G01*
G37*
D14*
X176593500Y-137001250D03*
G36*
G01*
X176476983Y-138703645D02*
X176476097Y-138703584D01*
G75*
G02*
X175431166Y-137503847I77403J1122334D01*
G01*
X175471166Y-136923847D01*
G75*
G02*
X176670903Y-135878916I1122334J-77403D01*
G01*
X176670903Y-135878916D01*
G75*
G02*
X177715834Y-137078653I-77403J-1122334D01*
G01*
X177675834Y-137658653D01*
G75*
G02*
X176476097Y-138703584I-1122334J77403D01*
G01*
G37*
%TD*%
D13*
%TO.C,WIN1*%
X-11366500Y-142081250D03*
X-21526500Y-142081250D03*
D14*
X-18946500Y-138081250D03*
D15*
X-16446500Y-142081250D03*
G36*
G01*
X-21007812Y-140378600D02*
X-21007817Y-140378595D01*
G75*
G02*
X-21093845Y-138789933I751317J837345D01*
G01*
X-19783843Y-137329933D01*
G75*
G02*
X-18195181Y-137243905I837345J-751317D01*
G01*
X-18195181Y-137243905D01*
G75*
G02*
X-18109153Y-138832567I-751317J-837345D01*
G01*
X-19419155Y-140292567D01*
G75*
G02*
X-21007817Y-140378595I-837345J751317D01*
G01*
G37*
D14*
X-13906500Y-137001250D03*
G36*
G01*
X-14023017Y-138703645D02*
X-14023903Y-138703584D01*
G75*
G02*
X-15068834Y-137503847I77403J1122334D01*
G01*
X-15028834Y-136923847D01*
G75*
G02*
X-13829097Y-135878916I1122334J-77403D01*
G01*
X-13829097Y-135878916D01*
G75*
G02*
X-12784166Y-137078653I-77403J-1122334D01*
G01*
X-12824166Y-137658653D01*
G75*
G02*
X-14023903Y-138703584I-1122334J77403D01*
G01*
G37*
%TD*%
D13*
%TO.C,W1*%
X10096500Y-84931250D03*
X-63500Y-84931250D03*
D14*
X2516500Y-80931250D03*
D15*
X5016500Y-84931250D03*
G36*
G01*
X455188Y-83228600D02*
X455183Y-83228595D01*
G75*
G02*
X369155Y-81639933I751317J837345D01*
G01*
X1679157Y-80179933D01*
G75*
G02*
X3267819Y-80093905I837345J-751317D01*
G01*
X3267819Y-80093905D01*
G75*
G02*
X3353847Y-81682567I-751317J-837345D01*
G01*
X2043845Y-83142567D01*
G75*
G02*
X455183Y-83228595I-837345J751317D01*
G01*
G37*
D14*
X7556500Y-79851250D03*
G36*
G01*
X7439983Y-81553645D02*
X7439097Y-81553584D01*
G75*
G02*
X6394166Y-80353847I77403J1122334D01*
G01*
X6434166Y-79773847D01*
G75*
G02*
X7633903Y-78728916I1122334J-77403D01*
G01*
X7633903Y-78728916D01*
G75*
G02*
X8678834Y-79928653I-77403J-1122334D01*
G01*
X8638834Y-80508653D01*
G75*
G02*
X7439097Y-81553584I-1122334J77403D01*
G01*
G37*
%TD*%
D13*
%TO.C,V1*%
X62547500Y-123031250D03*
X52387500Y-123031250D03*
D14*
X54967500Y-119031250D03*
D15*
X57467500Y-123031250D03*
G36*
G01*
X52906188Y-121328600D02*
X52906183Y-121328595D01*
G75*
G02*
X52820155Y-119739933I751317J837345D01*
G01*
X54130157Y-118279933D01*
G75*
G02*
X55718819Y-118193905I837345J-751317D01*
G01*
X55718819Y-118193905D01*
G75*
G02*
X55804847Y-119782567I-751317J-837345D01*
G01*
X54494845Y-121242567D01*
G75*
G02*
X52906183Y-121328595I-837345J751317D01*
G01*
G37*
D14*
X60007500Y-117951250D03*
G36*
G01*
X59890983Y-119653645D02*
X59890097Y-119653584D01*
G75*
G02*
X58845166Y-118453847I77403J1122334D01*
G01*
X58885166Y-117873847D01*
G75*
G02*
X60084903Y-116828916I1122334J-77403D01*
G01*
X60084903Y-116828916D01*
G75*
G02*
X61129834Y-118028653I-77403J-1122334D01*
G01*
X61089834Y-118608653D01*
G75*
G02*
X59890097Y-119653584I-1122334J77403D01*
G01*
G37*
%TD*%
D13*
%TO.C,UARROW1*%
X272097500Y-123031250D03*
X261937500Y-123031250D03*
D14*
X264517500Y-119031250D03*
D15*
X267017500Y-123031250D03*
G36*
G01*
X262456188Y-121328600D02*
X262456183Y-121328595D01*
G75*
G02*
X262370155Y-119739933I751317J837345D01*
G01*
X263680157Y-118279933D01*
G75*
G02*
X265268819Y-118193905I837345J-751317D01*
G01*
X265268819Y-118193905D01*
G75*
G02*
X265354847Y-119782567I-751317J-837345D01*
G01*
X264044845Y-121242567D01*
G75*
G02*
X262456183Y-121328595I-837345J751317D01*
G01*
G37*
D14*
X269557500Y-117951250D03*
G36*
G01*
X269440983Y-119653645D02*
X269440097Y-119653584D01*
G75*
G02*
X268395166Y-118453847I77403J1122334D01*
G01*
X268435166Y-117873847D01*
G75*
G02*
X269634903Y-116828916I1122334J-77403D01*
G01*
X269634903Y-116828916D01*
G75*
G02*
X270679834Y-118028653I-77403J-1122334D01*
G01*
X270639834Y-118608653D01*
G75*
G02*
X269440097Y-119653584I-1122334J77403D01*
G01*
G37*
%TD*%
D16*
%TO.C,U2*%
X309976000Y-48975000D03*
X310776000Y-48975000D03*
X311576000Y-48975000D03*
X312376000Y-48975000D03*
X313176000Y-48975000D03*
X313976000Y-48975000D03*
X314776000Y-48975000D03*
X315576000Y-48975000D03*
X316376000Y-48975000D03*
X317176000Y-48975000D03*
X317976000Y-48975000D03*
X318776000Y-48975000D03*
X319576000Y-48975000D03*
X320376000Y-48975000D03*
X321176000Y-48975000D03*
X321976000Y-48975000D03*
D17*
X323676000Y-47275000D03*
X323676000Y-46475000D03*
X323676000Y-45675000D03*
X323676000Y-44875000D03*
X323676000Y-44075000D03*
X323676000Y-43275000D03*
X323676000Y-42475000D03*
X323676000Y-41675000D03*
X323676000Y-40875000D03*
X323676000Y-40075000D03*
X323676000Y-39275000D03*
X323676000Y-38475000D03*
X323676000Y-37675000D03*
X323676000Y-36875000D03*
X323676000Y-36075000D03*
X323676000Y-35275000D03*
D16*
X321976000Y-33575000D03*
X321176000Y-33575000D03*
X320376000Y-33575000D03*
X319576000Y-33575000D03*
X318776000Y-33575000D03*
X317976000Y-33575000D03*
X317176000Y-33575000D03*
X316376000Y-33575000D03*
X315576000Y-33575000D03*
X314776000Y-33575000D03*
X313976000Y-33575000D03*
X313176000Y-33575000D03*
X312376000Y-33575000D03*
X311576000Y-33575000D03*
X310776000Y-33575000D03*
X309976000Y-33575000D03*
D17*
X308276000Y-35275000D03*
X308276000Y-36075000D03*
X308276000Y-36875000D03*
X308276000Y-37675000D03*
X308276000Y-38475000D03*
X308276000Y-39275000D03*
X308276000Y-40075000D03*
X308276000Y-40875000D03*
X308276000Y-41675000D03*
X308276000Y-42475000D03*
X308276000Y-43275000D03*
X308276000Y-44075000D03*
X308276000Y-44875000D03*
X308276000Y-45675000D03*
X308276000Y-46475000D03*
X308276000Y-47275000D03*
%TD*%
D13*
%TO.C,U1*%
X105346500Y-84931250D03*
X95186500Y-84931250D03*
D14*
X97766500Y-80931250D03*
D15*
X100266500Y-84931250D03*
G36*
G01*
X95705188Y-83228600D02*
X95705183Y-83228595D01*
G75*
G02*
X95619155Y-81639933I751317J837345D01*
G01*
X96929157Y-80179933D01*
G75*
G02*
X98517819Y-80093905I837345J-751317D01*
G01*
X98517819Y-80093905D01*
G75*
G02*
X98603847Y-81682567I-751317J-837345D01*
G01*
X97293845Y-83142567D01*
G75*
G02*
X95705183Y-83228595I-837345J751317D01*
G01*
G37*
D14*
X102806500Y-79851250D03*
G36*
G01*
X102689983Y-81553645D02*
X102689097Y-81553584D01*
G75*
G02*
X101644166Y-80353847I77403J1122334D01*
G01*
X101684166Y-79773847D01*
G75*
G02*
X102883903Y-78728916I1122334J-77403D01*
G01*
X102883903Y-78728916D01*
G75*
G02*
X103928834Y-79928653I-77403J-1122334D01*
G01*
X103888834Y-80508653D01*
G75*
G02*
X102689097Y-81553584I-1122334J77403D01*
G01*
G37*
%TD*%
D13*
%TO.C,TILDA1*%
X-37528500Y-65881250D03*
X-47688500Y-65881250D03*
D14*
X-45108500Y-61881250D03*
D15*
X-42608500Y-65881250D03*
G36*
G01*
X-47169812Y-64178600D02*
X-47169817Y-64178595D01*
G75*
G02*
X-47255845Y-62589933I751317J837345D01*
G01*
X-45945843Y-61129933D01*
G75*
G02*
X-44357181Y-61043905I837345J-751317D01*
G01*
X-44357181Y-61043905D01*
G75*
G02*
X-44271153Y-62632567I-751317J-837345D01*
G01*
X-45581155Y-64092567D01*
G75*
G02*
X-47169817Y-64178595I-837345J751317D01*
G01*
G37*
D14*
X-40068500Y-60801250D03*
G36*
G01*
X-40185017Y-62503645D02*
X-40185903Y-62503584D01*
G75*
G02*
X-41230834Y-61303847I77403J1122334D01*
G01*
X-41190834Y-60723847D01*
G75*
G02*
X-39991097Y-59678916I1122334J-77403D01*
G01*
X-39991097Y-59678916D01*
G75*
G02*
X-38946166Y-60878653I-77403J-1122334D01*
G01*
X-38986166Y-61458653D01*
G75*
G02*
X-40185903Y-62503584I-1122334J77403D01*
G01*
G37*
%TD*%
D13*
%TO.C,TAB1*%
X-32702500Y-84931250D03*
X-42862500Y-84931250D03*
D14*
X-40282500Y-80931250D03*
D15*
X-37782500Y-84931250D03*
G36*
G01*
X-42343812Y-83228600D02*
X-42343817Y-83228595D01*
G75*
G02*
X-42429845Y-81639933I751317J837345D01*
G01*
X-41119843Y-80179933D01*
G75*
G02*
X-39531181Y-80093905I837345J-751317D01*
G01*
X-39531181Y-80093905D01*
G75*
G02*
X-39445153Y-81682567I-751317J-837345D01*
G01*
X-40755155Y-83142567D01*
G75*
G02*
X-42343817Y-83228595I-837345J751317D01*
G01*
G37*
D14*
X-35242500Y-79851250D03*
G36*
G01*
X-35359017Y-81553645D02*
X-35359903Y-81553584D01*
G75*
G02*
X-36404834Y-80353847I77403J1122334D01*
G01*
X-36364834Y-79773847D01*
G75*
G02*
X-35165097Y-78728916I1122334J-77403D01*
G01*
X-35165097Y-78728916D01*
G75*
G02*
X-34120166Y-79928653I-77403J-1122334D01*
G01*
X-34160166Y-80508653D01*
G75*
G02*
X-35359903Y-81553584I-1122334J77403D01*
G01*
G37*
%TD*%
D13*
%TO.C,T1*%
X67246500Y-84931250D03*
X57086500Y-84931250D03*
D14*
X59666500Y-80931250D03*
D15*
X62166500Y-84931250D03*
G36*
G01*
X57605188Y-83228600D02*
X57605183Y-83228595D01*
G75*
G02*
X57519155Y-81639933I751317J837345D01*
G01*
X58829157Y-80179933D01*
G75*
G02*
X60417819Y-80093905I837345J-751317D01*
G01*
X60417819Y-80093905D01*
G75*
G02*
X60503847Y-81682567I-751317J-837345D01*
G01*
X59193845Y-83142567D01*
G75*
G02*
X57605183Y-83228595I-837345J751317D01*
G01*
G37*
D14*
X64706500Y-79851250D03*
G36*
G01*
X64589983Y-81553645D02*
X64589097Y-81553584D01*
G75*
G02*
X63544166Y-80353847I77403J1122334D01*
G01*
X63584166Y-79773847D01*
G75*
G02*
X64783903Y-78728916I1122334J-77403D01*
G01*
X64783903Y-78728916D01*
G75*
G02*
X65828834Y-79928653I-77403J-1122334D01*
G01*
X65788834Y-80508653D01*
G75*
G02*
X64589097Y-81553584I-1122334J77403D01*
G01*
G37*
%TD*%
D18*
%TO.C,SW1*%
X302205000Y-33730000D03*
X298505000Y-39930000D03*
X298505000Y-33730000D03*
X302205000Y-39930000D03*
%TD*%
D13*
%TO.C,SPACE1*%
X83883500Y-142081250D03*
X73723500Y-142081250D03*
D14*
X76303500Y-138081250D03*
D15*
X78803500Y-142081250D03*
G36*
G01*
X74242188Y-140378600D02*
X74242183Y-140378595D01*
G75*
G02*
X74156155Y-138789933I751317J837345D01*
G01*
X75466157Y-137329933D01*
G75*
G02*
X77054819Y-137243905I837345J-751317D01*
G01*
X77054819Y-137243905D01*
G75*
G02*
X77140847Y-138832567I-751317J-837345D01*
G01*
X75830845Y-140292567D01*
G75*
G02*
X74242183Y-140378595I-837345J751317D01*
G01*
G37*
D14*
X81343500Y-137001250D03*
G36*
G01*
X81226983Y-138703645D02*
X81226097Y-138703584D01*
G75*
G02*
X80181166Y-137503847I77403J1122334D01*
G01*
X80221166Y-136923847D01*
G75*
G02*
X81420903Y-135878916I1122334J-77403D01*
G01*
X81420903Y-135878916D01*
G75*
G02*
X82465834Y-137078653I-77403J-1122334D01*
G01*
X82425834Y-137658653D01*
G75*
G02*
X81226097Y-138703584I-1122334J77403D01*
G01*
G37*
%TD*%
D13*
%TO.C,SHIFT1*%
X-35115500Y-123031250D03*
X-45275500Y-123031250D03*
D14*
X-42695500Y-119031250D03*
D15*
X-40195500Y-123031250D03*
G36*
G01*
X-44756812Y-121328600D02*
X-44756817Y-121328595D01*
G75*
G02*
X-44842845Y-119739933I751317J837345D01*
G01*
X-43532843Y-118279933D01*
G75*
G02*
X-41944181Y-118193905I837345J-751317D01*
G01*
X-41944181Y-118193905D01*
G75*
G02*
X-41858153Y-119782567I-751317J-837345D01*
G01*
X-43168155Y-121242567D01*
G75*
G02*
X-44756817Y-121328595I-837345J751317D01*
G01*
G37*
D14*
X-37655500Y-117951250D03*
G36*
G01*
X-37772017Y-119653645D02*
X-37772903Y-119653584D01*
G75*
G02*
X-38817834Y-118453847I77403J1122334D01*
G01*
X-38777834Y-117873847D01*
G75*
G02*
X-37578097Y-116828916I1122334J-77403D01*
G01*
X-37578097Y-116828916D01*
G75*
G02*
X-36533166Y-118028653I-77403J-1122334D01*
G01*
X-36573166Y-118608653D01*
G75*
G02*
X-37772903Y-119653584I-1122334J77403D01*
G01*
G37*
%TD*%
D13*
%TO.C,SCLLK1*%
X272097500Y-37306250D03*
X261937500Y-37306250D03*
D14*
X264517500Y-33306250D03*
D15*
X267017500Y-37306250D03*
G36*
G01*
X262456188Y-35603600D02*
X262456183Y-35603595D01*
G75*
G02*
X262370155Y-34014933I751317J837345D01*
G01*
X263680157Y-32554933D01*
G75*
G02*
X265268819Y-32468905I837345J-751317D01*
G01*
X265268819Y-32468905D01*
G75*
G02*
X265354847Y-34057567I-751317J-837345D01*
G01*
X264044845Y-35517567D01*
G75*
G02*
X262456183Y-35603595I-837345J751317D01*
G01*
G37*
D14*
X269557500Y-32226250D03*
G36*
G01*
X269440983Y-33928645D02*
X269440097Y-33928584D01*
G75*
G02*
X268395166Y-32728847I77403J1122334D01*
G01*
X268435166Y-32148847D01*
G75*
G02*
X269634903Y-31103916I1122334J-77403D01*
G01*
X269634903Y-31103916D01*
G75*
G02*
X270679834Y-32303653I-77403J-1122334D01*
G01*
X270639834Y-32883653D01*
G75*
G02*
X269440097Y-33928584I-1122334J77403D01*
G01*
G37*
%TD*%
D13*
%TO.C,S1*%
X14795500Y-103981250D03*
X4635500Y-103981250D03*
D14*
X7215500Y-99981250D03*
D15*
X9715500Y-103981250D03*
G36*
G01*
X5154188Y-102278600D02*
X5154183Y-102278595D01*
G75*
G02*
X5068155Y-100689933I751317J837345D01*
G01*
X6378157Y-99229933D01*
G75*
G02*
X7966819Y-99143905I837345J-751317D01*
G01*
X7966819Y-99143905D01*
G75*
G02*
X8052847Y-100732567I-751317J-837345D01*
G01*
X6742845Y-102192567D01*
G75*
G02*
X5154183Y-102278595I-837345J751317D01*
G01*
G37*
D14*
X12255500Y-98901250D03*
G36*
G01*
X12138983Y-100603645D02*
X12138097Y-100603584D01*
G75*
G02*
X11093166Y-99403847I77403J1122334D01*
G01*
X11133166Y-98823847D01*
G75*
G02*
X12332903Y-97778916I1122334J-77403D01*
G01*
X12332903Y-97778916D01*
G75*
G02*
X13377834Y-98978653I-77403J-1122334D01*
G01*
X13337834Y-99558653D01*
G75*
G02*
X12138097Y-100603584I-1122334J77403D01*
G01*
G37*
%TD*%
D13*
%TO.C,RCTRL1*%
X226758500Y-142081250D03*
X216598500Y-142081250D03*
D14*
X219178500Y-138081250D03*
D15*
X221678500Y-142081250D03*
G36*
G01*
X217117188Y-140378600D02*
X217117183Y-140378595D01*
G75*
G02*
X217031155Y-138789933I751317J837345D01*
G01*
X218341157Y-137329933D01*
G75*
G02*
X219929819Y-137243905I837345J-751317D01*
G01*
X219929819Y-137243905D01*
G75*
G02*
X220015847Y-138832567I-751317J-837345D01*
G01*
X218705845Y-140292567D01*
G75*
G02*
X217117183Y-140378595I-837345J751317D01*
G01*
G37*
D14*
X224218500Y-137001250D03*
G36*
G01*
X224101983Y-138703645D02*
X224101097Y-138703584D01*
G75*
G02*
X223056166Y-137503847I77403J1122334D01*
G01*
X223096166Y-136923847D01*
G75*
G02*
X224295903Y-135878916I1122334J-77403D01*
G01*
X224295903Y-135878916D01*
G75*
G02*
X225340834Y-137078653I-77403J-1122334D01*
G01*
X225300834Y-137658653D01*
G75*
G02*
X224101097Y-138703584I-1122334J77403D01*
G01*
G37*
%TD*%
D13*
%TO.C,RCBR1*%
X200596500Y-84931250D03*
X190436500Y-84931250D03*
D14*
X193016500Y-80931250D03*
D15*
X195516500Y-84931250D03*
G36*
G01*
X190955188Y-83228600D02*
X190955183Y-83228595D01*
G75*
G02*
X190869155Y-81639933I751317J837345D01*
G01*
X192179157Y-80179933D01*
G75*
G02*
X193767819Y-80093905I837345J-751317D01*
G01*
X193767819Y-80093905D01*
G75*
G02*
X193853847Y-81682567I-751317J-837345D01*
G01*
X192543845Y-83142567D01*
G75*
G02*
X190955183Y-83228595I-837345J751317D01*
G01*
G37*
D14*
X198056500Y-79851250D03*
G36*
G01*
X197939983Y-81553645D02*
X197939097Y-81553584D01*
G75*
G02*
X196894166Y-80353847I77403J1122334D01*
G01*
X196934166Y-79773847D01*
G75*
G02*
X198133903Y-78728916I1122334J-77403D01*
G01*
X198133903Y-78728916D01*
G75*
G02*
X199178834Y-79928653I-77403J-1122334D01*
G01*
X199138834Y-80508653D01*
G75*
G02*
X197939097Y-81553584I-1122334J77403D01*
G01*
G37*
%TD*%
D13*
%TO.C,RARROW1*%
X291147500Y-142081250D03*
X280987500Y-142081250D03*
D14*
X283567500Y-138081250D03*
D15*
X286067500Y-142081250D03*
G36*
G01*
X281506188Y-140378600D02*
X281506183Y-140378595D01*
G75*
G02*
X281420155Y-138789933I751317J837345D01*
G01*
X282730157Y-137329933D01*
G75*
G02*
X284318819Y-137243905I837345J-751317D01*
G01*
X284318819Y-137243905D01*
G75*
G02*
X284404847Y-138832567I-751317J-837345D01*
G01*
X283094845Y-140292567D01*
G75*
G02*
X281506183Y-140378595I-837345J751317D01*
G01*
G37*
D14*
X288607500Y-137001250D03*
G36*
G01*
X288490983Y-138703645D02*
X288490097Y-138703584D01*
G75*
G02*
X287445166Y-137503847I77403J1122334D01*
G01*
X287485166Y-136923847D01*
G75*
G02*
X288684903Y-135878916I1122334J-77403D01*
G01*
X288684903Y-135878916D01*
G75*
G02*
X289729834Y-137078653I-77403J-1122334D01*
G01*
X289689834Y-137658653D01*
G75*
G02*
X288490097Y-138703584I-1122334J77403D01*
G01*
G37*
%TD*%
D13*
%TO.C,RALT1*%
X155384500Y-142081250D03*
X145224500Y-142081250D03*
D14*
X147804500Y-138081250D03*
D15*
X150304500Y-142081250D03*
G36*
G01*
X145743188Y-140378600D02*
X145743183Y-140378595D01*
G75*
G02*
X145657155Y-138789933I751317J837345D01*
G01*
X146967157Y-137329933D01*
G75*
G02*
X148555819Y-137243905I837345J-751317D01*
G01*
X148555819Y-137243905D01*
G75*
G02*
X148641847Y-138832567I-751317J-837345D01*
G01*
X147331845Y-140292567D01*
G75*
G02*
X145743183Y-140378595I-837345J751317D01*
G01*
G37*
D14*
X152844500Y-137001250D03*
G36*
G01*
X152727983Y-138703645D02*
X152727097Y-138703584D01*
G75*
G02*
X151682166Y-137503847I77403J1122334D01*
G01*
X151722166Y-136923847D01*
G75*
G02*
X152921903Y-135878916I1122334J-77403D01*
G01*
X152921903Y-135878916D01*
G75*
G02*
X153966834Y-137078653I-77403J-1122334D01*
G01*
X153926834Y-137658653D01*
G75*
G02*
X152727097Y-138703584I-1122334J77403D01*
G01*
G37*
%TD*%
%TO.C,R5*%
G36*
G01*
X326967001Y-43923000D02*
X326066999Y-43923000D01*
G75*
G02*
X325817000Y-43673001I0J249999D01*
G01*
X325817000Y-43147999D01*
G75*
G02*
X326066999Y-42898000I249999J0D01*
G01*
X326967001Y-42898000D01*
G75*
G02*
X327217000Y-43147999I0J-249999D01*
G01*
X327217000Y-43673001D01*
G75*
G02*
X326967001Y-43923000I-249999J0D01*
G01*
G37*
G36*
G01*
X326967001Y-45748000D02*
X326066999Y-45748000D01*
G75*
G02*
X325817000Y-45498001I0J249999D01*
G01*
X325817000Y-44972999D01*
G75*
G02*
X326066999Y-44723000I249999J0D01*
G01*
X326967001Y-44723000D01*
G75*
G02*
X327217000Y-44972999I0J-249999D01*
G01*
X327217000Y-45498001D01*
G75*
G02*
X326967001Y-45748000I-249999J0D01*
G01*
G37*
%TD*%
%TO.C,R4*%
G36*
G01*
X-23171999Y-38843000D02*
X-24072001Y-38843000D01*
G75*
G02*
X-24322000Y-38593001I0J249999D01*
G01*
X-24322000Y-38067999D01*
G75*
G02*
X-24072001Y-37818000I249999J0D01*
G01*
X-23171999Y-37818000D01*
G75*
G02*
X-22922000Y-38067999I0J-249999D01*
G01*
X-22922000Y-38593001D01*
G75*
G02*
X-23171999Y-38843000I-249999J0D01*
G01*
G37*
G36*
G01*
X-23171999Y-40668000D02*
X-24072001Y-40668000D01*
G75*
G02*
X-24322000Y-40418001I0J249999D01*
G01*
X-24322000Y-39892999D01*
G75*
G02*
X-24072001Y-39643000I249999J0D01*
G01*
X-23171999Y-39643000D01*
G75*
G02*
X-22922000Y-39892999I0J-249999D01*
G01*
X-22922000Y-40418001D01*
G75*
G02*
X-23171999Y-40668000I-249999J0D01*
G01*
G37*
%TD*%
%TO.C,R3*%
G36*
G01*
X-21139999Y-38843000D02*
X-22040001Y-38843000D01*
G75*
G02*
X-22290000Y-38593001I0J249999D01*
G01*
X-22290000Y-38067999D01*
G75*
G02*
X-22040001Y-37818000I249999J0D01*
G01*
X-21139999Y-37818000D01*
G75*
G02*
X-20890000Y-38067999I0J-249999D01*
G01*
X-20890000Y-38593001D01*
G75*
G02*
X-21139999Y-38843000I-249999J0D01*
G01*
G37*
G36*
G01*
X-21139999Y-40668000D02*
X-22040001Y-40668000D01*
G75*
G02*
X-22290000Y-40418001I0J249999D01*
G01*
X-22290000Y-39892999D01*
G75*
G02*
X-22040001Y-39643000I249999J0D01*
G01*
X-21139999Y-39643000D01*
G75*
G02*
X-20890000Y-39892999I0J-249999D01*
G01*
X-20890000Y-40418001D01*
G75*
G02*
X-21139999Y-40668000I-249999J0D01*
G01*
G37*
%TD*%
%TO.C,R2*%
G36*
G01*
X298939000Y-30791999D02*
X298939000Y-31692001D01*
G75*
G02*
X298689001Y-31942000I-249999J0D01*
G01*
X298163999Y-31942000D01*
G75*
G02*
X297914000Y-31692001I0J249999D01*
G01*
X297914000Y-30791999D01*
G75*
G02*
X298163999Y-30542000I249999J0D01*
G01*
X298689001Y-30542000D01*
G75*
G02*
X298939000Y-30791999I0J-249999D01*
G01*
G37*
G36*
G01*
X300764000Y-30791999D02*
X300764000Y-31692001D01*
G75*
G02*
X300514001Y-31942000I-249999J0D01*
G01*
X299988999Y-31942000D01*
G75*
G02*
X299739000Y-31692001I0J249999D01*
G01*
X299739000Y-30791999D01*
G75*
G02*
X299988999Y-30542000I249999J0D01*
G01*
X300514001Y-30542000D01*
G75*
G02*
X300764000Y-30791999I0J-249999D01*
G01*
G37*
%TD*%
D13*
%TO.C,R1*%
X48196500Y-84931250D03*
X38036500Y-84931250D03*
D14*
X40616500Y-80931250D03*
D15*
X43116500Y-84931250D03*
G36*
G01*
X38555188Y-83228600D02*
X38555183Y-83228595D01*
G75*
G02*
X38469155Y-81639933I751317J837345D01*
G01*
X39779157Y-80179933D01*
G75*
G02*
X41367819Y-80093905I837345J-751317D01*
G01*
X41367819Y-80093905D01*
G75*
G02*
X41453847Y-81682567I-751317J-837345D01*
G01*
X40143845Y-83142567D01*
G75*
G02*
X38555183Y-83228595I-837345J751317D01*
G01*
G37*
D14*
X45656500Y-79851250D03*
G36*
G01*
X45539983Y-81553645D02*
X45539097Y-81553584D01*
G75*
G02*
X44494166Y-80353847I77403J1122334D01*
G01*
X44534166Y-79773847D01*
G75*
G02*
X45733903Y-78728916I1122334J-77403D01*
G01*
X45733903Y-78728916D01*
G75*
G02*
X46778834Y-79928653I-77403J-1122334D01*
G01*
X46738834Y-80508653D01*
G75*
G02*
X45539097Y-81553584I-1122334J77403D01*
G01*
G37*
%TD*%
D13*
%TO.C,Q1*%
X-8953500Y-84931250D03*
X-19113500Y-84931250D03*
D14*
X-16533500Y-80931250D03*
D15*
X-14033500Y-84931250D03*
G36*
G01*
X-18594812Y-83228600D02*
X-18594817Y-83228595D01*
G75*
G02*
X-18680845Y-81639933I751317J837345D01*
G01*
X-17370843Y-80179933D01*
G75*
G02*
X-15782181Y-80093905I837345J-751317D01*
G01*
X-15782181Y-80093905D01*
G75*
G02*
X-15696153Y-81682567I-751317J-837345D01*
G01*
X-17006155Y-83142567D01*
G75*
G02*
X-18594817Y-83228595I-837345J751317D01*
G01*
G37*
D14*
X-11493500Y-79851250D03*
G36*
G01*
X-11610017Y-81553645D02*
X-11610903Y-81553584D01*
G75*
G02*
X-12655834Y-80353847I77403J1122334D01*
G01*
X-12615834Y-79773847D01*
G75*
G02*
X-11416097Y-78728916I1122334J-77403D01*
G01*
X-11416097Y-78728916D01*
G75*
G02*
X-10371166Y-79928653I-77403J-1122334D01*
G01*
X-10411166Y-80508653D01*
G75*
G02*
X-11610903Y-81553584I-1122334J77403D01*
G01*
G37*
%TD*%
D13*
%TO.C,PRTSC1*%
X253047500Y-37306250D03*
X242887500Y-37306250D03*
D14*
X245467500Y-33306250D03*
D15*
X247967500Y-37306250D03*
G36*
G01*
X243406188Y-35603600D02*
X243406183Y-35603595D01*
G75*
G02*
X243320155Y-34014933I751317J837345D01*
G01*
X244630157Y-32554933D01*
G75*
G02*
X246218819Y-32468905I837345J-751317D01*
G01*
X246218819Y-32468905D01*
G75*
G02*
X246304847Y-34057567I-751317J-837345D01*
G01*
X244994845Y-35517567D01*
G75*
G02*
X243406183Y-35603595I-837345J751317D01*
G01*
G37*
D14*
X250507500Y-32226250D03*
G36*
G01*
X250390983Y-33928645D02*
X250390097Y-33928584D01*
G75*
G02*
X249345166Y-32728847I77403J1122334D01*
G01*
X249385166Y-32148847D01*
G75*
G02*
X250584903Y-31103916I1122334J-77403D01*
G01*
X250584903Y-31103916D01*
G75*
G02*
X251629834Y-32303653I-77403J-1122334D01*
G01*
X251589834Y-32883653D01*
G75*
G02*
X250390097Y-33928584I-1122334J77403D01*
G01*
G37*
%TD*%
D13*
%TO.C,PGUP1*%
X291147500Y-65881250D03*
X280987500Y-65881250D03*
D14*
X283567500Y-61881250D03*
D15*
X286067500Y-65881250D03*
G36*
G01*
X281506188Y-64178600D02*
X281506183Y-64178595D01*
G75*
G02*
X281420155Y-62589933I751317J837345D01*
G01*
X282730157Y-61129933D01*
G75*
G02*
X284318819Y-61043905I837345J-751317D01*
G01*
X284318819Y-61043905D01*
G75*
G02*
X284404847Y-62632567I-751317J-837345D01*
G01*
X283094845Y-64092567D01*
G75*
G02*
X281506183Y-64178595I-837345J751317D01*
G01*
G37*
D14*
X288607500Y-60801250D03*
G36*
G01*
X288490983Y-62503645D02*
X288490097Y-62503584D01*
G75*
G02*
X287445166Y-61303847I77403J1122334D01*
G01*
X287485166Y-60723847D01*
G75*
G02*
X288684903Y-59678916I1122334J-77403D01*
G01*
X288684903Y-59678916D01*
G75*
G02*
X289729834Y-60878653I-77403J-1122334D01*
G01*
X289689834Y-61458653D01*
G75*
G02*
X288490097Y-62503584I-1122334J77403D01*
G01*
G37*
%TD*%
D13*
%TO.C,PGDN1*%
X291147500Y-84931250D03*
X280987500Y-84931250D03*
D14*
X283567500Y-80931250D03*
D15*
X286067500Y-84931250D03*
G36*
G01*
X281506188Y-83228600D02*
X281506183Y-83228595D01*
G75*
G02*
X281420155Y-81639933I751317J837345D01*
G01*
X282730157Y-80179933D01*
G75*
G02*
X284318819Y-80093905I837345J-751317D01*
G01*
X284318819Y-80093905D01*
G75*
G02*
X284404847Y-81682567I-751317J-837345D01*
G01*
X283094845Y-83142567D01*
G75*
G02*
X281506183Y-83228595I-837345J751317D01*
G01*
G37*
D14*
X288607500Y-79851250D03*
G36*
G01*
X288490983Y-81553645D02*
X288490097Y-81553584D01*
G75*
G02*
X287445166Y-80353847I77403J1122334D01*
G01*
X287485166Y-79773847D01*
G75*
G02*
X288684903Y-78728916I1122334J-77403D01*
G01*
X288684903Y-78728916D01*
G75*
G02*
X289729834Y-79928653I-77403J-1122334D01*
G01*
X289689834Y-80508653D01*
G75*
G02*
X288490097Y-81553584I-1122334J77403D01*
G01*
G37*
%TD*%
D13*
%TO.C,PERIOD1*%
X157797500Y-123031250D03*
X147637500Y-123031250D03*
D14*
X150217500Y-119031250D03*
D15*
X152717500Y-123031250D03*
G36*
G01*
X148156188Y-121328600D02*
X148156183Y-121328595D01*
G75*
G02*
X148070155Y-119739933I751317J837345D01*
G01*
X149380157Y-118279933D01*
G75*
G02*
X150968819Y-118193905I837345J-751317D01*
G01*
X150968819Y-118193905D01*
G75*
G02*
X151054847Y-119782567I-751317J-837345D01*
G01*
X149744845Y-121242567D01*
G75*
G02*
X148156183Y-121328595I-837345J751317D01*
G01*
G37*
D14*
X155257500Y-117951250D03*
G36*
G01*
X155140983Y-119653645D02*
X155140097Y-119653584D01*
G75*
G02*
X154095166Y-118453847I77403J1122334D01*
G01*
X154135166Y-117873847D01*
G75*
G02*
X155334903Y-116828916I1122334J-77403D01*
G01*
X155334903Y-116828916D01*
G75*
G02*
X156379834Y-118028653I-77403J-1122334D01*
G01*
X156339834Y-118608653D01*
G75*
G02*
X155140097Y-119653584I-1122334J77403D01*
G01*
G37*
%TD*%
D13*
%TO.C,PAUSE1*%
X291147500Y-37306250D03*
X280987500Y-37306250D03*
D14*
X283567500Y-33306250D03*
D15*
X286067500Y-37306250D03*
G36*
G01*
X281506188Y-35603600D02*
X281506183Y-35603595D01*
G75*
G02*
X281420155Y-34014933I751317J837345D01*
G01*
X282730157Y-32554933D01*
G75*
G02*
X284318819Y-32468905I837345J-751317D01*
G01*
X284318819Y-32468905D01*
G75*
G02*
X284404847Y-34057567I-751317J-837345D01*
G01*
X283094845Y-35517567D01*
G75*
G02*
X281506183Y-35603595I-837345J751317D01*
G01*
G37*
D14*
X288607500Y-32226250D03*
G36*
G01*
X288490983Y-33928645D02*
X288490097Y-33928584D01*
G75*
G02*
X287445166Y-32728847I77403J1122334D01*
G01*
X287485166Y-32148847D01*
G75*
G02*
X288684903Y-31103916I1122334J-77403D01*
G01*
X288684903Y-31103916D01*
G75*
G02*
X289729834Y-32303653I-77403J-1122334D01*
G01*
X289689834Y-32883653D01*
G75*
G02*
X288490097Y-33928584I-1122334J77403D01*
G01*
G37*
%TD*%
D13*
%TO.C,P1*%
X162496500Y-84931250D03*
X152336500Y-84931250D03*
D14*
X154916500Y-80931250D03*
D15*
X157416500Y-84931250D03*
G36*
G01*
X152855188Y-83228600D02*
X152855183Y-83228595D01*
G75*
G02*
X152769155Y-81639933I751317J837345D01*
G01*
X154079157Y-80179933D01*
G75*
G02*
X155667819Y-80093905I837345J-751317D01*
G01*
X155667819Y-80093905D01*
G75*
G02*
X155753847Y-81682567I-751317J-837345D01*
G01*
X154443845Y-83142567D01*
G75*
G02*
X152855183Y-83228595I-837345J751317D01*
G01*
G37*
D14*
X159956500Y-79851250D03*
G36*
G01*
X159839983Y-81553645D02*
X159839097Y-81553584D01*
G75*
G02*
X158794166Y-80353847I77403J1122334D01*
G01*
X158834166Y-79773847D01*
G75*
G02*
X160033903Y-78728916I1122334J-77403D01*
G01*
X160033903Y-78728916D01*
G75*
G02*
X161078834Y-79928653I-77403J-1122334D01*
G01*
X161038834Y-80508653D01*
G75*
G02*
X159839097Y-81553584I-1122334J77403D01*
G01*
G37*
%TD*%
D13*
%TO.C,O1*%
X143446500Y-84931250D03*
X133286500Y-84931250D03*
D14*
X135866500Y-80931250D03*
D15*
X138366500Y-84931250D03*
G36*
G01*
X133805188Y-83228600D02*
X133805183Y-83228595D01*
G75*
G02*
X133719155Y-81639933I751317J837345D01*
G01*
X135029157Y-80179933D01*
G75*
G02*
X136617819Y-80093905I837345J-751317D01*
G01*
X136617819Y-80093905D01*
G75*
G02*
X136703847Y-81682567I-751317J-837345D01*
G01*
X135393845Y-83142567D01*
G75*
G02*
X133805183Y-83228595I-837345J751317D01*
G01*
G37*
D14*
X140906500Y-79851250D03*
G36*
G01*
X140789983Y-81553645D02*
X140789097Y-81553584D01*
G75*
G02*
X139744166Y-80353847I77403J1122334D01*
G01*
X139784166Y-79773847D01*
G75*
G02*
X140983903Y-78728916I1122334J-77403D01*
G01*
X140983903Y-78728916D01*
G75*
G02*
X142028834Y-79928653I-77403J-1122334D01*
G01*
X141988834Y-80508653D01*
G75*
G02*
X140789097Y-81553584I-1122334J77403D01*
G01*
G37*
%TD*%
D13*
%TO.C,NUMLK1*%
X314896500Y-65881250D03*
X304736500Y-65881250D03*
D14*
X307316500Y-61881250D03*
D15*
X309816500Y-65881250D03*
G36*
G01*
X305255188Y-64178600D02*
X305255183Y-64178595D01*
G75*
G02*
X305169155Y-62589933I751317J837345D01*
G01*
X306479157Y-61129933D01*
G75*
G02*
X308067819Y-61043905I837345J-751317D01*
G01*
X308067819Y-61043905D01*
G75*
G02*
X308153847Y-62632567I-751317J-837345D01*
G01*
X306843845Y-64092567D01*
G75*
G02*
X305255183Y-64178595I-837345J751317D01*
G01*
G37*
D14*
X312356500Y-60801250D03*
G36*
G01*
X312239983Y-62503645D02*
X312239097Y-62503584D01*
G75*
G02*
X311194166Y-61303847I77403J1122334D01*
G01*
X311234166Y-60723847D01*
G75*
G02*
X312433903Y-59678916I1122334J-77403D01*
G01*
X312433903Y-59678916D01*
G75*
G02*
X313478834Y-60878653I-77403J-1122334D01*
G01*
X313438834Y-61458653D01*
G75*
G02*
X312239097Y-62503584I-1122334J77403D01*
G01*
G37*
%TD*%
D13*
%TO.C,NP-PLUS1*%
X372046500Y-94456250D03*
X361886500Y-94456250D03*
D14*
X364466500Y-90456250D03*
D15*
X366966500Y-94456250D03*
G36*
G01*
X362405188Y-92753600D02*
X362405183Y-92753595D01*
G75*
G02*
X362319155Y-91164933I751317J837345D01*
G01*
X363629157Y-89704933D01*
G75*
G02*
X365217819Y-89618905I837345J-751317D01*
G01*
X365217819Y-89618905D01*
G75*
G02*
X365303847Y-91207567I-751317J-837345D01*
G01*
X363993845Y-92667567D01*
G75*
G02*
X362405183Y-92753595I-837345J751317D01*
G01*
G37*
D14*
X369506500Y-89376250D03*
G36*
G01*
X369389983Y-91078645D02*
X369389097Y-91078584D01*
G75*
G02*
X368344166Y-89878847I77403J1122334D01*
G01*
X368384166Y-89298847D01*
G75*
G02*
X369583903Y-88253916I1122334J-77403D01*
G01*
X369583903Y-88253916D01*
G75*
G02*
X370628834Y-89453653I-77403J-1122334D01*
G01*
X370588834Y-90033653D01*
G75*
G02*
X369389097Y-91078584I-1122334J77403D01*
G01*
G37*
%TD*%
D13*
%TO.C,NP-MTPLY1*%
X352996500Y-65881250D03*
X342836500Y-65881250D03*
D14*
X345416500Y-61881250D03*
D15*
X347916500Y-65881250D03*
G36*
G01*
X343355188Y-64178600D02*
X343355183Y-64178595D01*
G75*
G02*
X343269155Y-62589933I751317J837345D01*
G01*
X344579157Y-61129933D01*
G75*
G02*
X346167819Y-61043905I837345J-751317D01*
G01*
X346167819Y-61043905D01*
G75*
G02*
X346253847Y-62632567I-751317J-837345D01*
G01*
X344943845Y-64092567D01*
G75*
G02*
X343355183Y-64178595I-837345J751317D01*
G01*
G37*
D14*
X350456500Y-60801250D03*
G36*
G01*
X350339983Y-62503645D02*
X350339097Y-62503584D01*
G75*
G02*
X349294166Y-61303847I77403J1122334D01*
G01*
X349334166Y-60723847D01*
G75*
G02*
X350533903Y-59678916I1122334J-77403D01*
G01*
X350533903Y-59678916D01*
G75*
G02*
X351578834Y-60878653I-77403J-1122334D01*
G01*
X351538834Y-61458653D01*
G75*
G02*
X350339097Y-62503584I-1122334J77403D01*
G01*
G37*
%TD*%
D13*
%TO.C,NP-MINUS1*%
X372046500Y-65881250D03*
X361886500Y-65881250D03*
D14*
X364466500Y-61881250D03*
D15*
X366966500Y-65881250D03*
G36*
G01*
X362405188Y-64178600D02*
X362405183Y-64178595D01*
G75*
G02*
X362319155Y-62589933I751317J837345D01*
G01*
X363629157Y-61129933D01*
G75*
G02*
X365217819Y-61043905I837345J-751317D01*
G01*
X365217819Y-61043905D01*
G75*
G02*
X365303847Y-62632567I-751317J-837345D01*
G01*
X363993845Y-64092567D01*
G75*
G02*
X362405183Y-64178595I-837345J751317D01*
G01*
G37*
D14*
X369506500Y-60801250D03*
G36*
G01*
X369389983Y-62503645D02*
X369389097Y-62503584D01*
G75*
G02*
X368344166Y-61303847I77403J1122334D01*
G01*
X368384166Y-60723847D01*
G75*
G02*
X369583903Y-59678916I1122334J-77403D01*
G01*
X369583903Y-59678916D01*
G75*
G02*
X370628834Y-60878653I-77403J-1122334D01*
G01*
X370588834Y-61458653D01*
G75*
G02*
X369389097Y-62503584I-1122334J77403D01*
G01*
G37*
%TD*%
D13*
%TO.C,NP-ENTER1*%
X372046500Y-132556250D03*
X361886500Y-132556250D03*
D14*
X364466500Y-128556250D03*
D15*
X366966500Y-132556250D03*
G36*
G01*
X362405188Y-130853600D02*
X362405183Y-130853595D01*
G75*
G02*
X362319155Y-129264933I751317J837345D01*
G01*
X363629157Y-127804933D01*
G75*
G02*
X365217819Y-127718905I837345J-751317D01*
G01*
X365217819Y-127718905D01*
G75*
G02*
X365303847Y-129307567I-751317J-837345D01*
G01*
X363993845Y-130767567D01*
G75*
G02*
X362405183Y-130853595I-837345J751317D01*
G01*
G37*
D14*
X369506500Y-127476250D03*
G36*
G01*
X369389983Y-129178645D02*
X369389097Y-129178584D01*
G75*
G02*
X368344166Y-127978847I77403J1122334D01*
G01*
X368384166Y-127398847D01*
G75*
G02*
X369583903Y-126353916I1122334J-77403D01*
G01*
X369583903Y-126353916D01*
G75*
G02*
X370628834Y-127553653I-77403J-1122334D01*
G01*
X370588834Y-128133653D01*
G75*
G02*
X369389097Y-129178584I-1122334J77403D01*
G01*
G37*
%TD*%
D13*
%TO.C,NP-DIV1*%
X333946500Y-65881250D03*
X323786500Y-65881250D03*
D14*
X326366500Y-61881250D03*
D15*
X328866500Y-65881250D03*
G36*
G01*
X324305188Y-64178600D02*
X324305183Y-64178595D01*
G75*
G02*
X324219155Y-62589933I751317J837345D01*
G01*
X325529157Y-61129933D01*
G75*
G02*
X327117819Y-61043905I837345J-751317D01*
G01*
X327117819Y-61043905D01*
G75*
G02*
X327203847Y-62632567I-751317J-837345D01*
G01*
X325893845Y-64092567D01*
G75*
G02*
X324305183Y-64178595I-837345J751317D01*
G01*
G37*
D14*
X331406500Y-60801250D03*
G36*
G01*
X331289983Y-62503645D02*
X331289097Y-62503584D01*
G75*
G02*
X330244166Y-61303847I77403J1122334D01*
G01*
X330284166Y-60723847D01*
G75*
G02*
X331483903Y-59678916I1122334J-77403D01*
G01*
X331483903Y-59678916D01*
G75*
G02*
X332528834Y-60878653I-77403J-1122334D01*
G01*
X332488834Y-61458653D01*
G75*
G02*
X331289097Y-62503584I-1122334J77403D01*
G01*
G37*
%TD*%
D13*
%TO.C,NP-DEL1*%
X352996500Y-142081250D03*
X342836500Y-142081250D03*
D14*
X345416500Y-138081250D03*
D15*
X347916500Y-142081250D03*
G36*
G01*
X343355188Y-140378600D02*
X343355183Y-140378595D01*
G75*
G02*
X343269155Y-138789933I751317J837345D01*
G01*
X344579157Y-137329933D01*
G75*
G02*
X346167819Y-137243905I837345J-751317D01*
G01*
X346167819Y-137243905D01*
G75*
G02*
X346253847Y-138832567I-751317J-837345D01*
G01*
X344943845Y-140292567D01*
G75*
G02*
X343355183Y-140378595I-837345J751317D01*
G01*
G37*
D14*
X350456500Y-137001250D03*
G36*
G01*
X350339983Y-138703645D02*
X350339097Y-138703584D01*
G75*
G02*
X349294166Y-137503847I77403J1122334D01*
G01*
X349334166Y-136923847D01*
G75*
G02*
X350533903Y-135878916I1122334J-77403D01*
G01*
X350533903Y-135878916D01*
G75*
G02*
X351578834Y-137078653I-77403J-1122334D01*
G01*
X351538834Y-137658653D01*
G75*
G02*
X350339097Y-138703584I-1122334J77403D01*
G01*
G37*
%TD*%
D13*
%TO.C,NP-9*%
X352996500Y-84931250D03*
X342836500Y-84931250D03*
D14*
X345416500Y-80931250D03*
D15*
X347916500Y-84931250D03*
G36*
G01*
X343355188Y-83228600D02*
X343355183Y-83228595D01*
G75*
G02*
X343269155Y-81639933I751317J837345D01*
G01*
X344579157Y-80179933D01*
G75*
G02*
X346167819Y-80093905I837345J-751317D01*
G01*
X346167819Y-80093905D01*
G75*
G02*
X346253847Y-81682567I-751317J-837345D01*
G01*
X344943845Y-83142567D01*
G75*
G02*
X343355183Y-83228595I-837345J751317D01*
G01*
G37*
D14*
X350456500Y-79851250D03*
G36*
G01*
X350339983Y-81553645D02*
X350339097Y-81553584D01*
G75*
G02*
X349294166Y-80353847I77403J1122334D01*
G01*
X349334166Y-79773847D01*
G75*
G02*
X350533903Y-78728916I1122334J-77403D01*
G01*
X350533903Y-78728916D01*
G75*
G02*
X351578834Y-79928653I-77403J-1122334D01*
G01*
X351538834Y-80508653D01*
G75*
G02*
X350339097Y-81553584I-1122334J77403D01*
G01*
G37*
%TD*%
D13*
%TO.C,NP-8*%
X333946500Y-84931250D03*
X323786500Y-84931250D03*
D14*
X326366500Y-80931250D03*
D15*
X328866500Y-84931250D03*
G36*
G01*
X324305188Y-83228600D02*
X324305183Y-83228595D01*
G75*
G02*
X324219155Y-81639933I751317J837345D01*
G01*
X325529157Y-80179933D01*
G75*
G02*
X327117819Y-80093905I837345J-751317D01*
G01*
X327117819Y-80093905D01*
G75*
G02*
X327203847Y-81682567I-751317J-837345D01*
G01*
X325893845Y-83142567D01*
G75*
G02*
X324305183Y-83228595I-837345J751317D01*
G01*
G37*
D14*
X331406500Y-79851250D03*
G36*
G01*
X331289983Y-81553645D02*
X331289097Y-81553584D01*
G75*
G02*
X330244166Y-80353847I77403J1122334D01*
G01*
X330284166Y-79773847D01*
G75*
G02*
X331483903Y-78728916I1122334J-77403D01*
G01*
X331483903Y-78728916D01*
G75*
G02*
X332528834Y-79928653I-77403J-1122334D01*
G01*
X332488834Y-80508653D01*
G75*
G02*
X331289097Y-81553584I-1122334J77403D01*
G01*
G37*
%TD*%
D13*
%TO.C,NP-7*%
X314896500Y-84931250D03*
X304736500Y-84931250D03*
D14*
X307316500Y-80931250D03*
D15*
X309816500Y-84931250D03*
G36*
G01*
X305255188Y-83228600D02*
X305255183Y-83228595D01*
G75*
G02*
X305169155Y-81639933I751317J837345D01*
G01*
X306479157Y-80179933D01*
G75*
G02*
X308067819Y-80093905I837345J-751317D01*
G01*
X308067819Y-80093905D01*
G75*
G02*
X308153847Y-81682567I-751317J-837345D01*
G01*
X306843845Y-83142567D01*
G75*
G02*
X305255183Y-83228595I-837345J751317D01*
G01*
G37*
D14*
X312356500Y-79851250D03*
G36*
G01*
X312239983Y-81553645D02*
X312239097Y-81553584D01*
G75*
G02*
X311194166Y-80353847I77403J1122334D01*
G01*
X311234166Y-79773847D01*
G75*
G02*
X312433903Y-78728916I1122334J-77403D01*
G01*
X312433903Y-78728916D01*
G75*
G02*
X313478834Y-79928653I-77403J-1122334D01*
G01*
X313438834Y-80508653D01*
G75*
G02*
X312239097Y-81553584I-1122334J77403D01*
G01*
G37*
%TD*%
D13*
%TO.C,NP-6*%
X352996500Y-103981250D03*
X342836500Y-103981250D03*
D14*
X345416500Y-99981250D03*
D15*
X347916500Y-103981250D03*
G36*
G01*
X343355188Y-102278600D02*
X343355183Y-102278595D01*
G75*
G02*
X343269155Y-100689933I751317J837345D01*
G01*
X344579157Y-99229933D01*
G75*
G02*
X346167819Y-99143905I837345J-751317D01*
G01*
X346167819Y-99143905D01*
G75*
G02*
X346253847Y-100732567I-751317J-837345D01*
G01*
X344943845Y-102192567D01*
G75*
G02*
X343355183Y-102278595I-837345J751317D01*
G01*
G37*
D14*
X350456500Y-98901250D03*
G36*
G01*
X350339983Y-100603645D02*
X350339097Y-100603584D01*
G75*
G02*
X349294166Y-99403847I77403J1122334D01*
G01*
X349334166Y-98823847D01*
G75*
G02*
X350533903Y-97778916I1122334J-77403D01*
G01*
X350533903Y-97778916D01*
G75*
G02*
X351578834Y-98978653I-77403J-1122334D01*
G01*
X351538834Y-99558653D01*
G75*
G02*
X350339097Y-100603584I-1122334J77403D01*
G01*
G37*
%TD*%
D13*
%TO.C,NP-5*%
X333946500Y-103981250D03*
X323786500Y-103981250D03*
D14*
X326366500Y-99981250D03*
D15*
X328866500Y-103981250D03*
G36*
G01*
X324305188Y-102278600D02*
X324305183Y-102278595D01*
G75*
G02*
X324219155Y-100689933I751317J837345D01*
G01*
X325529157Y-99229933D01*
G75*
G02*
X327117819Y-99143905I837345J-751317D01*
G01*
X327117819Y-99143905D01*
G75*
G02*
X327203847Y-100732567I-751317J-837345D01*
G01*
X325893845Y-102192567D01*
G75*
G02*
X324305183Y-102278595I-837345J751317D01*
G01*
G37*
D14*
X331406500Y-98901250D03*
G36*
G01*
X331289983Y-100603645D02*
X331289097Y-100603584D01*
G75*
G02*
X330244166Y-99403847I77403J1122334D01*
G01*
X330284166Y-98823847D01*
G75*
G02*
X331483903Y-97778916I1122334J-77403D01*
G01*
X331483903Y-97778916D01*
G75*
G02*
X332528834Y-98978653I-77403J-1122334D01*
G01*
X332488834Y-99558653D01*
G75*
G02*
X331289097Y-100603584I-1122334J77403D01*
G01*
G37*
%TD*%
D13*
%TO.C,NP-4*%
X314896500Y-103981250D03*
X304736500Y-103981250D03*
D14*
X307316500Y-99981250D03*
D15*
X309816500Y-103981250D03*
G36*
G01*
X305255188Y-102278600D02*
X305255183Y-102278595D01*
G75*
G02*
X305169155Y-100689933I751317J837345D01*
G01*
X306479157Y-99229933D01*
G75*
G02*
X308067819Y-99143905I837345J-751317D01*
G01*
X308067819Y-99143905D01*
G75*
G02*
X308153847Y-100732567I-751317J-837345D01*
G01*
X306843845Y-102192567D01*
G75*
G02*
X305255183Y-102278595I-837345J751317D01*
G01*
G37*
D14*
X312356500Y-98901250D03*
G36*
G01*
X312239983Y-100603645D02*
X312239097Y-100603584D01*
G75*
G02*
X311194166Y-99403847I77403J1122334D01*
G01*
X311234166Y-98823847D01*
G75*
G02*
X312433903Y-97778916I1122334J-77403D01*
G01*
X312433903Y-97778916D01*
G75*
G02*
X313478834Y-98978653I-77403J-1122334D01*
G01*
X313438834Y-99558653D01*
G75*
G02*
X312239097Y-100603584I-1122334J77403D01*
G01*
G37*
%TD*%
D13*
%TO.C,NP-3*%
X352996500Y-123031250D03*
X342836500Y-123031250D03*
D14*
X345416500Y-119031250D03*
D15*
X347916500Y-123031250D03*
G36*
G01*
X343355188Y-121328600D02*
X343355183Y-121328595D01*
G75*
G02*
X343269155Y-119739933I751317J837345D01*
G01*
X344579157Y-118279933D01*
G75*
G02*
X346167819Y-118193905I837345J-751317D01*
G01*
X346167819Y-118193905D01*
G75*
G02*
X346253847Y-119782567I-751317J-837345D01*
G01*
X344943845Y-121242567D01*
G75*
G02*
X343355183Y-121328595I-837345J751317D01*
G01*
G37*
D14*
X350456500Y-117951250D03*
G36*
G01*
X350339983Y-119653645D02*
X350339097Y-119653584D01*
G75*
G02*
X349294166Y-118453847I77403J1122334D01*
G01*
X349334166Y-117873847D01*
G75*
G02*
X350533903Y-116828916I1122334J-77403D01*
G01*
X350533903Y-116828916D01*
G75*
G02*
X351578834Y-118028653I-77403J-1122334D01*
G01*
X351538834Y-118608653D01*
G75*
G02*
X350339097Y-119653584I-1122334J77403D01*
G01*
G37*
%TD*%
D13*
%TO.C,NP-2*%
X333946500Y-123031250D03*
X323786500Y-123031250D03*
D14*
X326366500Y-119031250D03*
D15*
X328866500Y-123031250D03*
G36*
G01*
X324305188Y-121328600D02*
X324305183Y-121328595D01*
G75*
G02*
X324219155Y-119739933I751317J837345D01*
G01*
X325529157Y-118279933D01*
G75*
G02*
X327117819Y-118193905I837345J-751317D01*
G01*
X327117819Y-118193905D01*
G75*
G02*
X327203847Y-119782567I-751317J-837345D01*
G01*
X325893845Y-121242567D01*
G75*
G02*
X324305183Y-121328595I-837345J751317D01*
G01*
G37*
D14*
X331406500Y-117951250D03*
G36*
G01*
X331289983Y-119653645D02*
X331289097Y-119653584D01*
G75*
G02*
X330244166Y-118453847I77403J1122334D01*
G01*
X330284166Y-117873847D01*
G75*
G02*
X331483903Y-116828916I1122334J-77403D01*
G01*
X331483903Y-116828916D01*
G75*
G02*
X332528834Y-118028653I-77403J-1122334D01*
G01*
X332488834Y-118608653D01*
G75*
G02*
X331289097Y-119653584I-1122334J77403D01*
G01*
G37*
%TD*%
D13*
%TO.C,NP-1*%
X314896500Y-123031250D03*
X304736500Y-123031250D03*
D14*
X307316500Y-119031250D03*
D15*
X309816500Y-123031250D03*
G36*
G01*
X305255188Y-121328600D02*
X305255183Y-121328595D01*
G75*
G02*
X305169155Y-119739933I751317J837345D01*
G01*
X306479157Y-118279933D01*
G75*
G02*
X308067819Y-118193905I837345J-751317D01*
G01*
X308067819Y-118193905D01*
G75*
G02*
X308153847Y-119782567I-751317J-837345D01*
G01*
X306843845Y-121242567D01*
G75*
G02*
X305255183Y-121328595I-837345J751317D01*
G01*
G37*
D14*
X312356500Y-117951250D03*
G36*
G01*
X312239983Y-119653645D02*
X312239097Y-119653584D01*
G75*
G02*
X311194166Y-118453847I77403J1122334D01*
G01*
X311234166Y-117873847D01*
G75*
G02*
X312433903Y-116828916I1122334J-77403D01*
G01*
X312433903Y-116828916D01*
G75*
G02*
X313478834Y-118028653I-77403J-1122334D01*
G01*
X313438834Y-118608653D01*
G75*
G02*
X312239097Y-119653584I-1122334J77403D01*
G01*
G37*
%TD*%
D13*
%TO.C,NP-0*%
X324421500Y-142081250D03*
X314261500Y-142081250D03*
D14*
X316841500Y-138081250D03*
D15*
X319341500Y-142081250D03*
G36*
G01*
X314780188Y-140378600D02*
X314780183Y-140378595D01*
G75*
G02*
X314694155Y-138789933I751317J837345D01*
G01*
X316004157Y-137329933D01*
G75*
G02*
X317592819Y-137243905I837345J-751317D01*
G01*
X317592819Y-137243905D01*
G75*
G02*
X317678847Y-138832567I-751317J-837345D01*
G01*
X316368845Y-140292567D01*
G75*
G02*
X314780183Y-140378595I-837345J751317D01*
G01*
G37*
D14*
X321881500Y-137001250D03*
G36*
G01*
X321764983Y-138703645D02*
X321764097Y-138703584D01*
G75*
G02*
X320719166Y-137503847I77403J1122334D01*
G01*
X320759166Y-136923847D01*
G75*
G02*
X321958903Y-135878916I1122334J-77403D01*
G01*
X321958903Y-135878916D01*
G75*
G02*
X323003834Y-137078653I-77403J-1122334D01*
G01*
X322963834Y-137658653D01*
G75*
G02*
X321764097Y-138703584I-1122334J77403D01*
G01*
G37*
%TD*%
D13*
%TO.C,N1*%
X100647500Y-123031250D03*
X90487500Y-123031250D03*
D14*
X93067500Y-119031250D03*
D15*
X95567500Y-123031250D03*
G36*
G01*
X91006188Y-121328600D02*
X91006183Y-121328595D01*
G75*
G02*
X90920155Y-119739933I751317J837345D01*
G01*
X92230157Y-118279933D01*
G75*
G02*
X93818819Y-118193905I837345J-751317D01*
G01*
X93818819Y-118193905D01*
G75*
G02*
X93904847Y-119782567I-751317J-837345D01*
G01*
X92594845Y-121242567D01*
G75*
G02*
X91006183Y-121328595I-837345J751317D01*
G01*
G37*
D14*
X98107500Y-117951250D03*
G36*
G01*
X97990983Y-119653645D02*
X97990097Y-119653584D01*
G75*
G02*
X96945166Y-118453847I77403J1122334D01*
G01*
X96985166Y-117873847D01*
G75*
G02*
X98184903Y-116828916I1122334J-77403D01*
G01*
X98184903Y-116828916D01*
G75*
G02*
X99229834Y-118028653I-77403J-1122334D01*
G01*
X99189834Y-118608653D01*
G75*
G02*
X97990097Y-119653584I-1122334J77403D01*
G01*
G37*
%TD*%
D13*
%TO.C,MX-RSHIFT1*%
X212534500Y-123031250D03*
X202374500Y-123031250D03*
D14*
X204954500Y-119031250D03*
D15*
X207454500Y-123031250D03*
G36*
G01*
X202893188Y-121328600D02*
X202893183Y-121328595D01*
G75*
G02*
X202807155Y-119739933I751317J837345D01*
G01*
X204117157Y-118279933D01*
G75*
G02*
X205705819Y-118193905I837345J-751317D01*
G01*
X205705819Y-118193905D01*
G75*
G02*
X205791847Y-119782567I-751317J-837345D01*
G01*
X204481845Y-121242567D01*
G75*
G02*
X202893183Y-121328595I-837345J751317D01*
G01*
G37*
D14*
X209994500Y-117951250D03*
G36*
G01*
X209877983Y-119653645D02*
X209877097Y-119653584D01*
G75*
G02*
X208832166Y-118453847I77403J1122334D01*
G01*
X208872166Y-117873847D01*
G75*
G02*
X210071903Y-116828916I1122334J-77403D01*
G01*
X210071903Y-116828916D01*
G75*
G02*
X211116834Y-118028653I-77403J-1122334D01*
G01*
X211076834Y-118608653D01*
G75*
G02*
X209877097Y-119653584I-1122334J77403D01*
G01*
G37*
%TD*%
D13*
%TO.C,MENU1*%
X203009500Y-142081250D03*
X192849500Y-142081250D03*
D14*
X195429500Y-138081250D03*
D15*
X197929500Y-142081250D03*
G36*
G01*
X193368188Y-140378600D02*
X193368183Y-140378595D01*
G75*
G02*
X193282155Y-138789933I751317J837345D01*
G01*
X194592157Y-137329933D01*
G75*
G02*
X196180819Y-137243905I837345J-751317D01*
G01*
X196180819Y-137243905D01*
G75*
G02*
X196266847Y-138832567I-751317J-837345D01*
G01*
X194956845Y-140292567D01*
G75*
G02*
X193368183Y-140378595I-837345J751317D01*
G01*
G37*
D14*
X200469500Y-137001250D03*
G36*
G01*
X200352983Y-138703645D02*
X200352097Y-138703584D01*
G75*
G02*
X199307166Y-137503847I77403J1122334D01*
G01*
X199347166Y-136923847D01*
G75*
G02*
X200546903Y-135878916I1122334J-77403D01*
G01*
X200546903Y-135878916D01*
G75*
G02*
X201591834Y-137078653I-77403J-1122334D01*
G01*
X201551834Y-137658653D01*
G75*
G02*
X200352097Y-138703584I-1122334J77403D01*
G01*
G37*
%TD*%
D13*
%TO.C,M1*%
X119697500Y-123031250D03*
X109537500Y-123031250D03*
D14*
X112117500Y-119031250D03*
D15*
X114617500Y-123031250D03*
G36*
G01*
X110056188Y-121328600D02*
X110056183Y-121328595D01*
G75*
G02*
X109970155Y-119739933I751317J837345D01*
G01*
X111280157Y-118279933D01*
G75*
G02*
X112868819Y-118193905I837345J-751317D01*
G01*
X112868819Y-118193905D01*
G75*
G02*
X112954847Y-119782567I-751317J-837345D01*
G01*
X111644845Y-121242567D01*
G75*
G02*
X110056183Y-121328595I-837345J751317D01*
G01*
G37*
D14*
X117157500Y-117951250D03*
G36*
G01*
X117040983Y-119653645D02*
X117040097Y-119653584D01*
G75*
G02*
X115995166Y-118453847I77403J1122334D01*
G01*
X116035166Y-117873847D01*
G75*
G02*
X117234903Y-116828916I1122334J-77403D01*
G01*
X117234903Y-116828916D01*
G75*
G02*
X118279834Y-118028653I-77403J-1122334D01*
G01*
X118239834Y-118608653D01*
G75*
G02*
X117040097Y-119653584I-1122334J77403D01*
G01*
G37*
%TD*%
D13*
%TO.C,LCBR1*%
X181546500Y-84931250D03*
X171386500Y-84931250D03*
D14*
X173966500Y-80931250D03*
D15*
X176466500Y-84931250D03*
G36*
G01*
X171905188Y-83228600D02*
X171905183Y-83228595D01*
G75*
G02*
X171819155Y-81639933I751317J837345D01*
G01*
X173129157Y-80179933D01*
G75*
G02*
X174717819Y-80093905I837345J-751317D01*
G01*
X174717819Y-80093905D01*
G75*
G02*
X174803847Y-81682567I-751317J-837345D01*
G01*
X173493845Y-83142567D01*
G75*
G02*
X171905183Y-83228595I-837345J751317D01*
G01*
G37*
D14*
X179006500Y-79851250D03*
G36*
G01*
X178889983Y-81553645D02*
X178889097Y-81553584D01*
G75*
G02*
X177844166Y-80353847I77403J1122334D01*
G01*
X177884166Y-79773847D01*
G75*
G02*
X179083903Y-78728916I1122334J-77403D01*
G01*
X179083903Y-78728916D01*
G75*
G02*
X180128834Y-79928653I-77403J-1122334D01*
G01*
X180088834Y-80508653D01*
G75*
G02*
X178889097Y-81553584I-1122334J77403D01*
G01*
G37*
%TD*%
D13*
%TO.C,LARROW1*%
X253047500Y-142081250D03*
X242887500Y-142081250D03*
D14*
X245467500Y-138081250D03*
D15*
X247967500Y-142081250D03*
G36*
G01*
X243406188Y-140378600D02*
X243406183Y-140378595D01*
G75*
G02*
X243320155Y-138789933I751317J837345D01*
G01*
X244630157Y-137329933D01*
G75*
G02*
X246218819Y-137243905I837345J-751317D01*
G01*
X246218819Y-137243905D01*
G75*
G02*
X246304847Y-138832567I-751317J-837345D01*
G01*
X244994845Y-140292567D01*
G75*
G02*
X243406183Y-140378595I-837345J751317D01*
G01*
G37*
D14*
X250507500Y-137001250D03*
G36*
G01*
X250390983Y-138703645D02*
X250390097Y-138703584D01*
G75*
G02*
X249345166Y-137503847I77403J1122334D01*
G01*
X249385166Y-136923847D01*
G75*
G02*
X250584903Y-135878916I1122334J-77403D01*
G01*
X250584903Y-135878916D01*
G75*
G02*
X251629834Y-137078653I-77403J-1122334D01*
G01*
X251589834Y-137658653D01*
G75*
G02*
X250390097Y-138703584I-1122334J77403D01*
G01*
G37*
%TD*%
D13*
%TO.C,L1*%
X148145500Y-103981250D03*
X137985500Y-103981250D03*
D14*
X140565500Y-99981250D03*
D15*
X143065500Y-103981250D03*
G36*
G01*
X138504188Y-102278600D02*
X138504183Y-102278595D01*
G75*
G02*
X138418155Y-100689933I751317J837345D01*
G01*
X139728157Y-99229933D01*
G75*
G02*
X141316819Y-99143905I837345J-751317D01*
G01*
X141316819Y-99143905D01*
G75*
G02*
X141402847Y-100732567I-751317J-837345D01*
G01*
X140092845Y-102192567D01*
G75*
G02*
X138504183Y-102278595I-837345J751317D01*
G01*
G37*
D14*
X145605500Y-98901250D03*
G36*
G01*
X145488983Y-100603645D02*
X145488097Y-100603584D01*
G75*
G02*
X144443166Y-99403847I77403J1122334D01*
G01*
X144483166Y-98823847D01*
G75*
G02*
X145682903Y-97778916I1122334J-77403D01*
G01*
X145682903Y-97778916D01*
G75*
G02*
X146727834Y-98978653I-77403J-1122334D01*
G01*
X146687834Y-99558653D01*
G75*
G02*
X145488097Y-100603584I-1122334J77403D01*
G01*
G37*
%TD*%
D13*
%TO.C,K10*%
X129095500Y-103981250D03*
X118935500Y-103981250D03*
D14*
X121515500Y-99981250D03*
D15*
X124015500Y-103981250D03*
G36*
G01*
X119454188Y-102278600D02*
X119454183Y-102278595D01*
G75*
G02*
X119368155Y-100689933I751317J837345D01*
G01*
X120678157Y-99229933D01*
G75*
G02*
X122266819Y-99143905I837345J-751317D01*
G01*
X122266819Y-99143905D01*
G75*
G02*
X122352847Y-100732567I-751317J-837345D01*
G01*
X121042845Y-102192567D01*
G75*
G02*
X119454183Y-102278595I-837345J751317D01*
G01*
G37*
D14*
X126555500Y-98901250D03*
G36*
G01*
X126438983Y-100603645D02*
X126438097Y-100603584D01*
G75*
G02*
X125393166Y-99403847I77403J1122334D01*
G01*
X125433166Y-98823847D01*
G75*
G02*
X126632903Y-97778916I1122334J-77403D01*
G01*
X126632903Y-97778916D01*
G75*
G02*
X127677834Y-98978653I-77403J-1122334D01*
G01*
X127637834Y-99558653D01*
G75*
G02*
X126438097Y-100603584I-1122334J77403D01*
G01*
G37*
%TD*%
D13*
%TO.C,K9*%
X133921500Y-65881250D03*
X123761500Y-65881250D03*
D14*
X126341500Y-61881250D03*
D15*
X128841500Y-65881250D03*
G36*
G01*
X124280188Y-64178600D02*
X124280183Y-64178595D01*
G75*
G02*
X124194155Y-62589933I751317J837345D01*
G01*
X125504157Y-61129933D01*
G75*
G02*
X127092819Y-61043905I837345J-751317D01*
G01*
X127092819Y-61043905D01*
G75*
G02*
X127178847Y-62632567I-751317J-837345D01*
G01*
X125868845Y-64092567D01*
G75*
G02*
X124280183Y-64178595I-837345J751317D01*
G01*
G37*
D14*
X131381500Y-60801250D03*
G36*
G01*
X131264983Y-62503645D02*
X131264097Y-62503584D01*
G75*
G02*
X130219166Y-61303847I77403J1122334D01*
G01*
X130259166Y-60723847D01*
G75*
G02*
X131458903Y-59678916I1122334J-77403D01*
G01*
X131458903Y-59678916D01*
G75*
G02*
X132503834Y-60878653I-77403J-1122334D01*
G01*
X132463834Y-61458653D01*
G75*
G02*
X131264097Y-62503584I-1122334J77403D01*
G01*
G37*
%TD*%
D13*
%TO.C,K8*%
X114871500Y-65881250D03*
X104711500Y-65881250D03*
D14*
X107291500Y-61881250D03*
D15*
X109791500Y-65881250D03*
G36*
G01*
X105230188Y-64178600D02*
X105230183Y-64178595D01*
G75*
G02*
X105144155Y-62589933I751317J837345D01*
G01*
X106454157Y-61129933D01*
G75*
G02*
X108042819Y-61043905I837345J-751317D01*
G01*
X108042819Y-61043905D01*
G75*
G02*
X108128847Y-62632567I-751317J-837345D01*
G01*
X106818845Y-64092567D01*
G75*
G02*
X105230183Y-64178595I-837345J751317D01*
G01*
G37*
D14*
X112331500Y-60801250D03*
G36*
G01*
X112214983Y-62503645D02*
X112214097Y-62503584D01*
G75*
G02*
X111169166Y-61303847I77403J1122334D01*
G01*
X111209166Y-60723847D01*
G75*
G02*
X112408903Y-59678916I1122334J-77403D01*
G01*
X112408903Y-59678916D01*
G75*
G02*
X113453834Y-60878653I-77403J-1122334D01*
G01*
X113413834Y-61458653D01*
G75*
G02*
X112214097Y-62503584I-1122334J77403D01*
G01*
G37*
%TD*%
D13*
%TO.C,K7*%
X95821500Y-65881250D03*
X85661500Y-65881250D03*
D14*
X88241500Y-61881250D03*
D15*
X90741500Y-65881250D03*
G36*
G01*
X86180188Y-64178600D02*
X86180183Y-64178595D01*
G75*
G02*
X86094155Y-62589933I751317J837345D01*
G01*
X87404157Y-61129933D01*
G75*
G02*
X88992819Y-61043905I837345J-751317D01*
G01*
X88992819Y-61043905D01*
G75*
G02*
X89078847Y-62632567I-751317J-837345D01*
G01*
X87768845Y-64092567D01*
G75*
G02*
X86180183Y-64178595I-837345J751317D01*
G01*
G37*
D14*
X93281500Y-60801250D03*
G36*
G01*
X93164983Y-62503645D02*
X93164097Y-62503584D01*
G75*
G02*
X92119166Y-61303847I77403J1122334D01*
G01*
X92159166Y-60723847D01*
G75*
G02*
X93358903Y-59678916I1122334J-77403D01*
G01*
X93358903Y-59678916D01*
G75*
G02*
X94403834Y-60878653I-77403J-1122334D01*
G01*
X94363834Y-61458653D01*
G75*
G02*
X93164097Y-62503584I-1122334J77403D01*
G01*
G37*
%TD*%
D13*
%TO.C,K6*%
X76771500Y-65881250D03*
X66611500Y-65881250D03*
D14*
X69191500Y-61881250D03*
D15*
X71691500Y-65881250D03*
G36*
G01*
X67130188Y-64178600D02*
X67130183Y-64178595D01*
G75*
G02*
X67044155Y-62589933I751317J837345D01*
G01*
X68354157Y-61129933D01*
G75*
G02*
X69942819Y-61043905I837345J-751317D01*
G01*
X69942819Y-61043905D01*
G75*
G02*
X70028847Y-62632567I-751317J-837345D01*
G01*
X68718845Y-64092567D01*
G75*
G02*
X67130183Y-64178595I-837345J751317D01*
G01*
G37*
D14*
X74231500Y-60801250D03*
G36*
G01*
X74114983Y-62503645D02*
X74114097Y-62503584D01*
G75*
G02*
X73069166Y-61303847I77403J1122334D01*
G01*
X73109166Y-60723847D01*
G75*
G02*
X74308903Y-59678916I1122334J-77403D01*
G01*
X74308903Y-59678916D01*
G75*
G02*
X75353834Y-60878653I-77403J-1122334D01*
G01*
X75313834Y-61458653D01*
G75*
G02*
X74114097Y-62503584I-1122334J77403D01*
G01*
G37*
%TD*%
D13*
%TO.C,K5*%
X57721500Y-65881250D03*
X47561500Y-65881250D03*
D14*
X50141500Y-61881250D03*
D15*
X52641500Y-65881250D03*
G36*
G01*
X48080188Y-64178600D02*
X48080183Y-64178595D01*
G75*
G02*
X47994155Y-62589933I751317J837345D01*
G01*
X49304157Y-61129933D01*
G75*
G02*
X50892819Y-61043905I837345J-751317D01*
G01*
X50892819Y-61043905D01*
G75*
G02*
X50978847Y-62632567I-751317J-837345D01*
G01*
X49668845Y-64092567D01*
G75*
G02*
X48080183Y-64178595I-837345J751317D01*
G01*
G37*
D14*
X55181500Y-60801250D03*
G36*
G01*
X55064983Y-62503645D02*
X55064097Y-62503584D01*
G75*
G02*
X54019166Y-61303847I77403J1122334D01*
G01*
X54059166Y-60723847D01*
G75*
G02*
X55258903Y-59678916I1122334J-77403D01*
G01*
X55258903Y-59678916D01*
G75*
G02*
X56303834Y-60878653I-77403J-1122334D01*
G01*
X56263834Y-61458653D01*
G75*
G02*
X55064097Y-62503584I-1122334J77403D01*
G01*
G37*
%TD*%
D13*
%TO.C,K4*%
X38671500Y-65881250D03*
X28511500Y-65881250D03*
D14*
X31091500Y-61881250D03*
D15*
X33591500Y-65881250D03*
G36*
G01*
X29030188Y-64178600D02*
X29030183Y-64178595D01*
G75*
G02*
X28944155Y-62589933I751317J837345D01*
G01*
X30254157Y-61129933D01*
G75*
G02*
X31842819Y-61043905I837345J-751317D01*
G01*
X31842819Y-61043905D01*
G75*
G02*
X31928847Y-62632567I-751317J-837345D01*
G01*
X30618845Y-64092567D01*
G75*
G02*
X29030183Y-64178595I-837345J751317D01*
G01*
G37*
D14*
X36131500Y-60801250D03*
G36*
G01*
X36014983Y-62503645D02*
X36014097Y-62503584D01*
G75*
G02*
X34969166Y-61303847I77403J1122334D01*
G01*
X35009166Y-60723847D01*
G75*
G02*
X36208903Y-59678916I1122334J-77403D01*
G01*
X36208903Y-59678916D01*
G75*
G02*
X37253834Y-60878653I-77403J-1122334D01*
G01*
X37213834Y-61458653D01*
G75*
G02*
X36014097Y-62503584I-1122334J77403D01*
G01*
G37*
%TD*%
D13*
%TO.C,K3*%
X19621500Y-65881250D03*
X9461500Y-65881250D03*
D14*
X12041500Y-61881250D03*
D15*
X14541500Y-65881250D03*
G36*
G01*
X9980188Y-64178600D02*
X9980183Y-64178595D01*
G75*
G02*
X9894155Y-62589933I751317J837345D01*
G01*
X11204157Y-61129933D01*
G75*
G02*
X12792819Y-61043905I837345J-751317D01*
G01*
X12792819Y-61043905D01*
G75*
G02*
X12878847Y-62632567I-751317J-837345D01*
G01*
X11568845Y-64092567D01*
G75*
G02*
X9980183Y-64178595I-837345J751317D01*
G01*
G37*
D14*
X17081500Y-60801250D03*
G36*
G01*
X16964983Y-62503645D02*
X16964097Y-62503584D01*
G75*
G02*
X15919166Y-61303847I77403J1122334D01*
G01*
X15959166Y-60723847D01*
G75*
G02*
X17158903Y-59678916I1122334J-77403D01*
G01*
X17158903Y-59678916D01*
G75*
G02*
X18203834Y-60878653I-77403J-1122334D01*
G01*
X18163834Y-61458653D01*
G75*
G02*
X16964097Y-62503584I-1122334J77403D01*
G01*
G37*
%TD*%
D13*
%TO.C,K2*%
X571500Y-65881250D03*
X-9588500Y-65881250D03*
D14*
X-7008500Y-61881250D03*
D15*
X-4508500Y-65881250D03*
G36*
G01*
X-9069812Y-64178600D02*
X-9069817Y-64178595D01*
G75*
G02*
X-9155845Y-62589933I751317J837345D01*
G01*
X-7845843Y-61129933D01*
G75*
G02*
X-6257181Y-61043905I837345J-751317D01*
G01*
X-6257181Y-61043905D01*
G75*
G02*
X-6171153Y-62632567I-751317J-837345D01*
G01*
X-7481155Y-64092567D01*
G75*
G02*
X-9069817Y-64178595I-837345J751317D01*
G01*
G37*
D14*
X-1968500Y-60801250D03*
G36*
G01*
X-2085017Y-62503645D02*
X-2085903Y-62503584D01*
G75*
G02*
X-3130834Y-61303847I77403J1122334D01*
G01*
X-3090834Y-60723847D01*
G75*
G02*
X-1891097Y-59678916I1122334J-77403D01*
G01*
X-1891097Y-59678916D01*
G75*
G02*
X-846166Y-60878653I-77403J-1122334D01*
G01*
X-886166Y-61458653D01*
G75*
G02*
X-2085903Y-62503584I-1122334J77403D01*
G01*
G37*
%TD*%
D13*
%TO.C,K1*%
X-18478500Y-65881250D03*
X-28638500Y-65881250D03*
D14*
X-26058500Y-61881250D03*
D15*
X-23558500Y-65881250D03*
G36*
G01*
X-28119812Y-64178600D02*
X-28119817Y-64178595D01*
G75*
G02*
X-28205845Y-62589933I751317J837345D01*
G01*
X-26895843Y-61129933D01*
G75*
G02*
X-25307181Y-61043905I837345J-751317D01*
G01*
X-25307181Y-61043905D01*
G75*
G02*
X-25221153Y-62632567I-751317J-837345D01*
G01*
X-26531155Y-64092567D01*
G75*
G02*
X-28119817Y-64178595I-837345J751317D01*
G01*
G37*
D14*
X-21018500Y-60801250D03*
G36*
G01*
X-21135017Y-62503645D02*
X-21135903Y-62503584D01*
G75*
G02*
X-22180834Y-61303847I77403J1122334D01*
G01*
X-22140834Y-60723847D01*
G75*
G02*
X-20941097Y-59678916I1122334J-77403D01*
G01*
X-20941097Y-59678916D01*
G75*
G02*
X-19896166Y-60878653I-77403J-1122334D01*
G01*
X-19936166Y-61458653D01*
G75*
G02*
X-21135903Y-62503584I-1122334J77403D01*
G01*
G37*
%TD*%
D13*
%TO.C,K0*%
X152971500Y-65881250D03*
X142811500Y-65881250D03*
D14*
X145391500Y-61881250D03*
D15*
X147891500Y-65881250D03*
G36*
G01*
X143330188Y-64178600D02*
X143330183Y-64178595D01*
G75*
G02*
X143244155Y-62589933I751317J837345D01*
G01*
X144554157Y-61129933D01*
G75*
G02*
X146142819Y-61043905I837345J-751317D01*
G01*
X146142819Y-61043905D01*
G75*
G02*
X146228847Y-62632567I-751317J-837345D01*
G01*
X144918845Y-64092567D01*
G75*
G02*
X143330183Y-64178595I-837345J751317D01*
G01*
G37*
D14*
X150431500Y-60801250D03*
G36*
G01*
X150314983Y-62503645D02*
X150314097Y-62503584D01*
G75*
G02*
X149269166Y-61303847I77403J1122334D01*
G01*
X149309166Y-60723847D01*
G75*
G02*
X150508903Y-59678916I1122334J-77403D01*
G01*
X150508903Y-59678916D01*
G75*
G02*
X151553834Y-60878653I-77403J-1122334D01*
G01*
X151513834Y-61458653D01*
G75*
G02*
X150314097Y-62503584I-1122334J77403D01*
G01*
G37*
%TD*%
D13*
%TO.C,J1*%
X110045500Y-103981250D03*
X99885500Y-103981250D03*
D14*
X102465500Y-99981250D03*
D15*
X104965500Y-103981250D03*
G36*
G01*
X100404188Y-102278600D02*
X100404183Y-102278595D01*
G75*
G02*
X100318155Y-100689933I751317J837345D01*
G01*
X101628157Y-99229933D01*
G75*
G02*
X103216819Y-99143905I837345J-751317D01*
G01*
X103216819Y-99143905D01*
G75*
G02*
X103302847Y-100732567I-751317J-837345D01*
G01*
X101992845Y-102192567D01*
G75*
G02*
X100404183Y-102278595I-837345J751317D01*
G01*
G37*
D14*
X107505500Y-98901250D03*
G36*
G01*
X107388983Y-100603645D02*
X107388097Y-100603584D01*
G75*
G02*
X106343166Y-99403847I77403J1122334D01*
G01*
X106383166Y-98823847D01*
G75*
G02*
X107582903Y-97778916I1122334J-77403D01*
G01*
X107582903Y-97778916D01*
G75*
G02*
X108627834Y-98978653I-77403J-1122334D01*
G01*
X108587834Y-99558653D01*
G75*
G02*
X107388097Y-100603584I-1122334J77403D01*
G01*
G37*
%TD*%
D13*
%TO.C,INS1*%
X253047500Y-65881250D03*
X242887500Y-65881250D03*
D14*
X245467500Y-61881250D03*
D15*
X247967500Y-65881250D03*
G36*
G01*
X243406188Y-64178600D02*
X243406183Y-64178595D01*
G75*
G02*
X243320155Y-62589933I751317J837345D01*
G01*
X244630157Y-61129933D01*
G75*
G02*
X246218819Y-61043905I837345J-751317D01*
G01*
X246218819Y-61043905D01*
G75*
G02*
X246304847Y-62632567I-751317J-837345D01*
G01*
X244994845Y-64092567D01*
G75*
G02*
X243406183Y-64178595I-837345J751317D01*
G01*
G37*
D14*
X250507500Y-60801250D03*
G36*
G01*
X250390983Y-62503645D02*
X250390097Y-62503584D01*
G75*
G02*
X249345166Y-61303847I77403J1122334D01*
G01*
X249385166Y-60723847D01*
G75*
G02*
X250584903Y-59678916I1122334J-77403D01*
G01*
X250584903Y-59678916D01*
G75*
G02*
X251629834Y-60878653I-77403J-1122334D01*
G01*
X251589834Y-61458653D01*
G75*
G02*
X250390097Y-62503584I-1122334J77403D01*
G01*
G37*
%TD*%
D13*
%TO.C,I1*%
X124396500Y-84931250D03*
X114236500Y-84931250D03*
D14*
X116816500Y-80931250D03*
D15*
X119316500Y-84931250D03*
G36*
G01*
X114755188Y-83228600D02*
X114755183Y-83228595D01*
G75*
G02*
X114669155Y-81639933I751317J837345D01*
G01*
X115979157Y-80179933D01*
G75*
G02*
X117567819Y-80093905I837345J-751317D01*
G01*
X117567819Y-80093905D01*
G75*
G02*
X117653847Y-81682567I-751317J-837345D01*
G01*
X116343845Y-83142567D01*
G75*
G02*
X114755183Y-83228595I-837345J751317D01*
G01*
G37*
D14*
X121856500Y-79851250D03*
G36*
G01*
X121739983Y-81553645D02*
X121739097Y-81553584D01*
G75*
G02*
X120694166Y-80353847I77403J1122334D01*
G01*
X120734166Y-79773847D01*
G75*
G02*
X121933903Y-78728916I1122334J-77403D01*
G01*
X121933903Y-78728916D01*
G75*
G02*
X122978834Y-79928653I-77403J-1122334D01*
G01*
X122938834Y-80508653D01*
G75*
G02*
X121739097Y-81553584I-1122334J77403D01*
G01*
G37*
%TD*%
D13*
%TO.C,HOME1*%
X272097500Y-65881250D03*
X261937500Y-65881250D03*
D14*
X264517500Y-61881250D03*
D15*
X267017500Y-65881250D03*
G36*
G01*
X262456188Y-64178600D02*
X262456183Y-64178595D01*
G75*
G02*
X262370155Y-62589933I751317J837345D01*
G01*
X263680157Y-61129933D01*
G75*
G02*
X265268819Y-61043905I837345J-751317D01*
G01*
X265268819Y-61043905D01*
G75*
G02*
X265354847Y-62632567I-751317J-837345D01*
G01*
X264044845Y-64092567D01*
G75*
G02*
X262456183Y-64178595I-837345J751317D01*
G01*
G37*
D14*
X269557500Y-60801250D03*
G36*
G01*
X269440983Y-62503645D02*
X269440097Y-62503584D01*
G75*
G02*
X268395166Y-61303847I77403J1122334D01*
G01*
X268435166Y-60723847D01*
G75*
G02*
X269634903Y-59678916I1122334J-77403D01*
G01*
X269634903Y-59678916D01*
G75*
G02*
X270679834Y-60878653I-77403J-1122334D01*
G01*
X270639834Y-61458653D01*
G75*
G02*
X269440097Y-62503584I-1122334J77403D01*
G01*
G37*
%TD*%
D13*
%TO.C,HASH1*%
X205295500Y-103981250D03*
X195135500Y-103981250D03*
D14*
X197715500Y-99981250D03*
D15*
X200215500Y-103981250D03*
G36*
G01*
X195654188Y-102278600D02*
X195654183Y-102278595D01*
G75*
G02*
X195568155Y-100689933I751317J837345D01*
G01*
X196878157Y-99229933D01*
G75*
G02*
X198466819Y-99143905I837345J-751317D01*
G01*
X198466819Y-99143905D01*
G75*
G02*
X198552847Y-100732567I-751317J-837345D01*
G01*
X197242845Y-102192567D01*
G75*
G02*
X195654183Y-102278595I-837345J751317D01*
G01*
G37*
D14*
X202755500Y-98901250D03*
G36*
G01*
X202638983Y-100603645D02*
X202638097Y-100603584D01*
G75*
G02*
X201593166Y-99403847I77403J1122334D01*
G01*
X201633166Y-98823847D01*
G75*
G02*
X202832903Y-97778916I1122334J-77403D01*
G01*
X202832903Y-97778916D01*
G75*
G02*
X203877834Y-98978653I-77403J-1122334D01*
G01*
X203837834Y-99558653D01*
G75*
G02*
X202638097Y-100603584I-1122334J77403D01*
G01*
G37*
%TD*%
D13*
%TO.C,H1*%
X90995500Y-103981250D03*
X80835500Y-103981250D03*
D14*
X83415500Y-99981250D03*
D15*
X85915500Y-103981250D03*
G36*
G01*
X81354188Y-102278600D02*
X81354183Y-102278595D01*
G75*
G02*
X81268155Y-100689933I751317J837345D01*
G01*
X82578157Y-99229933D01*
G75*
G02*
X84166819Y-99143905I837345J-751317D01*
G01*
X84166819Y-99143905D01*
G75*
G02*
X84252847Y-100732567I-751317J-837345D01*
G01*
X82942845Y-102192567D01*
G75*
G02*
X81354183Y-102278595I-837345J751317D01*
G01*
G37*
D14*
X88455500Y-98901250D03*
G36*
G01*
X88338983Y-100603645D02*
X88338097Y-100603584D01*
G75*
G02*
X87293166Y-99403847I77403J1122334D01*
G01*
X87333166Y-98823847D01*
G75*
G02*
X88532903Y-97778916I1122334J-77403D01*
G01*
X88532903Y-97778916D01*
G75*
G02*
X89577834Y-98978653I-77403J-1122334D01*
G01*
X89537834Y-99558653D01*
G75*
G02*
X88338097Y-100603584I-1122334J77403D01*
G01*
G37*
%TD*%
D13*
%TO.C,G1*%
X71945500Y-103981250D03*
X61785500Y-103981250D03*
D14*
X64365500Y-99981250D03*
D15*
X66865500Y-103981250D03*
G36*
G01*
X62304188Y-102278600D02*
X62304183Y-102278595D01*
G75*
G02*
X62218155Y-100689933I751317J837345D01*
G01*
X63528157Y-99229933D01*
G75*
G02*
X65116819Y-99143905I837345J-751317D01*
G01*
X65116819Y-99143905D01*
G75*
G02*
X65202847Y-100732567I-751317J-837345D01*
G01*
X63892845Y-102192567D01*
G75*
G02*
X62304183Y-102278595I-837345J751317D01*
G01*
G37*
D14*
X69405500Y-98901250D03*
G36*
G01*
X69288983Y-100603645D02*
X69288097Y-100603584D01*
G75*
G02*
X68243166Y-99403847I77403J1122334D01*
G01*
X68283166Y-98823847D01*
G75*
G02*
X69482903Y-97778916I1122334J-77403D01*
G01*
X69482903Y-97778916D01*
G75*
G02*
X70527834Y-98978653I-77403J-1122334D01*
G01*
X70487834Y-99558653D01*
G75*
G02*
X69288097Y-100603584I-1122334J77403D01*
G01*
G37*
%TD*%
D13*
%TO.C,FSLSH1*%
X176847500Y-123031250D03*
X166687500Y-123031250D03*
D14*
X169267500Y-119031250D03*
D15*
X171767500Y-123031250D03*
G36*
G01*
X167206188Y-121328600D02*
X167206183Y-121328595D01*
G75*
G02*
X167120155Y-119739933I751317J837345D01*
G01*
X168430157Y-118279933D01*
G75*
G02*
X170018819Y-118193905I837345J-751317D01*
G01*
X170018819Y-118193905D01*
G75*
G02*
X170104847Y-119782567I-751317J-837345D01*
G01*
X168794845Y-121242567D01*
G75*
G02*
X167206183Y-121328595I-837345J751317D01*
G01*
G37*
D14*
X174307500Y-117951250D03*
G36*
G01*
X174190983Y-119653645D02*
X174190097Y-119653584D01*
G75*
G02*
X173145166Y-118453847I77403J1122334D01*
G01*
X173185166Y-117873847D01*
G75*
G02*
X174384903Y-116828916I1122334J-77403D01*
G01*
X174384903Y-116828916D01*
G75*
G02*
X175429834Y-118028653I-77403J-1122334D01*
G01*
X175389834Y-118608653D01*
G75*
G02*
X174190097Y-119653584I-1122334J77403D01*
G01*
G37*
%TD*%
%TO.C,F14*%
G36*
G01*
X-25410000Y-38087000D02*
X-26660000Y-38087000D01*
G75*
G02*
X-26910000Y-37837000I0J250000D01*
G01*
X-26910000Y-37087000D01*
G75*
G02*
X-26660000Y-36837000I250000J0D01*
G01*
X-25410000Y-36837000D01*
G75*
G02*
X-25160000Y-37087000I0J-250000D01*
G01*
X-25160000Y-37837000D01*
G75*
G02*
X-25410000Y-38087000I-250000J0D01*
G01*
G37*
G36*
G01*
X-25410000Y-40887000D02*
X-26660000Y-40887000D01*
G75*
G02*
X-26910000Y-40637000I0J250000D01*
G01*
X-26910000Y-39887000D01*
G75*
G02*
X-26660000Y-39637000I250000J0D01*
G01*
X-25410000Y-39637000D01*
G75*
G02*
X-25160000Y-39887000I0J-250000D01*
G01*
X-25160000Y-40637000D01*
G75*
G02*
X-25410000Y-40887000I-250000J0D01*
G01*
G37*
%TD*%
D13*
%TO.C,F13*%
X52895500Y-103981250D03*
X42735500Y-103981250D03*
D14*
X45315500Y-99981250D03*
D15*
X47815500Y-103981250D03*
G36*
G01*
X43254188Y-102278600D02*
X43254183Y-102278595D01*
G75*
G02*
X43168155Y-100689933I751317J837345D01*
G01*
X44478157Y-99229933D01*
G75*
G02*
X46066819Y-99143905I837345J-751317D01*
G01*
X46066819Y-99143905D01*
G75*
G02*
X46152847Y-100732567I-751317J-837345D01*
G01*
X44842845Y-102192567D01*
G75*
G02*
X43254183Y-102278595I-837345J751317D01*
G01*
G37*
D14*
X50355500Y-98901250D03*
G36*
G01*
X50238983Y-100603645D02*
X50238097Y-100603584D01*
G75*
G02*
X49193166Y-99403847I77403J1122334D01*
G01*
X49233166Y-98823847D01*
G75*
G02*
X50432903Y-97778916I1122334J-77403D01*
G01*
X50432903Y-97778916D01*
G75*
G02*
X51477834Y-98978653I-77403J-1122334D01*
G01*
X51437834Y-99558653D01*
G75*
G02*
X50238097Y-100603584I-1122334J77403D01*
G01*
G37*
%TD*%
D13*
%TO.C,F12*%
X229171500Y-37306250D03*
X219011500Y-37306250D03*
D14*
X221591500Y-33306250D03*
D15*
X224091500Y-37306250D03*
G36*
G01*
X219530188Y-35603600D02*
X219530183Y-35603595D01*
G75*
G02*
X219444155Y-34014933I751317J837345D01*
G01*
X220754157Y-32554933D01*
G75*
G02*
X222342819Y-32468905I837345J-751317D01*
G01*
X222342819Y-32468905D01*
G75*
G02*
X222428847Y-34057567I-751317J-837345D01*
G01*
X221118845Y-35517567D01*
G75*
G02*
X219530183Y-35603595I-837345J751317D01*
G01*
G37*
D14*
X226631500Y-32226250D03*
G36*
G01*
X226514983Y-33928645D02*
X226514097Y-33928584D01*
G75*
G02*
X225469166Y-32728847I77403J1122334D01*
G01*
X225509166Y-32148847D01*
G75*
G02*
X226708903Y-31103916I1122334J-77403D01*
G01*
X226708903Y-31103916D01*
G75*
G02*
X227753834Y-32303653I-77403J-1122334D01*
G01*
X227713834Y-32883653D01*
G75*
G02*
X226514097Y-33928584I-1122334J77403D01*
G01*
G37*
%TD*%
D13*
%TO.C,F11*%
X210121500Y-37306250D03*
X199961500Y-37306250D03*
D14*
X202541500Y-33306250D03*
D15*
X205041500Y-37306250D03*
G36*
G01*
X200480188Y-35603600D02*
X200480183Y-35603595D01*
G75*
G02*
X200394155Y-34014933I751317J837345D01*
G01*
X201704157Y-32554933D01*
G75*
G02*
X203292819Y-32468905I837345J-751317D01*
G01*
X203292819Y-32468905D01*
G75*
G02*
X203378847Y-34057567I-751317J-837345D01*
G01*
X202068845Y-35517567D01*
G75*
G02*
X200480183Y-35603595I-837345J751317D01*
G01*
G37*
D14*
X207581500Y-32226250D03*
G36*
G01*
X207464983Y-33928645D02*
X207464097Y-33928584D01*
G75*
G02*
X206419166Y-32728847I77403J1122334D01*
G01*
X206459166Y-32148847D01*
G75*
G02*
X207658903Y-31103916I1122334J-77403D01*
G01*
X207658903Y-31103916D01*
G75*
G02*
X208703834Y-32303653I-77403J-1122334D01*
G01*
X208663834Y-32883653D01*
G75*
G02*
X207464097Y-33928584I-1122334J77403D01*
G01*
G37*
%TD*%
D13*
%TO.C,F10*%
X191071500Y-37306250D03*
X180911500Y-37306250D03*
D14*
X183491500Y-33306250D03*
D15*
X185991500Y-37306250D03*
G36*
G01*
X181430188Y-35603600D02*
X181430183Y-35603595D01*
G75*
G02*
X181344155Y-34014933I751317J837345D01*
G01*
X182654157Y-32554933D01*
G75*
G02*
X184242819Y-32468905I837345J-751317D01*
G01*
X184242819Y-32468905D01*
G75*
G02*
X184328847Y-34057567I-751317J-837345D01*
G01*
X183018845Y-35517567D01*
G75*
G02*
X181430183Y-35603595I-837345J751317D01*
G01*
G37*
D14*
X188531500Y-32226250D03*
G36*
G01*
X188414983Y-33928645D02*
X188414097Y-33928584D01*
G75*
G02*
X187369166Y-32728847I77403J1122334D01*
G01*
X187409166Y-32148847D01*
G75*
G02*
X188608903Y-31103916I1122334J-77403D01*
G01*
X188608903Y-31103916D01*
G75*
G02*
X189653834Y-32303653I-77403J-1122334D01*
G01*
X189613834Y-32883653D01*
G75*
G02*
X188414097Y-33928584I-1122334J77403D01*
G01*
G37*
%TD*%
D13*
%TO.C,F9*%
X172021500Y-37306250D03*
X161861500Y-37306250D03*
D14*
X164441500Y-33306250D03*
D15*
X166941500Y-37306250D03*
G36*
G01*
X162380188Y-35603600D02*
X162380183Y-35603595D01*
G75*
G02*
X162294155Y-34014933I751317J837345D01*
G01*
X163604157Y-32554933D01*
G75*
G02*
X165192819Y-32468905I837345J-751317D01*
G01*
X165192819Y-32468905D01*
G75*
G02*
X165278847Y-34057567I-751317J-837345D01*
G01*
X163968845Y-35517567D01*
G75*
G02*
X162380183Y-35603595I-837345J751317D01*
G01*
G37*
D14*
X169481500Y-32226250D03*
G36*
G01*
X169364983Y-33928645D02*
X169364097Y-33928584D01*
G75*
G02*
X168319166Y-32728847I77403J1122334D01*
G01*
X168359166Y-32148847D01*
G75*
G02*
X169558903Y-31103916I1122334J-77403D01*
G01*
X169558903Y-31103916D01*
G75*
G02*
X170603834Y-32303653I-77403J-1122334D01*
G01*
X170563834Y-32883653D01*
G75*
G02*
X169364097Y-33928584I-1122334J77403D01*
G01*
G37*
%TD*%
D13*
%TO.C,F8*%
X143446500Y-37306250D03*
X133286500Y-37306250D03*
D14*
X135866500Y-33306250D03*
D15*
X138366500Y-37306250D03*
G36*
G01*
X133805188Y-35603600D02*
X133805183Y-35603595D01*
G75*
G02*
X133719155Y-34014933I751317J837345D01*
G01*
X135029157Y-32554933D01*
G75*
G02*
X136617819Y-32468905I837345J-751317D01*
G01*
X136617819Y-32468905D01*
G75*
G02*
X136703847Y-34057567I-751317J-837345D01*
G01*
X135393845Y-35517567D01*
G75*
G02*
X133805183Y-35603595I-837345J751317D01*
G01*
G37*
D14*
X140906500Y-32226250D03*
G36*
G01*
X140789983Y-33928645D02*
X140789097Y-33928584D01*
G75*
G02*
X139744166Y-32728847I77403J1122334D01*
G01*
X139784166Y-32148847D01*
G75*
G02*
X140983903Y-31103916I1122334J-77403D01*
G01*
X140983903Y-31103916D01*
G75*
G02*
X142028834Y-32303653I-77403J-1122334D01*
G01*
X141988834Y-32883653D01*
G75*
G02*
X140789097Y-33928584I-1122334J77403D01*
G01*
G37*
%TD*%
D13*
%TO.C,F7*%
X124396500Y-37306250D03*
X114236500Y-37306250D03*
D14*
X116816500Y-33306250D03*
D15*
X119316500Y-37306250D03*
G36*
G01*
X114755188Y-35603600D02*
X114755183Y-35603595D01*
G75*
G02*
X114669155Y-34014933I751317J837345D01*
G01*
X115979157Y-32554933D01*
G75*
G02*
X117567819Y-32468905I837345J-751317D01*
G01*
X117567819Y-32468905D01*
G75*
G02*
X117653847Y-34057567I-751317J-837345D01*
G01*
X116343845Y-35517567D01*
G75*
G02*
X114755183Y-35603595I-837345J751317D01*
G01*
G37*
D14*
X121856500Y-32226250D03*
G36*
G01*
X121739983Y-33928645D02*
X121739097Y-33928584D01*
G75*
G02*
X120694166Y-32728847I77403J1122334D01*
G01*
X120734166Y-32148847D01*
G75*
G02*
X121933903Y-31103916I1122334J-77403D01*
G01*
X121933903Y-31103916D01*
G75*
G02*
X122978834Y-32303653I-77403J-1122334D01*
G01*
X122938834Y-32883653D01*
G75*
G02*
X121739097Y-33928584I-1122334J77403D01*
G01*
G37*
%TD*%
D13*
%TO.C,F6*%
X105346500Y-37306250D03*
X95186500Y-37306250D03*
D14*
X97766500Y-33306250D03*
D15*
X100266500Y-37306250D03*
G36*
G01*
X95705188Y-35603600D02*
X95705183Y-35603595D01*
G75*
G02*
X95619155Y-34014933I751317J837345D01*
G01*
X96929157Y-32554933D01*
G75*
G02*
X98517819Y-32468905I837345J-751317D01*
G01*
X98517819Y-32468905D01*
G75*
G02*
X98603847Y-34057567I-751317J-837345D01*
G01*
X97293845Y-35517567D01*
G75*
G02*
X95705183Y-35603595I-837345J751317D01*
G01*
G37*
D14*
X102806500Y-32226250D03*
G36*
G01*
X102689983Y-33928645D02*
X102689097Y-33928584D01*
G75*
G02*
X101644166Y-32728847I77403J1122334D01*
G01*
X101684166Y-32148847D01*
G75*
G02*
X102883903Y-31103916I1122334J-77403D01*
G01*
X102883903Y-31103916D01*
G75*
G02*
X103928834Y-32303653I-77403J-1122334D01*
G01*
X103888834Y-32883653D01*
G75*
G02*
X102689097Y-33928584I-1122334J77403D01*
G01*
G37*
%TD*%
D13*
%TO.C,F5*%
X86296500Y-37306250D03*
X76136500Y-37306250D03*
D14*
X78716500Y-33306250D03*
D15*
X81216500Y-37306250D03*
G36*
G01*
X76655188Y-35603600D02*
X76655183Y-35603595D01*
G75*
G02*
X76569155Y-34014933I751317J837345D01*
G01*
X77879157Y-32554933D01*
G75*
G02*
X79467819Y-32468905I837345J-751317D01*
G01*
X79467819Y-32468905D01*
G75*
G02*
X79553847Y-34057567I-751317J-837345D01*
G01*
X78243845Y-35517567D01*
G75*
G02*
X76655183Y-35603595I-837345J751317D01*
G01*
G37*
D14*
X83756500Y-32226250D03*
G36*
G01*
X83639983Y-33928645D02*
X83639097Y-33928584D01*
G75*
G02*
X82594166Y-32728847I77403J1122334D01*
G01*
X82634166Y-32148847D01*
G75*
G02*
X83833903Y-31103916I1122334J-77403D01*
G01*
X83833903Y-31103916D01*
G75*
G02*
X84878834Y-32303653I-77403J-1122334D01*
G01*
X84838834Y-32883653D01*
G75*
G02*
X83639097Y-33928584I-1122334J77403D01*
G01*
G37*
%TD*%
D13*
%TO.C,F4*%
X57721500Y-37306250D03*
X47561500Y-37306250D03*
D14*
X50141500Y-33306250D03*
D15*
X52641500Y-37306250D03*
G36*
G01*
X48080188Y-35603600D02*
X48080183Y-35603595D01*
G75*
G02*
X47994155Y-34014933I751317J837345D01*
G01*
X49304157Y-32554933D01*
G75*
G02*
X50892819Y-32468905I837345J-751317D01*
G01*
X50892819Y-32468905D01*
G75*
G02*
X50978847Y-34057567I-751317J-837345D01*
G01*
X49668845Y-35517567D01*
G75*
G02*
X48080183Y-35603595I-837345J751317D01*
G01*
G37*
D14*
X55181500Y-32226250D03*
G36*
G01*
X55064983Y-33928645D02*
X55064097Y-33928584D01*
G75*
G02*
X54019166Y-32728847I77403J1122334D01*
G01*
X54059166Y-32148847D01*
G75*
G02*
X55258903Y-31103916I1122334J-77403D01*
G01*
X55258903Y-31103916D01*
G75*
G02*
X56303834Y-32303653I-77403J-1122334D01*
G01*
X56263834Y-32883653D01*
G75*
G02*
X55064097Y-33928584I-1122334J77403D01*
G01*
G37*
%TD*%
D13*
%TO.C,F3*%
X38671500Y-37306250D03*
X28511500Y-37306250D03*
D14*
X31091500Y-33306250D03*
D15*
X33591500Y-37306250D03*
G36*
G01*
X29030188Y-35603600D02*
X29030183Y-35603595D01*
G75*
G02*
X28944155Y-34014933I751317J837345D01*
G01*
X30254157Y-32554933D01*
G75*
G02*
X31842819Y-32468905I837345J-751317D01*
G01*
X31842819Y-32468905D01*
G75*
G02*
X31928847Y-34057567I-751317J-837345D01*
G01*
X30618845Y-35517567D01*
G75*
G02*
X29030183Y-35603595I-837345J751317D01*
G01*
G37*
D14*
X36131500Y-32226250D03*
G36*
G01*
X36014983Y-33928645D02*
X36014097Y-33928584D01*
G75*
G02*
X34969166Y-32728847I77403J1122334D01*
G01*
X35009166Y-32148847D01*
G75*
G02*
X36208903Y-31103916I1122334J-77403D01*
G01*
X36208903Y-31103916D01*
G75*
G02*
X37253834Y-32303653I-77403J-1122334D01*
G01*
X37213834Y-32883653D01*
G75*
G02*
X36014097Y-33928584I-1122334J77403D01*
G01*
G37*
%TD*%
D13*
%TO.C,F2*%
X19621500Y-37306250D03*
X9461500Y-37306250D03*
D14*
X12041500Y-33306250D03*
D15*
X14541500Y-37306250D03*
G36*
G01*
X9980188Y-35603600D02*
X9980183Y-35603595D01*
G75*
G02*
X9894155Y-34014933I751317J837345D01*
G01*
X11204157Y-32554933D01*
G75*
G02*
X12792819Y-32468905I837345J-751317D01*
G01*
X12792819Y-32468905D01*
G75*
G02*
X12878847Y-34057567I-751317J-837345D01*
G01*
X11568845Y-35517567D01*
G75*
G02*
X9980183Y-35603595I-837345J751317D01*
G01*
G37*
D14*
X17081500Y-32226250D03*
G36*
G01*
X16964983Y-33928645D02*
X16964097Y-33928584D01*
G75*
G02*
X15919166Y-32728847I77403J1122334D01*
G01*
X15959166Y-32148847D01*
G75*
G02*
X17158903Y-31103916I1122334J-77403D01*
G01*
X17158903Y-31103916D01*
G75*
G02*
X18203834Y-32303653I-77403J-1122334D01*
G01*
X18163834Y-32883653D01*
G75*
G02*
X16964097Y-33928584I-1122334J77403D01*
G01*
G37*
%TD*%
D13*
%TO.C,F1*%
X571500Y-37306250D03*
X-9588500Y-37306250D03*
D14*
X-7008500Y-33306250D03*
D15*
X-4508500Y-37306250D03*
G36*
G01*
X-9069812Y-35603600D02*
X-9069817Y-35603595D01*
G75*
G02*
X-9155845Y-34014933I751317J837345D01*
G01*
X-7845843Y-32554933D01*
G75*
G02*
X-6257181Y-32468905I837345J-751317D01*
G01*
X-6257181Y-32468905D01*
G75*
G02*
X-6171153Y-34057567I-751317J-837345D01*
G01*
X-7481155Y-35517567D01*
G75*
G02*
X-9069817Y-35603595I-837345J751317D01*
G01*
G37*
D14*
X-1968500Y-32226250D03*
G36*
G01*
X-2085017Y-33928645D02*
X-2085903Y-33928584D01*
G75*
G02*
X-3130834Y-32728847I77403J1122334D01*
G01*
X-3090834Y-32148847D01*
G75*
G02*
X-1891097Y-31103916I1122334J-77403D01*
G01*
X-1891097Y-31103916D01*
G75*
G02*
X-846166Y-32303653I-77403J-1122334D01*
G01*
X-886166Y-32883653D01*
G75*
G02*
X-2085903Y-33928584I-1122334J77403D01*
G01*
G37*
%TD*%
D13*
%TO.C,ESC1*%
X-37528500Y-37306250D03*
X-47688500Y-37306250D03*
D14*
X-45108500Y-33306250D03*
D15*
X-42608500Y-37306250D03*
G36*
G01*
X-47169812Y-35603600D02*
X-47169817Y-35603595D01*
G75*
G02*
X-47255845Y-34014933I751317J837345D01*
G01*
X-45945843Y-32554933D01*
G75*
G02*
X-44357181Y-32468905I837345J-751317D01*
G01*
X-44357181Y-32468905D01*
G75*
G02*
X-44271153Y-34057567I-751317J-837345D01*
G01*
X-45581155Y-35517567D01*
G75*
G02*
X-47169817Y-35603595I-837345J751317D01*
G01*
G37*
D14*
X-40068500Y-32226250D03*
G36*
G01*
X-40185017Y-33928645D02*
X-40185903Y-33928584D01*
G75*
G02*
X-41230834Y-32728847I77403J1122334D01*
G01*
X-41190834Y-32148847D01*
G75*
G02*
X-39991097Y-31103916I1122334J-77403D01*
G01*
X-39991097Y-31103916D01*
G75*
G02*
X-38946166Y-32303653I-77403J-1122334D01*
G01*
X-38986166Y-32883653D01*
G75*
G02*
X-40185903Y-33928584I-1122334J77403D01*
G01*
G37*
%TD*%
D13*
%TO.C,EQUALS1*%
X191071500Y-65881250D03*
X180911500Y-65881250D03*
D14*
X183491500Y-61881250D03*
D15*
X185991500Y-65881250D03*
G36*
G01*
X181430188Y-64178600D02*
X181430183Y-64178595D01*
G75*
G02*
X181344155Y-62589933I751317J837345D01*
G01*
X182654157Y-61129933D01*
G75*
G02*
X184242819Y-61043905I837345J-751317D01*
G01*
X184242819Y-61043905D01*
G75*
G02*
X184328847Y-62632567I-751317J-837345D01*
G01*
X183018845Y-64092567D01*
G75*
G02*
X181430183Y-64178595I-837345J751317D01*
G01*
G37*
D14*
X188531500Y-60801250D03*
G36*
G01*
X188414983Y-62503645D02*
X188414097Y-62503584D01*
G75*
G02*
X187369166Y-61303847I77403J1122334D01*
G01*
X187409166Y-60723847D01*
G75*
G02*
X188608903Y-59678916I1122334J-77403D01*
G01*
X188608903Y-59678916D01*
G75*
G02*
X189653834Y-60878653I-77403J-1122334D01*
G01*
X189613834Y-61458653D01*
G75*
G02*
X188414097Y-62503584I-1122334J77403D01*
G01*
G37*
%TD*%
D13*
%TO.C,ENTER1*%
X226758500Y-94456250D03*
X216598500Y-94456250D03*
D14*
X219178500Y-90456250D03*
D15*
X221678500Y-94456250D03*
G36*
G01*
X217117188Y-92753600D02*
X217117183Y-92753595D01*
G75*
G02*
X217031155Y-91164933I751317J837345D01*
G01*
X218341157Y-89704933D01*
G75*
G02*
X219929819Y-89618905I837345J-751317D01*
G01*
X219929819Y-89618905D01*
G75*
G02*
X220015847Y-91207567I-751317J-837345D01*
G01*
X218705845Y-92667567D01*
G75*
G02*
X217117183Y-92753595I-837345J751317D01*
G01*
G37*
D14*
X224218500Y-89376250D03*
G36*
G01*
X224101983Y-91078645D02*
X224101097Y-91078584D01*
G75*
G02*
X223056166Y-89878847I77403J1122334D01*
G01*
X223096166Y-89298847D01*
G75*
G02*
X224295903Y-88253916I1122334J-77403D01*
G01*
X224295903Y-88253916D01*
G75*
G02*
X225340834Y-89453653I-77403J-1122334D01*
G01*
X225300834Y-90033653D01*
G75*
G02*
X224101097Y-91078584I-1122334J77403D01*
G01*
G37*
%TD*%
D13*
%TO.C,END1*%
X272097500Y-84931250D03*
X261937500Y-84931250D03*
D14*
X264517500Y-80931250D03*
D15*
X267017500Y-84931250D03*
G36*
G01*
X262456188Y-83228600D02*
X262456183Y-83228595D01*
G75*
G02*
X262370155Y-81639933I751317J837345D01*
G01*
X263680157Y-80179933D01*
G75*
G02*
X265268819Y-80093905I837345J-751317D01*
G01*
X265268819Y-80093905D01*
G75*
G02*
X265354847Y-81682567I-751317J-837345D01*
G01*
X264044845Y-83142567D01*
G75*
G02*
X262456183Y-83228595I-837345J751317D01*
G01*
G37*
D14*
X269557500Y-79851250D03*
G36*
G01*
X269440983Y-81553645D02*
X269440097Y-81553584D01*
G75*
G02*
X268395166Y-80353847I77403J1122334D01*
G01*
X268435166Y-79773847D01*
G75*
G02*
X269634903Y-78728916I1122334J-77403D01*
G01*
X269634903Y-78728916D01*
G75*
G02*
X270679834Y-79928653I-77403J-1122334D01*
G01*
X270639834Y-80508653D01*
G75*
G02*
X269440097Y-81553584I-1122334J77403D01*
G01*
G37*
%TD*%
D13*
%TO.C,E1*%
X29146500Y-84931250D03*
X18986500Y-84931250D03*
D14*
X21566500Y-80931250D03*
D15*
X24066500Y-84931250D03*
G36*
G01*
X19505188Y-83228600D02*
X19505183Y-83228595D01*
G75*
G02*
X19419155Y-81639933I751317J837345D01*
G01*
X20729157Y-80179933D01*
G75*
G02*
X22317819Y-80093905I837345J-751317D01*
G01*
X22317819Y-80093905D01*
G75*
G02*
X22403847Y-81682567I-751317J-837345D01*
G01*
X21093845Y-83142567D01*
G75*
G02*
X19505183Y-83228595I-837345J751317D01*
G01*
G37*
D14*
X26606500Y-79851250D03*
G36*
G01*
X26489983Y-81553645D02*
X26489097Y-81553584D01*
G75*
G02*
X25444166Y-80353847I77403J1122334D01*
G01*
X25484166Y-79773847D01*
G75*
G02*
X26683903Y-78728916I1122334J-77403D01*
G01*
X26683903Y-78728916D01*
G75*
G02*
X27728834Y-79928653I-77403J-1122334D01*
G01*
X27688834Y-80508653D01*
G75*
G02*
X26489097Y-81553584I-1122334J77403D01*
G01*
G37*
%TD*%
D13*
%TO.C,DEL1*%
X253047500Y-84931250D03*
X242887500Y-84931250D03*
D14*
X245467500Y-80931250D03*
D15*
X247967500Y-84931250D03*
G36*
G01*
X243406188Y-83228600D02*
X243406183Y-83228595D01*
G75*
G02*
X243320155Y-81639933I751317J837345D01*
G01*
X244630157Y-80179933D01*
G75*
G02*
X246218819Y-80093905I837345J-751317D01*
G01*
X246218819Y-80093905D01*
G75*
G02*
X246304847Y-81682567I-751317J-837345D01*
G01*
X244994845Y-83142567D01*
G75*
G02*
X243406183Y-83228595I-837345J751317D01*
G01*
G37*
D14*
X250507500Y-79851250D03*
G36*
G01*
X250390983Y-81553645D02*
X250390097Y-81553584D01*
G75*
G02*
X249345166Y-80353847I77403J1122334D01*
G01*
X249385166Y-79773847D01*
G75*
G02*
X250584903Y-78728916I1122334J-77403D01*
G01*
X250584903Y-78728916D01*
G75*
G02*
X251629834Y-79928653I-77403J-1122334D01*
G01*
X251589834Y-80508653D01*
G75*
G02*
X250390097Y-81553584I-1122334J77403D01*
G01*
G37*
%TD*%
D13*
%TO.C,DASH1*%
X172021500Y-65881250D03*
X161861500Y-65881250D03*
D14*
X164441500Y-61881250D03*
D15*
X166941500Y-65881250D03*
G36*
G01*
X162380188Y-64178600D02*
X162380183Y-64178595D01*
G75*
G02*
X162294155Y-62589933I751317J837345D01*
G01*
X163604157Y-61129933D01*
G75*
G02*
X165192819Y-61043905I837345J-751317D01*
G01*
X165192819Y-61043905D01*
G75*
G02*
X165278847Y-62632567I-751317J-837345D01*
G01*
X163968845Y-64092567D01*
G75*
G02*
X162380183Y-64178595I-837345J751317D01*
G01*
G37*
D14*
X169481500Y-60801250D03*
G36*
G01*
X169364983Y-62503645D02*
X169364097Y-62503584D01*
G75*
G02*
X168319166Y-61303847I77403J1122334D01*
G01*
X168359166Y-60723847D01*
G75*
G02*
X169558903Y-59678916I1122334J-77403D01*
G01*
X169558903Y-59678916D01*
G75*
G02*
X170603834Y-60878653I-77403J-1122334D01*
G01*
X170563834Y-61458653D01*
G75*
G02*
X169364097Y-62503584I-1122334J77403D01*
G01*
G37*
%TD*%
D13*
%TO.C,DARROW1*%
X271970500Y-142081250D03*
X261810500Y-142081250D03*
D14*
X264390500Y-138081250D03*
D15*
X266890500Y-142081250D03*
G36*
G01*
X262329188Y-140378600D02*
X262329183Y-140378595D01*
G75*
G02*
X262243155Y-138789933I751317J837345D01*
G01*
X263553157Y-137329933D01*
G75*
G02*
X265141819Y-137243905I837345J-751317D01*
G01*
X265141819Y-137243905D01*
G75*
G02*
X265227847Y-138832567I-751317J-837345D01*
G01*
X263917845Y-140292567D01*
G75*
G02*
X262329183Y-140378595I-837345J751317D01*
G01*
G37*
D14*
X269430500Y-137001250D03*
G36*
G01*
X269313983Y-138703645D02*
X269313097Y-138703584D01*
G75*
G02*
X268268166Y-137503847I77403J1122334D01*
G01*
X268308166Y-136923847D01*
G75*
G02*
X269507903Y-135878916I1122334J-77403D01*
G01*
X269507903Y-135878916D01*
G75*
G02*
X270552834Y-137078653I-77403J-1122334D01*
G01*
X270512834Y-137658653D01*
G75*
G02*
X269313097Y-138703584I-1122334J77403D01*
G01*
G37*
%TD*%
D19*
%TO.C,D106*%
X356425500Y-137002250D03*
X356425500Y-140302250D03*
%TD*%
%TO.C,D105*%
X328002900Y-135171450D03*
X328002900Y-131871450D03*
%TD*%
%TO.C,D104*%
X294576500Y-137129250D03*
X294576500Y-140429250D03*
%TD*%
%TO.C,D103*%
X275907500Y-137002250D03*
X275907500Y-140302250D03*
%TD*%
%TO.C,D102*%
X256222500Y-136875250D03*
X256222500Y-140175250D03*
%TD*%
%TO.C,D101*%
X230060500Y-137129250D03*
X230060500Y-140429250D03*
%TD*%
%TO.C,D100*%
X205930500Y-137129250D03*
X205930500Y-140429250D03*
%TD*%
%TO.C,D99*%
X182435500Y-137002250D03*
X182435500Y-140302250D03*
%TD*%
%TO.C,D98*%
X158686500Y-136875250D03*
X158686500Y-140175250D03*
%TD*%
%TO.C,D97*%
X87871300Y-138321050D03*
X87871300Y-135021050D03*
%TD*%
%TO.C,D96*%
X15938500Y-137129250D03*
X15938500Y-140429250D03*
%TD*%
%TO.C,D95*%
X-7937500Y-137129250D03*
X-7937500Y-140429250D03*
%TD*%
%TO.C,D94*%
X-31813500Y-137002250D03*
X-31813500Y-140302250D03*
%TD*%
%TO.C,D93*%
X374180100Y-121607850D03*
X374180100Y-118307850D03*
%TD*%
%TO.C,D92*%
X356095300Y-117952250D03*
X356095300Y-121252250D03*
%TD*%
%TO.C,D91*%
X336994500Y-118003050D03*
X336994500Y-121303050D03*
%TD*%
%TO.C,D90*%
X318046100Y-117952250D03*
X318046100Y-121252250D03*
%TD*%
%TO.C,D89*%
X275272500Y-117952250D03*
X275272500Y-121252250D03*
%TD*%
%TO.C,D88*%
X215938100Y-116172250D03*
X215938100Y-112872250D03*
%TD*%
%TO.C,D87*%
X179971700Y-118003050D03*
X179971700Y-121303050D03*
%TD*%
%TO.C,D86*%
X161099500Y-117825250D03*
X161099500Y-121125250D03*
%TD*%
%TO.C,D85*%
X141820900Y-117850650D03*
X141820900Y-121150650D03*
%TD*%
%TO.C,D84*%
X122923300Y-117952250D03*
X122923300Y-121252250D03*
%TD*%
%TO.C,D83*%
X103873300Y-117952250D03*
X103873300Y-121252250D03*
%TD*%
%TO.C,D82*%
X84772500Y-117952250D03*
X84772500Y-121252250D03*
%TD*%
%TO.C,D81*%
X65722500Y-117952250D03*
X65722500Y-121252250D03*
%TD*%
%TO.C,D80*%
X46621700Y-118003050D03*
X46621700Y-121303050D03*
%TD*%
%TO.C,D79*%
X27673300Y-117952250D03*
X27673300Y-121252250D03*
%TD*%
%TO.C,D78*%
X8699500Y-117952250D03*
X8699500Y-121252250D03*
%TD*%
%TO.C,D77*%
X-10731500Y-117952250D03*
X-10731500Y-121252250D03*
%TD*%
%TO.C,D76*%
X-31940500Y-118206250D03*
X-31940500Y-121506250D03*
%TD*%
%TO.C,D75*%
X356247700Y-98851450D03*
X356247700Y-102151450D03*
%TD*%
%TO.C,D74*%
X337375500Y-99156250D03*
X337375500Y-102456250D03*
%TD*%
%TO.C,D73*%
X318046100Y-98902250D03*
X318046100Y-102202250D03*
%TD*%
%TO.C,D72*%
X208572100Y-98851450D03*
X208572100Y-102151450D03*
%TD*%
%TO.C,D71*%
X189572900Y-98851450D03*
X189572900Y-102151450D03*
%TD*%
%TO.C,D70*%
X170319700Y-98851450D03*
X170319700Y-102151450D03*
%TD*%
%TO.C,D69*%
X151422100Y-98902250D03*
X151422100Y-102202250D03*
%TD*%
%TO.C,D68*%
X132321300Y-98953050D03*
X132321300Y-102253050D03*
%TD*%
%TO.C,D67*%
X113271300Y-98902250D03*
X113271300Y-102202250D03*
%TD*%
%TO.C,D66*%
X94170500Y-98902250D03*
X94170500Y-102202250D03*
%TD*%
%TO.C,D65*%
X75120500Y-98851450D03*
X75120500Y-102151450D03*
%TD*%
%TO.C,D64*%
X56121300Y-98902250D03*
X56121300Y-102202250D03*
%TD*%
%TO.C,D63*%
X37020500Y-98953050D03*
X37020500Y-102253050D03*
%TD*%
%TO.C,D62*%
X18072100Y-98953050D03*
X18072100Y-102253050D03*
%TD*%
%TO.C,D61*%
X-977900Y-98902250D03*
X-977900Y-102202250D03*
%TD*%
%TO.C,D60*%
X-26987500Y-98902250D03*
X-26987500Y-102202250D03*
%TD*%
D13*
%TO.C,D59*%
X33845500Y-103981250D03*
X23685500Y-103981250D03*
D14*
X26265500Y-99981250D03*
D15*
X28765500Y-103981250D03*
G36*
G01*
X24204188Y-102278600D02*
X24204183Y-102278595D01*
G75*
G02*
X24118155Y-100689933I751317J837345D01*
G01*
X25428157Y-99229933D01*
G75*
G02*
X27016819Y-99143905I837345J-751317D01*
G01*
X27016819Y-99143905D01*
G75*
G02*
X27102847Y-100732567I-751317J-837345D01*
G01*
X25792845Y-102192567D01*
G75*
G02*
X24204183Y-102278595I-837345J751317D01*
G01*
G37*
D14*
X31305500Y-98901250D03*
G36*
G01*
X31188983Y-100603645D02*
X31188097Y-100603584D01*
G75*
G02*
X30143166Y-99403847I77403J1122334D01*
G01*
X30183166Y-98823847D01*
G75*
G02*
X31382903Y-97778916I1122334J-77403D01*
G01*
X31382903Y-97778916D01*
G75*
G02*
X32427834Y-98978653I-77403J-1122334D01*
G01*
X32387834Y-99558653D01*
G75*
G02*
X31188097Y-100603584I-1122334J77403D01*
G01*
G37*
%TD*%
D19*
%TO.C,D58*%
X374383300Y-83457050D03*
X374383300Y-80157050D03*
%TD*%
%TO.C,D57*%
X356196900Y-79903050D03*
X356196900Y-83203050D03*
%TD*%
%TO.C,D56*%
X337146900Y-79903050D03*
X337146900Y-83203050D03*
%TD*%
%TO.C,D55*%
X318096900Y-79801450D03*
X318096900Y-83101450D03*
%TD*%
%TO.C,D54*%
X294322500Y-79852250D03*
X294322500Y-83152250D03*
%TD*%
%TO.C,D53*%
X275272500Y-79852250D03*
X275272500Y-83152250D03*
%TD*%
%TO.C,D52*%
X256222500Y-79852250D03*
X256222500Y-83152250D03*
%TD*%
%TO.C,D51*%
X230111300Y-83457050D03*
X230111300Y-80157050D03*
%TD*%
%TO.C,D50*%
X203796900Y-79852250D03*
X203796900Y-83152250D03*
%TD*%
%TO.C,D49*%
X184746900Y-79903050D03*
X184746900Y-83203050D03*
%TD*%
%TO.C,D48*%
X165646100Y-79801450D03*
X165646100Y-83101450D03*
%TD*%
%TO.C,D47*%
X146545300Y-79903050D03*
X146545300Y-83203050D03*
%TD*%
%TO.C,D46*%
X127749300Y-79903050D03*
X127749300Y-83203050D03*
%TD*%
%TO.C,D45*%
X108648500Y-80055450D03*
X108648500Y-83355450D03*
%TD*%
%TO.C,D44*%
X89496900Y-79903050D03*
X89496900Y-83203050D03*
%TD*%
%TO.C,D43*%
X70446900Y-79801450D03*
X70446900Y-83101450D03*
%TD*%
%TO.C,D42*%
X51549300Y-79801450D03*
X51549300Y-83101450D03*
%TD*%
%TO.C,D41*%
X32296100Y-79903050D03*
X32296100Y-83203050D03*
%TD*%
%TO.C,D40*%
X13144500Y-79979250D03*
X13144500Y-83279250D03*
%TD*%
%TO.C,D39*%
X-5905500Y-79852250D03*
X-5905500Y-83152250D03*
%TD*%
%TO.C,D38*%
X-29400500Y-79852250D03*
X-29400500Y-83152250D03*
%TD*%
%TO.C,D37*%
X374713500Y-60802250D03*
X374713500Y-64102250D03*
%TD*%
%TO.C,D36*%
X356044500Y-60802250D03*
X356044500Y-64102250D03*
%TD*%
%TO.C,D35*%
X337375500Y-60802250D03*
X337375500Y-64102250D03*
%TD*%
%TO.C,D34*%
X318071500Y-60675250D03*
X318071500Y-63975250D03*
%TD*%
%TO.C,D33*%
X294068500Y-60802250D03*
X294068500Y-64102250D03*
%TD*%
%TO.C,D32*%
X275272500Y-60675250D03*
X275272500Y-63975250D03*
%TD*%
%TO.C,D31*%
X256349500Y-60675250D03*
X256349500Y-63975250D03*
%TD*%
%TO.C,D30*%
X226047300Y-59073050D03*
X226047300Y-55773050D03*
%TD*%
%TO.C,D29*%
X194373500Y-60675250D03*
X194373500Y-63975250D03*
%TD*%
%TO.C,D28*%
X175196500Y-60548250D03*
X175196500Y-63848250D03*
%TD*%
%TO.C,D27*%
X156349700Y-60802250D03*
X156349700Y-64102250D03*
%TD*%
%TO.C,D26*%
X137350500Y-60802250D03*
X137350500Y-64102250D03*
%TD*%
%TO.C,D25*%
X118198900Y-60751450D03*
X118198900Y-64051450D03*
%TD*%
%TO.C,D24*%
X99047300Y-60599050D03*
X99047300Y-63899050D03*
%TD*%
%TO.C,D23*%
X79895700Y-60802250D03*
X79895700Y-64102250D03*
%TD*%
%TO.C,D22*%
X61150500Y-60853050D03*
X61150500Y-64153050D03*
%TD*%
%TO.C,D21*%
X41643300Y-60903850D03*
X41643300Y-64203850D03*
%TD*%
%TO.C,D20*%
X22923500Y-60929250D03*
X22923500Y-64229250D03*
%TD*%
%TO.C,D19*%
X3898900Y-60802250D03*
X3898900Y-64102250D03*
%TD*%
%TO.C,D18*%
X-15176500Y-60802250D03*
X-15176500Y-64102250D03*
%TD*%
%TO.C,D17*%
X-34302700Y-60700650D03*
X-34302700Y-64000650D03*
%TD*%
%TO.C,D16*%
X294525700Y-32201850D03*
X294525700Y-35501850D03*
%TD*%
%TO.C,D15*%
X275069300Y-32252650D03*
X275069300Y-35552650D03*
%TD*%
%TO.C,D14*%
X256324100Y-32252650D03*
X256324100Y-35552650D03*
%TD*%
%TO.C,D13*%
X232448100Y-32151050D03*
X232448100Y-35451050D03*
%TD*%
%TO.C,D12*%
X213398100Y-32252650D03*
X213398100Y-35552650D03*
%TD*%
%TO.C,D11*%
X194373500Y-32354250D03*
X194373500Y-35654250D03*
%TD*%
%TO.C,D10*%
X175196500Y-32201850D03*
X175196500Y-35501850D03*
%TD*%
%TO.C,D9*%
X146646900Y-32252650D03*
X146646900Y-35552650D03*
%TD*%
%TO.C,D8*%
X127596900Y-32201850D03*
X127596900Y-35501850D03*
%TD*%
%TO.C,D7*%
X108775500Y-32227250D03*
X108775500Y-35527250D03*
%TD*%
%TO.C,D6*%
X89598500Y-32227250D03*
X89598500Y-35527250D03*
%TD*%
%TO.C,D5*%
X61150500Y-32201850D03*
X61150500Y-35501850D03*
%TD*%
%TO.C,D4*%
X41846500Y-32100250D03*
X41846500Y-35400250D03*
%TD*%
%TO.C,D3*%
X23050500Y-32227250D03*
X23050500Y-35527250D03*
%TD*%
%TO.C,D2*%
X3873500Y-32227250D03*
X3873500Y-35527250D03*
%TD*%
%TO.C,D1*%
X-34226500Y-32227250D03*
X-34226500Y-35527250D03*
%TD*%
D13*
%TO.C,CTRL1*%
X-35115500Y-142081250D03*
X-45275500Y-142081250D03*
D14*
X-42695500Y-138081250D03*
D15*
X-40195500Y-142081250D03*
G36*
G01*
X-44756812Y-140378600D02*
X-44756817Y-140378595D01*
G75*
G02*
X-44842845Y-138789933I751317J837345D01*
G01*
X-43532843Y-137329933D01*
G75*
G02*
X-41944181Y-137243905I837345J-751317D01*
G01*
X-41944181Y-137243905D01*
G75*
G02*
X-41858153Y-138832567I-751317J-837345D01*
G01*
X-43168155Y-140292567D01*
G75*
G02*
X-44756817Y-140378595I-837345J751317D01*
G01*
G37*
D14*
X-37655500Y-137001250D03*
G36*
G01*
X-37772017Y-138703645D02*
X-37772903Y-138703584D01*
G75*
G02*
X-38817834Y-137503847I77403J1122334D01*
G01*
X-38777834Y-136923847D01*
G75*
G02*
X-37578097Y-135878916I1122334J-77403D01*
G01*
X-37578097Y-135878916D01*
G75*
G02*
X-36533166Y-137078653I-77403J-1122334D01*
G01*
X-36573166Y-137658653D01*
G75*
G02*
X-37772903Y-138703584I-1122334J77403D01*
G01*
G37*
%TD*%
D13*
%TO.C,COMMA1*%
X138747500Y-123031250D03*
X128587500Y-123031250D03*
D14*
X131167500Y-119031250D03*
D15*
X133667500Y-123031250D03*
G36*
G01*
X129106188Y-121328600D02*
X129106183Y-121328595D01*
G75*
G02*
X129020155Y-119739933I751317J837345D01*
G01*
X130330157Y-118279933D01*
G75*
G02*
X131918819Y-118193905I837345J-751317D01*
G01*
X131918819Y-118193905D01*
G75*
G02*
X132004847Y-119782567I-751317J-837345D01*
G01*
X130694845Y-121242567D01*
G75*
G02*
X129106183Y-121328595I-837345J751317D01*
G01*
G37*
D14*
X136207500Y-117951250D03*
G36*
G01*
X136090983Y-119653645D02*
X136090097Y-119653584D01*
G75*
G02*
X135045166Y-118453847I77403J1122334D01*
G01*
X135085166Y-117873847D01*
G75*
G02*
X136284903Y-116828916I1122334J-77403D01*
G01*
X136284903Y-116828916D01*
G75*
G02*
X137329834Y-118028653I-77403J-1122334D01*
G01*
X137289834Y-118608653D01*
G75*
G02*
X136090097Y-119653584I-1122334J77403D01*
G01*
G37*
%TD*%
D13*
%TO.C,COLON1*%
X167195500Y-103981250D03*
X157035500Y-103981250D03*
D14*
X159615500Y-99981250D03*
D15*
X162115500Y-103981250D03*
G36*
G01*
X157554188Y-102278600D02*
X157554183Y-102278595D01*
G75*
G02*
X157468155Y-100689933I751317J837345D01*
G01*
X158778157Y-99229933D01*
G75*
G02*
X160366819Y-99143905I837345J-751317D01*
G01*
X160366819Y-99143905D01*
G75*
G02*
X160452847Y-100732567I-751317J-837345D01*
G01*
X159142845Y-102192567D01*
G75*
G02*
X157554183Y-102278595I-837345J751317D01*
G01*
G37*
D14*
X164655500Y-98901250D03*
G36*
G01*
X164538983Y-100603645D02*
X164538097Y-100603584D01*
G75*
G02*
X163493166Y-99403847I77403J1122334D01*
G01*
X163533166Y-98823847D01*
G75*
G02*
X164732903Y-97778916I1122334J-77403D01*
G01*
X164732903Y-97778916D01*
G75*
G02*
X165777834Y-98978653I-77403J-1122334D01*
G01*
X165737834Y-99558653D01*
G75*
G02*
X164538097Y-100603584I-1122334J77403D01*
G01*
G37*
%TD*%
D13*
%TO.C,CAPSL1*%
X-30416500Y-103981250D03*
X-40576500Y-103981250D03*
D14*
X-37996500Y-99981250D03*
D15*
X-35496500Y-103981250D03*
G36*
G01*
X-40057812Y-102278600D02*
X-40057817Y-102278595D01*
G75*
G02*
X-40143845Y-100689933I751317J837345D01*
G01*
X-38833843Y-99229933D01*
G75*
G02*
X-37245181Y-99143905I837345J-751317D01*
G01*
X-37245181Y-99143905D01*
G75*
G02*
X-37159153Y-100732567I-751317J-837345D01*
G01*
X-38469155Y-102192567D01*
G75*
G02*
X-40057817Y-102278595I-837345J751317D01*
G01*
G37*
D14*
X-32956500Y-98901250D03*
G36*
G01*
X-33073017Y-100603645D02*
X-33073903Y-100603584D01*
G75*
G02*
X-34118834Y-99403847I77403J1122334D01*
G01*
X-34078834Y-98823847D01*
G75*
G02*
X-32879097Y-97778916I1122334J-77403D01*
G01*
X-32879097Y-97778916D01*
G75*
G02*
X-31834166Y-98978653I-77403J-1122334D01*
G01*
X-31874166Y-99558653D01*
G75*
G02*
X-33073903Y-100603584I-1122334J77403D01*
G01*
G37*
%TD*%
%TO.C,C8*%
G36*
G01*
X301531000Y-43757000D02*
X302481000Y-43757000D01*
G75*
G02*
X302731000Y-44007000I0J-250000D01*
G01*
X302731000Y-44507000D01*
G75*
G02*
X302481000Y-44757000I-250000J0D01*
G01*
X301531000Y-44757000D01*
G75*
G02*
X301281000Y-44507000I0J250000D01*
G01*
X301281000Y-44007000D01*
G75*
G02*
X301531000Y-43757000I250000J0D01*
G01*
G37*
G36*
G01*
X301531000Y-41857000D02*
X302481000Y-41857000D01*
G75*
G02*
X302731000Y-42107000I0J-250000D01*
G01*
X302731000Y-42607000D01*
G75*
G02*
X302481000Y-42857000I-250000J0D01*
G01*
X301531000Y-42857000D01*
G75*
G02*
X301281000Y-42607000I0J250000D01*
G01*
X301281000Y-42107000D01*
G75*
G02*
X301531000Y-41857000I250000J0D01*
G01*
G37*
%TD*%
%TO.C,C7*%
G36*
G01*
X304198000Y-49599000D02*
X305148000Y-49599000D01*
G75*
G02*
X305398000Y-49849000I0J-250000D01*
G01*
X305398000Y-50349000D01*
G75*
G02*
X305148000Y-50599000I-250000J0D01*
G01*
X304198000Y-50599000D01*
G75*
G02*
X303948000Y-50349000I0J250000D01*
G01*
X303948000Y-49849000D01*
G75*
G02*
X304198000Y-49599000I250000J0D01*
G01*
G37*
G36*
G01*
X304198000Y-47699000D02*
X305148000Y-47699000D01*
G75*
G02*
X305398000Y-47949000I0J-250000D01*
G01*
X305398000Y-48449000D01*
G75*
G02*
X305148000Y-48699000I-250000J0D01*
G01*
X304198000Y-48699000D01*
G75*
G02*
X303948000Y-48449000I0J250000D01*
G01*
X303948000Y-47949000D01*
G75*
G02*
X304198000Y-47699000I250000J0D01*
G01*
G37*
%TD*%
%TO.C,C5*%
G36*
G01*
X318701000Y-50960000D02*
X318701000Y-51910000D01*
G75*
G02*
X318451000Y-52160000I-250000J0D01*
G01*
X317951000Y-52160000D01*
G75*
G02*
X317701000Y-51910000I0J250000D01*
G01*
X317701000Y-50960000D01*
G75*
G02*
X317951000Y-50710000I250000J0D01*
G01*
X318451000Y-50710000D01*
G75*
G02*
X318701000Y-50960000I0J-250000D01*
G01*
G37*
G36*
G01*
X320601000Y-50960000D02*
X320601000Y-51910000D01*
G75*
G02*
X320351000Y-52160000I-250000J0D01*
G01*
X319851000Y-52160000D01*
G75*
G02*
X319601000Y-51910000I0J250000D01*
G01*
X319601000Y-50960000D01*
G75*
G02*
X319851000Y-50710000I250000J0D01*
G01*
X320351000Y-50710000D01*
G75*
G02*
X320601000Y-50960000I0J-250000D01*
G01*
G37*
%TD*%
%TO.C,C4*%
G36*
G01*
X308069000Y-29522000D02*
X307119000Y-29522000D01*
G75*
G02*
X306869000Y-29272000I0J250000D01*
G01*
X306869000Y-28772000D01*
G75*
G02*
X307119000Y-28522000I250000J0D01*
G01*
X308069000Y-28522000D01*
G75*
G02*
X308319000Y-28772000I0J-250000D01*
G01*
X308319000Y-29272000D01*
G75*
G02*
X308069000Y-29522000I-250000J0D01*
G01*
G37*
G36*
G01*
X308069000Y-31422000D02*
X307119000Y-31422000D01*
G75*
G02*
X306869000Y-31172000I0J250000D01*
G01*
X306869000Y-30672000D01*
G75*
G02*
X307119000Y-30422000I250000J0D01*
G01*
X308069000Y-30422000D01*
G75*
G02*
X308319000Y-30672000I0J-250000D01*
G01*
X308319000Y-31172000D01*
G75*
G02*
X308069000Y-31422000I-250000J0D01*
G01*
G37*
%TD*%
%TO.C,C3*%
G36*
G01*
X311625000Y-28379000D02*
X310675000Y-28379000D01*
G75*
G02*
X310425000Y-28129000I0J250000D01*
G01*
X310425000Y-27629000D01*
G75*
G02*
X310675000Y-27379000I250000J0D01*
G01*
X311625000Y-27379000D01*
G75*
G02*
X311875000Y-27629000I0J-250000D01*
G01*
X311875000Y-28129000D01*
G75*
G02*
X311625000Y-28379000I-250000J0D01*
G01*
G37*
G36*
G01*
X311625000Y-30279000D02*
X310675000Y-30279000D01*
G75*
G02*
X310425000Y-30029000I0J250000D01*
G01*
X310425000Y-29529000D01*
G75*
G02*
X310675000Y-29279000I250000J0D01*
G01*
X311625000Y-29279000D01*
G75*
G02*
X311875000Y-29529000I0J-250000D01*
G01*
X311875000Y-30029000D01*
G75*
G02*
X311625000Y-30279000I-250000J0D01*
G01*
G37*
%TD*%
%TO.C,C2*%
G36*
G01*
X320134000Y-28379000D02*
X319184000Y-28379000D01*
G75*
G02*
X318934000Y-28129000I0J250000D01*
G01*
X318934000Y-27629000D01*
G75*
G02*
X319184000Y-27379000I250000J0D01*
G01*
X320134000Y-27379000D01*
G75*
G02*
X320384000Y-27629000I0J-250000D01*
G01*
X320384000Y-28129000D01*
G75*
G02*
X320134000Y-28379000I-250000J0D01*
G01*
G37*
G36*
G01*
X320134000Y-30279000D02*
X319184000Y-30279000D01*
G75*
G02*
X318934000Y-30029000I0J250000D01*
G01*
X318934000Y-29529000D01*
G75*
G02*
X319184000Y-29279000I250000J0D01*
G01*
X320134000Y-29279000D01*
G75*
G02*
X320384000Y-29529000I0J-250000D01*
G01*
X320384000Y-30029000D01*
G75*
G02*
X320134000Y-30279000I-250000J0D01*
G01*
G37*
%TD*%
D13*
%TO.C,C1*%
X43497500Y-123031250D03*
X33337500Y-123031250D03*
D14*
X35917500Y-119031250D03*
D15*
X38417500Y-123031250D03*
G36*
G01*
X33856188Y-121328600D02*
X33856183Y-121328595D01*
G75*
G02*
X33770155Y-119739933I751317J837345D01*
G01*
X35080157Y-118279933D01*
G75*
G02*
X36668819Y-118193905I837345J-751317D01*
G01*
X36668819Y-118193905D01*
G75*
G02*
X36754847Y-119782567I-751317J-837345D01*
G01*
X35444845Y-121242567D01*
G75*
G02*
X33856183Y-121328595I-837345J751317D01*
G01*
G37*
D14*
X40957500Y-117951250D03*
G36*
G01*
X40840983Y-119653645D02*
X40840097Y-119653584D01*
G75*
G02*
X39795166Y-118453847I77403J1122334D01*
G01*
X39835166Y-117873847D01*
G75*
G02*
X41034903Y-116828916I1122334J-77403D01*
G01*
X41034903Y-116828916D01*
G75*
G02*
X42079834Y-118028653I-77403J-1122334D01*
G01*
X42039834Y-118608653D01*
G75*
G02*
X40840097Y-119653584I-1122334J77403D01*
G01*
G37*
%TD*%
D13*
%TO.C,BSLSH1*%
X-13652500Y-123031250D03*
X-23812500Y-123031250D03*
D14*
X-21232500Y-119031250D03*
D15*
X-18732500Y-123031250D03*
G36*
G01*
X-23293812Y-121328600D02*
X-23293817Y-121328595D01*
G75*
G02*
X-23379845Y-119739933I751317J837345D01*
G01*
X-22069843Y-118279933D01*
G75*
G02*
X-20481181Y-118193905I837345J-751317D01*
G01*
X-20481181Y-118193905D01*
G75*
G02*
X-20395153Y-119782567I-751317J-837345D01*
G01*
X-21705155Y-121242567D01*
G75*
G02*
X-23293817Y-121328595I-837345J751317D01*
G01*
G37*
D14*
X-16192500Y-117951250D03*
G36*
G01*
X-16309017Y-119653645D02*
X-16309903Y-119653584D01*
G75*
G02*
X-17354834Y-118453847I77403J1122334D01*
G01*
X-17314834Y-117873847D01*
G75*
G02*
X-16115097Y-116828916I1122334J-77403D01*
G01*
X-16115097Y-116828916D01*
G75*
G02*
X-15070166Y-118028653I-77403J-1122334D01*
G01*
X-15110166Y-118608653D01*
G75*
G02*
X-16309903Y-119653584I-1122334J77403D01*
G01*
G37*
%TD*%
D13*
%TO.C,BKSP1*%
X219646500Y-65881250D03*
X209486500Y-65881250D03*
D14*
X212066500Y-61881250D03*
D15*
X214566500Y-65881250D03*
G36*
G01*
X210005188Y-64178600D02*
X210005183Y-64178595D01*
G75*
G02*
X209919155Y-62589933I751317J837345D01*
G01*
X211229157Y-61129933D01*
G75*
G02*
X212817819Y-61043905I837345J-751317D01*
G01*
X212817819Y-61043905D01*
G75*
G02*
X212903847Y-62632567I-751317J-837345D01*
G01*
X211593845Y-64092567D01*
G75*
G02*
X210005183Y-64178595I-837345J751317D01*
G01*
G37*
D14*
X217106500Y-60801250D03*
G36*
G01*
X216989983Y-62503645D02*
X216989097Y-62503584D01*
G75*
G02*
X215944166Y-61303847I77403J1122334D01*
G01*
X215984166Y-60723847D01*
G75*
G02*
X217183903Y-59678916I1122334J-77403D01*
G01*
X217183903Y-59678916D01*
G75*
G02*
X218228834Y-60878653I-77403J-1122334D01*
G01*
X218188834Y-61458653D01*
G75*
G02*
X216989097Y-62503584I-1122334J77403D01*
G01*
G37*
%TD*%
D13*
%TO.C,B1*%
X81597500Y-123031250D03*
X71437500Y-123031250D03*
D14*
X74017500Y-119031250D03*
D15*
X76517500Y-123031250D03*
G36*
G01*
X71956188Y-121328600D02*
X71956183Y-121328595D01*
G75*
G02*
X71870155Y-119739933I751317J837345D01*
G01*
X73180157Y-118279933D01*
G75*
G02*
X74768819Y-118193905I837345J-751317D01*
G01*
X74768819Y-118193905D01*
G75*
G02*
X74854847Y-119782567I-751317J-837345D01*
G01*
X73544845Y-121242567D01*
G75*
G02*
X71956183Y-121328595I-837345J751317D01*
G01*
G37*
D14*
X79057500Y-117951250D03*
G36*
G01*
X78940983Y-119653645D02*
X78940097Y-119653584D01*
G75*
G02*
X77895166Y-118453847I77403J1122334D01*
G01*
X77935166Y-117873847D01*
G75*
G02*
X79134903Y-116828916I1122334J-77403D01*
G01*
X79134903Y-116828916D01*
G75*
G02*
X80179834Y-118028653I-77403J-1122334D01*
G01*
X80139834Y-118608653D01*
G75*
G02*
X78940097Y-119653584I-1122334J77403D01*
G01*
G37*
%TD*%
D13*
%TO.C,AT1*%
X186245500Y-103981250D03*
X176085500Y-103981250D03*
D14*
X178665500Y-99981250D03*
D15*
X181165500Y-103981250D03*
G36*
G01*
X176604188Y-102278600D02*
X176604183Y-102278595D01*
G75*
G02*
X176518155Y-100689933I751317J837345D01*
G01*
X177828157Y-99229933D01*
G75*
G02*
X179416819Y-99143905I837345J-751317D01*
G01*
X179416819Y-99143905D01*
G75*
G02*
X179502847Y-100732567I-751317J-837345D01*
G01*
X178192845Y-102192567D01*
G75*
G02*
X176604183Y-102278595I-837345J751317D01*
G01*
G37*
D14*
X183705500Y-98901250D03*
G36*
G01*
X183588983Y-100603645D02*
X183588097Y-100603584D01*
G75*
G02*
X182543166Y-99403847I77403J1122334D01*
G01*
X182583166Y-98823847D01*
G75*
G02*
X183782903Y-97778916I1122334J-77403D01*
G01*
X183782903Y-97778916D01*
G75*
G02*
X184827834Y-98978653I-77403J-1122334D01*
G01*
X184787834Y-99558653D01*
G75*
G02*
X183588097Y-100603584I-1122334J77403D01*
G01*
G37*
%TD*%
D13*
%TO.C,ALT1*%
X12509500Y-142081250D03*
X2349500Y-142081250D03*
D14*
X4929500Y-138081250D03*
D15*
X7429500Y-142081250D03*
G36*
G01*
X2868188Y-140378600D02*
X2868183Y-140378595D01*
G75*
G02*
X2782155Y-138789933I751317J837345D01*
G01*
X4092157Y-137329933D01*
G75*
G02*
X5680819Y-137243905I837345J-751317D01*
G01*
X5680819Y-137243905D01*
G75*
G02*
X5766847Y-138832567I-751317J-837345D01*
G01*
X4456845Y-140292567D01*
G75*
G02*
X2868183Y-140378595I-837345J751317D01*
G01*
G37*
D14*
X9969500Y-137001250D03*
G36*
G01*
X9852983Y-138703645D02*
X9852097Y-138703584D01*
G75*
G02*
X8807166Y-137503847I77403J1122334D01*
G01*
X8847166Y-136923847D01*
G75*
G02*
X10046903Y-135878916I1122334J-77403D01*
G01*
X10046903Y-135878916D01*
G75*
G02*
X11091834Y-137078653I-77403J-1122334D01*
G01*
X11051834Y-137658653D01*
G75*
G02*
X9852097Y-138703584I-1122334J77403D01*
G01*
G37*
%TD*%
D13*
%TO.C,A1*%
X-4254500Y-103981250D03*
X-14414500Y-103981250D03*
D14*
X-11834500Y-99981250D03*
D15*
X-9334500Y-103981250D03*
G36*
G01*
X-13895812Y-102278600D02*
X-13895817Y-102278595D01*
G75*
G02*
X-13981845Y-100689933I751317J837345D01*
G01*
X-12671843Y-99229933D01*
G75*
G02*
X-11083181Y-99143905I837345J-751317D01*
G01*
X-11083181Y-99143905D01*
G75*
G02*
X-10997153Y-100732567I-751317J-837345D01*
G01*
X-12307155Y-102192567D01*
G75*
G02*
X-13895817Y-102278595I-837345J751317D01*
G01*
G37*
D14*
X-6794500Y-98901250D03*
G36*
G01*
X-6911017Y-100603645D02*
X-6911903Y-100603584D01*
G75*
G02*
X-7956834Y-99403847I77403J1122334D01*
G01*
X-7916834Y-98823847D01*
G75*
G02*
X-6717097Y-97778916I1122334J-77403D01*
G01*
X-6717097Y-97778916D01*
G75*
G02*
X-5672166Y-98978653I-77403J-1122334D01*
G01*
X-5712166Y-99558653D01*
G75*
G02*
X-6911903Y-100603584I-1122334J77403D01*
G01*
G37*
%TD*%
M02*
