%TF.GenerationSoftware,KiCad,Pcbnew,(5.1.10)-1*%
%TF.CreationDate,2021-06-26T18:22:07+01:00*%
%TF.ProjectId,pcb,7063622e-6b69-4636-9164-5f7063625858,rev?*%
%TF.SameCoordinates,Original*%
%TF.FileFunction,Soldermask,Top*%
%TF.FilePolarity,Negative*%
%FSLAX46Y46*%
G04 Gerber Fmt 4.6, Leading zero omitted, Abs format (unit mm)*
G04 Created by KiCad (PCBNEW (5.1.10)-1) date 2021-06-26 18:22:07*
%MOMM*%
%LPD*%
G01*
G04 APERTURE LIST*
%ADD10O,1.700000X2.700000*%
%ADD11C,1.750000*%
%ADD12C,3.987800*%
G04 APERTURE END LIST*
D10*
%TO.C,USB1*%
X-26637000Y-27813000D03*
X-19337000Y-27813000D03*
X-19337000Y-32313000D03*
X-26637000Y-32313000D03*
%TD*%
D11*
%TO.C,Z1*%
X5397500Y-123031250D03*
X-4762500Y-123031250D03*
D12*
X317500Y-123031250D03*
%TD*%
D11*
%TO.C,Y1*%
X86296500Y-84931250D03*
X76136500Y-84931250D03*
D12*
X81216500Y-84931250D03*
%TD*%
D11*
%TO.C,X1*%
X24447500Y-123031250D03*
X14287500Y-123031250D03*
D12*
X19367500Y-123031250D03*
%TD*%
D11*
%TO.C,WIN2*%
X179133500Y-142081250D03*
X168973500Y-142081250D03*
D12*
X174053500Y-142081250D03*
%TD*%
D11*
%TO.C,WIN1*%
X-11366500Y-142081250D03*
X-21526500Y-142081250D03*
D12*
X-16446500Y-142081250D03*
%TD*%
D11*
%TO.C,W1*%
X10096500Y-84931250D03*
X-63500Y-84931250D03*
D12*
X5016500Y-84931250D03*
%TD*%
D11*
%TO.C,V1*%
X62547500Y-123031250D03*
X52387500Y-123031250D03*
D12*
X57467500Y-123031250D03*
%TD*%
D11*
%TO.C,UARROW1*%
X272097500Y-123031250D03*
X261937500Y-123031250D03*
D12*
X267017500Y-123031250D03*
%TD*%
D11*
%TO.C,U1*%
X105346500Y-84931250D03*
X95186500Y-84931250D03*
D12*
X100266500Y-84931250D03*
%TD*%
D11*
%TO.C,TILDA1*%
X-37528500Y-65881250D03*
X-47688500Y-65881250D03*
D12*
X-42608500Y-65881250D03*
%TD*%
D11*
%TO.C,TAB1*%
X-32702500Y-84931250D03*
X-42862500Y-84931250D03*
D12*
X-37782500Y-84931250D03*
%TD*%
D11*
%TO.C,T1*%
X67246500Y-84931250D03*
X57086500Y-84931250D03*
D12*
X62166500Y-84931250D03*
%TD*%
D11*
%TO.C,SPACE1*%
X83883500Y-142081250D03*
X73723500Y-142081250D03*
D12*
X78803500Y-142081250D03*
%TD*%
D11*
%TO.C,SHIFT1*%
X-35115500Y-123031250D03*
X-45275500Y-123031250D03*
D12*
X-40195500Y-123031250D03*
%TD*%
D11*
%TO.C,SCLLK1*%
X272097500Y-37306250D03*
X261937500Y-37306250D03*
D12*
X267017500Y-37306250D03*
%TD*%
D11*
%TO.C,S1*%
X14795500Y-103981250D03*
X4635500Y-103981250D03*
D12*
X9715500Y-103981250D03*
%TD*%
D11*
%TO.C,RCTRL1*%
X226758500Y-142081250D03*
X216598500Y-142081250D03*
D12*
X221678500Y-142081250D03*
%TD*%
D11*
%TO.C,RCBR1*%
X200596500Y-84931250D03*
X190436500Y-84931250D03*
D12*
X195516500Y-84931250D03*
%TD*%
D11*
%TO.C,RARROW1*%
X291147500Y-142081250D03*
X280987500Y-142081250D03*
D12*
X286067500Y-142081250D03*
%TD*%
D11*
%TO.C,RALT1*%
X155384500Y-142081250D03*
X145224500Y-142081250D03*
D12*
X150304500Y-142081250D03*
%TD*%
D11*
%TO.C,R1*%
X48196500Y-84931250D03*
X38036500Y-84931250D03*
D12*
X43116500Y-84931250D03*
%TD*%
D11*
%TO.C,Q1*%
X-8953500Y-84931250D03*
X-19113500Y-84931250D03*
D12*
X-14033500Y-84931250D03*
%TD*%
D11*
%TO.C,PRTSC1*%
X253047500Y-37306250D03*
X242887500Y-37306250D03*
D12*
X247967500Y-37306250D03*
%TD*%
D11*
%TO.C,PGUP1*%
X291147500Y-65881250D03*
X280987500Y-65881250D03*
D12*
X286067500Y-65881250D03*
%TD*%
D11*
%TO.C,PGDN1*%
X291147500Y-84931250D03*
X280987500Y-84931250D03*
D12*
X286067500Y-84931250D03*
%TD*%
D11*
%TO.C,PERIOD1*%
X157797500Y-123031250D03*
X147637500Y-123031250D03*
D12*
X152717500Y-123031250D03*
%TD*%
D11*
%TO.C,PAUSE1*%
X291147500Y-37306250D03*
X280987500Y-37306250D03*
D12*
X286067500Y-37306250D03*
%TD*%
D11*
%TO.C,P1*%
X162496500Y-84931250D03*
X152336500Y-84931250D03*
D12*
X157416500Y-84931250D03*
%TD*%
D11*
%TO.C,O1*%
X143446500Y-84931250D03*
X133286500Y-84931250D03*
D12*
X138366500Y-84931250D03*
%TD*%
D11*
%TO.C,NUMLK1*%
X314896500Y-65881250D03*
X304736500Y-65881250D03*
D12*
X309816500Y-65881250D03*
%TD*%
D11*
%TO.C,NP-PLUS1*%
X372046500Y-94456250D03*
X361886500Y-94456250D03*
D12*
X366966500Y-94456250D03*
%TD*%
D11*
%TO.C,NP-MTPLY1*%
X352996500Y-65881250D03*
X342836500Y-65881250D03*
D12*
X347916500Y-65881250D03*
%TD*%
D11*
%TO.C,NP-MINUS1*%
X372046500Y-65881250D03*
X361886500Y-65881250D03*
D12*
X366966500Y-65881250D03*
%TD*%
D11*
%TO.C,NP-ENTER1*%
X372046500Y-132556250D03*
X361886500Y-132556250D03*
D12*
X366966500Y-132556250D03*
%TD*%
D11*
%TO.C,NP-DIV1*%
X333946500Y-65881250D03*
X323786500Y-65881250D03*
D12*
X328866500Y-65881250D03*
%TD*%
D11*
%TO.C,NP-DEL1*%
X352996500Y-142081250D03*
X342836500Y-142081250D03*
D12*
X347916500Y-142081250D03*
%TD*%
D11*
%TO.C,NP-9*%
X352996500Y-84931250D03*
X342836500Y-84931250D03*
D12*
X347916500Y-84931250D03*
%TD*%
D11*
%TO.C,NP-8*%
X333946500Y-84931250D03*
X323786500Y-84931250D03*
D12*
X328866500Y-84931250D03*
%TD*%
D11*
%TO.C,NP-7*%
X314896500Y-84931250D03*
X304736500Y-84931250D03*
D12*
X309816500Y-84931250D03*
%TD*%
D11*
%TO.C,NP-6*%
X352996500Y-103981250D03*
X342836500Y-103981250D03*
D12*
X347916500Y-103981250D03*
%TD*%
D11*
%TO.C,NP-5*%
X333946500Y-103981250D03*
X323786500Y-103981250D03*
D12*
X328866500Y-103981250D03*
%TD*%
D11*
%TO.C,NP-4*%
X314896500Y-103981250D03*
X304736500Y-103981250D03*
D12*
X309816500Y-103981250D03*
%TD*%
D11*
%TO.C,NP-3*%
X352996500Y-123031250D03*
X342836500Y-123031250D03*
D12*
X347916500Y-123031250D03*
%TD*%
D11*
%TO.C,NP-2*%
X333946500Y-123031250D03*
X323786500Y-123031250D03*
D12*
X328866500Y-123031250D03*
%TD*%
D11*
%TO.C,NP-1*%
X314896500Y-123031250D03*
X304736500Y-123031250D03*
D12*
X309816500Y-123031250D03*
%TD*%
D11*
%TO.C,NP-0*%
X324421500Y-142081250D03*
X314261500Y-142081250D03*
D12*
X319341500Y-142081250D03*
%TD*%
D11*
%TO.C,N1*%
X100647500Y-123031250D03*
X90487500Y-123031250D03*
D12*
X95567500Y-123031250D03*
%TD*%
D11*
%TO.C,MX-RSHIFT1*%
X212534500Y-123031250D03*
X202374500Y-123031250D03*
D12*
X207454500Y-123031250D03*
%TD*%
D11*
%TO.C,MENU1*%
X203009500Y-142081250D03*
X192849500Y-142081250D03*
D12*
X197929500Y-142081250D03*
%TD*%
D11*
%TO.C,M1*%
X119697500Y-123031250D03*
X109537500Y-123031250D03*
D12*
X114617500Y-123031250D03*
%TD*%
D11*
%TO.C,LCBR1*%
X181546500Y-84931250D03*
X171386500Y-84931250D03*
D12*
X176466500Y-84931250D03*
%TD*%
D11*
%TO.C,LARROW1*%
X253047500Y-142081250D03*
X242887500Y-142081250D03*
D12*
X247967500Y-142081250D03*
%TD*%
D11*
%TO.C,L1*%
X148145500Y-103981250D03*
X137985500Y-103981250D03*
D12*
X143065500Y-103981250D03*
%TD*%
D11*
%TO.C,K10*%
X129095500Y-103981250D03*
X118935500Y-103981250D03*
D12*
X124015500Y-103981250D03*
%TD*%
D11*
%TO.C,K9*%
X133921500Y-65881250D03*
X123761500Y-65881250D03*
D12*
X128841500Y-65881250D03*
%TD*%
D11*
%TO.C,K8*%
X114871500Y-65881250D03*
X104711500Y-65881250D03*
D12*
X109791500Y-65881250D03*
%TD*%
D11*
%TO.C,K7*%
X95821500Y-65881250D03*
X85661500Y-65881250D03*
D12*
X90741500Y-65881250D03*
%TD*%
D11*
%TO.C,K6*%
X76771500Y-65881250D03*
X66611500Y-65881250D03*
D12*
X71691500Y-65881250D03*
%TD*%
D11*
%TO.C,K5*%
X57721500Y-65881250D03*
X47561500Y-65881250D03*
D12*
X52641500Y-65881250D03*
%TD*%
D11*
%TO.C,K4*%
X38671500Y-65881250D03*
X28511500Y-65881250D03*
D12*
X33591500Y-65881250D03*
%TD*%
D11*
%TO.C,K3*%
X19621500Y-65881250D03*
X9461500Y-65881250D03*
D12*
X14541500Y-65881250D03*
%TD*%
D11*
%TO.C,K2*%
X571500Y-65881250D03*
X-9588500Y-65881250D03*
D12*
X-4508500Y-65881250D03*
%TD*%
D11*
%TO.C,K1*%
X-18478500Y-65881250D03*
X-28638500Y-65881250D03*
D12*
X-23558500Y-65881250D03*
%TD*%
D11*
%TO.C,K0*%
X152971500Y-65881250D03*
X142811500Y-65881250D03*
D12*
X147891500Y-65881250D03*
%TD*%
D11*
%TO.C,J1*%
X110045500Y-103981250D03*
X99885500Y-103981250D03*
D12*
X104965500Y-103981250D03*
%TD*%
D11*
%TO.C,INS1*%
X253047500Y-65881250D03*
X242887500Y-65881250D03*
D12*
X247967500Y-65881250D03*
%TD*%
D11*
%TO.C,I1*%
X124396500Y-84931250D03*
X114236500Y-84931250D03*
D12*
X119316500Y-84931250D03*
%TD*%
D11*
%TO.C,HOME1*%
X272097500Y-65881250D03*
X261937500Y-65881250D03*
D12*
X267017500Y-65881250D03*
%TD*%
D11*
%TO.C,HASH1*%
X205295500Y-103981250D03*
X195135500Y-103981250D03*
D12*
X200215500Y-103981250D03*
%TD*%
D11*
%TO.C,H1*%
X90995500Y-103981250D03*
X80835500Y-103981250D03*
D12*
X85915500Y-103981250D03*
%TD*%
D11*
%TO.C,G1*%
X71945500Y-103981250D03*
X61785500Y-103981250D03*
D12*
X66865500Y-103981250D03*
%TD*%
D11*
%TO.C,FSLSH1*%
X176847500Y-123031250D03*
X166687500Y-123031250D03*
D12*
X171767500Y-123031250D03*
%TD*%
D11*
%TO.C,F13*%
X52895500Y-103981250D03*
X42735500Y-103981250D03*
D12*
X47815500Y-103981250D03*
%TD*%
D11*
%TO.C,F12*%
X229171500Y-37306250D03*
X219011500Y-37306250D03*
D12*
X224091500Y-37306250D03*
%TD*%
D11*
%TO.C,F11*%
X210121500Y-37306250D03*
X199961500Y-37306250D03*
D12*
X205041500Y-37306250D03*
%TD*%
D11*
%TO.C,F10*%
X191071500Y-37306250D03*
X180911500Y-37306250D03*
D12*
X185991500Y-37306250D03*
%TD*%
D11*
%TO.C,F9*%
X172021500Y-37306250D03*
X161861500Y-37306250D03*
D12*
X166941500Y-37306250D03*
%TD*%
D11*
%TO.C,F8*%
X143446500Y-37306250D03*
X133286500Y-37306250D03*
D12*
X138366500Y-37306250D03*
%TD*%
D11*
%TO.C,F7*%
X124396500Y-37306250D03*
X114236500Y-37306250D03*
D12*
X119316500Y-37306250D03*
%TD*%
D11*
%TO.C,F6*%
X105346500Y-37306250D03*
X95186500Y-37306250D03*
D12*
X100266500Y-37306250D03*
%TD*%
D11*
%TO.C,F5*%
X86296500Y-37306250D03*
X76136500Y-37306250D03*
D12*
X81216500Y-37306250D03*
%TD*%
D11*
%TO.C,F4*%
X57721500Y-37306250D03*
X47561500Y-37306250D03*
D12*
X52641500Y-37306250D03*
%TD*%
D11*
%TO.C,F3*%
X38671500Y-37306250D03*
X28511500Y-37306250D03*
D12*
X33591500Y-37306250D03*
%TD*%
D11*
%TO.C,F2*%
X19621500Y-37306250D03*
X9461500Y-37306250D03*
D12*
X14541500Y-37306250D03*
%TD*%
D11*
%TO.C,F1*%
X571500Y-37306250D03*
X-9588500Y-37306250D03*
D12*
X-4508500Y-37306250D03*
%TD*%
D11*
%TO.C,ESC1*%
X-37528500Y-37306250D03*
X-47688500Y-37306250D03*
D12*
X-42608500Y-37306250D03*
%TD*%
D11*
%TO.C,EQUALS1*%
X191071500Y-65881250D03*
X180911500Y-65881250D03*
D12*
X185991500Y-65881250D03*
%TD*%
D11*
%TO.C,ENTER1*%
X226758500Y-94456250D03*
X216598500Y-94456250D03*
D12*
X221678500Y-94456250D03*
%TD*%
D11*
%TO.C,END1*%
X272097500Y-84931250D03*
X261937500Y-84931250D03*
D12*
X267017500Y-84931250D03*
%TD*%
D11*
%TO.C,E1*%
X29146500Y-84931250D03*
X18986500Y-84931250D03*
D12*
X24066500Y-84931250D03*
%TD*%
D11*
%TO.C,DEL1*%
X253047500Y-84931250D03*
X242887500Y-84931250D03*
D12*
X247967500Y-84931250D03*
%TD*%
D11*
%TO.C,DASH1*%
X172021500Y-65881250D03*
X161861500Y-65881250D03*
D12*
X166941500Y-65881250D03*
%TD*%
D11*
%TO.C,DARROW1*%
X271970500Y-142081250D03*
X261810500Y-142081250D03*
D12*
X266890500Y-142081250D03*
%TD*%
D11*
%TO.C,D59*%
X33845500Y-103981250D03*
X23685500Y-103981250D03*
D12*
X28765500Y-103981250D03*
%TD*%
D11*
%TO.C,CTRL1*%
X-35115500Y-142081250D03*
X-45275500Y-142081250D03*
D12*
X-40195500Y-142081250D03*
%TD*%
D11*
%TO.C,COMMA1*%
X138747500Y-123031250D03*
X128587500Y-123031250D03*
D12*
X133667500Y-123031250D03*
%TD*%
D11*
%TO.C,COLON1*%
X167195500Y-103981250D03*
X157035500Y-103981250D03*
D12*
X162115500Y-103981250D03*
%TD*%
D11*
%TO.C,CAPSL1*%
X-30416500Y-103981250D03*
X-40576500Y-103981250D03*
D12*
X-35496500Y-103981250D03*
%TD*%
D11*
%TO.C,C1*%
X43497500Y-123031250D03*
X33337500Y-123031250D03*
D12*
X38417500Y-123031250D03*
%TD*%
D11*
%TO.C,BSLSH1*%
X-13652500Y-123031250D03*
X-23812500Y-123031250D03*
D12*
X-18732500Y-123031250D03*
%TD*%
D11*
%TO.C,BKSP1*%
X219646500Y-65881250D03*
X209486500Y-65881250D03*
D12*
X214566500Y-65881250D03*
%TD*%
D11*
%TO.C,B1*%
X81597500Y-123031250D03*
X71437500Y-123031250D03*
D12*
X76517500Y-123031250D03*
%TD*%
D11*
%TO.C,AT1*%
X186245500Y-103981250D03*
X176085500Y-103981250D03*
D12*
X181165500Y-103981250D03*
%TD*%
D11*
%TO.C,ALT1*%
X12509500Y-142081250D03*
X2349500Y-142081250D03*
D12*
X7429500Y-142081250D03*
%TD*%
D11*
%TO.C,A1*%
X-4254500Y-103981250D03*
X-14414500Y-103981250D03*
D12*
X-9334500Y-103981250D03*
%TD*%
M02*
